<?xml version="1.0" encoding="utf-8"?>
<!-- Generator: Adobe Illustrator 16.0.0, SVG Export Plug-In . SVG Version: 6.00 Build 0)  -->
<!DOCTYPE svg PUBLIC "-//W3C//DTD SVG 1.1//EN" "http://www.w3.org/Graphics/SVG/1.1/DTD/svg11.dtd">
<svg version="1.1" id="Layer_1" xmlns="http://www.w3.org/2000/svg" xmlns:xlink="http://www.w3.org/1999/xlink" x="0px" y="0px"
	 width="570px" height="310px" viewBox="0 0 570 310" enable-background="new 0 0 570 310" xml:space="preserve">
<g>
	<path fill="#EDF6FC" d="M35.984,173.864L35.984,173.864c0,3.834,3.109,6.943,6.943,6.943h28.816c3.067,0,5.554,2.487,5.554,5.555
		l0,0c0,3.068-2.487,5.555-5.554,5.555H61.328c-3.834,0-6.943,3.109-6.943,6.943v0.348c0,3.834,3.109,6.943,6.943,6.943h87.347
		c3.834,0,6.944-3.109,6.944-6.943v-0.348c0-3.834-3.109-6.943-6.944-6.943h-32.232c-3.068,0-5.555-2.486-5.555-5.555l0,0
		c0-3.067,2.487-5.555,5.555-5.555h10.349c3.834,0,6.944-3.109,6.944-6.943l0,0c0-3.834-3.109-6.943-6.944-6.943H42.927
		C39.093,166.921,35.984,170.03,35.984,173.864z"/>
	<path fill="#EDF6FC" d="M398.041,154.904L398.041,154.904c0,3.835,3.108,6.943,6.942,6.943h28.817c3.068,0,5.556,2.487,5.556,5.556
		l0,0c0,3.066-2.487,5.555-5.556,5.555h-10.415c-3.837,0-6.945,3.108-6.945,6.943v0.348c0,3.834,3.108,6.943,6.945,6.943h87.346
		c3.837,0,6.945-3.109,6.945-6.943v-0.348c0-3.835-3.108-6.943-6.945-6.943H478.5c-3.068,0-5.556-2.488-5.556-5.555l0,0
		c0-3.068,2.487-5.556,5.556-5.556h10.349c3.834,0,6.942-3.108,6.942-6.943l0,0c0-3.834-3.108-6.943-6.942-6.943h-83.865
		C401.149,147.961,398.041,151.07,398.041,154.904z"/>
	<path fill="#EDF6FC" d="M245.608,131.883L245.608,131.883c0,3.834,3.109,6.943,6.944,6.943h28.816c3.067,0,5.555,2.487,5.555,5.555
		l0,0c0,3.067-2.487,5.555-5.555,5.555h-10.415c-3.836,0-6.945,3.109-6.945,6.943v0.348c0,3.834,3.109,6.943,6.945,6.943H358.3
		c3.834,0,6.942-3.109,6.942-6.943v-0.348c0-3.834-3.108-6.943-6.942-6.943h-32.233c-3.066,0-5.554-2.488-5.554-5.555l0,0
		c0-3.068,2.487-5.555,5.554-5.555h10.349c3.836,0,6.944-3.109,6.944-6.943l0,0c0-3.835-3.108-6.944-6.944-6.944h-83.863
		C248.717,124.939,245.608,128.048,245.608,131.883z"/>
	<path fill="#EDF6FC" d="M120.694,146.982L120.694,146.982c0,3.835,3.109,6.944,6.943,6.944h28.816c3.068,0,5.555,2.487,5.555,5.555
		l0,0c0,3.068-2.487,5.555-5.555,5.555h-10.416c-3.834,0-6.943,3.108-6.943,6.943v0.348c0,3.835,3.109,6.943,6.943,6.943h87.348
		c3.834,0,6.942-3.108,6.942-6.943v-0.348c0-3.835-3.108-6.943-6.942-6.943h-32.232c-3.068,0-5.555-2.486-5.555-5.555l0,0
		c0-3.068,2.487-5.555,5.555-5.555h10.349c3.833,0,6.943-3.108,6.943-6.944l0,0c0-3.834-3.11-6.943-6.943-6.943h-83.865
		C123.803,140.04,120.694,143.148,120.694,146.982z"/>
	<circle id="XMLID_584_" fill="#5FB0E5" cx="133.624" cy="117.602" r="1.365"/>
	<path id="XMLID_27_" fill="#5FB0E5" d="M190.193,189.325c0,0.752-0.611,1.363-1.365,1.363s-1.365-0.611-1.365-1.363
		c0-0.756,0.611-1.366,1.365-1.366S190.193,188.569,190.193,189.325z"/>
	<circle id="XMLID_21_" fill="#5FB0E5" cx="64.019" cy="212.354" r="1.365"/>
	<circle id="XMLID_25_" fill="#5FB0E5" cx="517.675" cy="161.021" r="1.364"/>
	<circle id="XMLID_31_" fill="#5FB0E5" cx="553.7" cy="224.519" r="1.364"/>
	<circle id="XMLID_32_" fill="#5FB0E5" cx="342.783" cy="76.437" r="1.366"/>
	<circle id="XMLID_13_" fill="#5FB0E5" cx="398.041" cy="126.771" r="1.302"/>
	<circle id="XMLID_16_" fill="#5FB0E5" cx="248.33" cy="91.66" r="2.645"/>
	<circle id="XMLID_22_" fill="#5FB0E5" cx="89.244" cy="134.103" r="1.9"/>
	<circle id="XMLID_24_" fill="#5FB0E5" cx="450.756" cy="121.18" r="2.271"/>
	<path id="XMLID_17_" fill="#5FB0E5" d="M207.833,131.835c-2.36,0.626-2.867,1.133-3.494,3.493
		c-0.626-2.359-1.133-2.867-3.493-3.493c2.36-0.626,2.867-1.134,3.493-3.494C204.965,130.701,205.473,131.209,207.833,131.835z"/>
	<path id="XMLID_30_" fill="#5FB0E5" d="M423.165,89.817c-1.78,0.472-2.163,0.855-2.635,2.634c-0.474-1.779-0.856-2.163-2.637-2.634
		c1.78-0.472,2.163-0.855,2.637-2.635C421.002,88.961,421.385,89.345,423.165,89.817z"/>
	<path id="XMLID_20_" fill="#5FB0E5" d="M99.395,215.634c-1.779,0.473-2.163,0.855-2.635,2.635
		c-0.472-1.779-0.855-2.162-2.634-2.635c1.779-0.473,2.163-0.855,2.634-2.635C97.232,214.778,97.615,215.161,99.395,215.634z"/>
	<path id="XMLID_26_" fill="#5FB0E5" d="M493.688,115.98c-2.402,0.638-2.921,1.155-3.558,3.559
		c-0.639-2.404-1.156-2.921-3.558-3.559c2.401-0.638,2.919-1.155,3.558-3.558C490.767,114.825,491.285,115.343,493.688,115.98z"/>
	<path id="XMLID_23_" fill="#5FB0E5" d="M49.83,116.097c-2.207,0.585-2.681,1.06-3.268,3.267c-0.585-2.207-1.06-2.682-3.266-3.267
		c2.206-0.586,2.681-1.06,3.266-3.268C47.148,115.037,47.623,115.511,49.83,116.097z"/>
	<path id="XMLID_18_" fill="#5FB0E5" d="M301.827,110.686c-2.894,0.768-3.515,1.39-4.283,4.282c-0.765-2.892-1.39-3.514-4.279-4.282
		c2.89-0.767,3.515-1.39,4.279-4.281C298.312,109.296,298.934,109.919,301.827,110.686z"/>
	<path id="XMLID_29_" fill="#5FB0E5" d="M25.711,179.078c-3.639,0.966-4.422,1.748-5.388,5.388c-0.965-3.64-1.748-4.422-5.387-5.388
		c3.639-0.965,4.422-1.747,5.387-5.387C21.289,177.331,22.072,178.113,25.711,179.078z"/>
	<path id="XMLID_28_" fill="#5FB0E5" d="M536.267,215.114c-2.894,0.768-3.515,1.389-4.282,4.279
		c-0.767-2.891-1.391-3.512-4.281-4.279c2.891-0.768,3.515-1.389,4.281-4.281C532.752,213.726,533.373,214.347,536.267,215.114z"/>
	<path id="XMLID_19_" fill="#5FB0E5" d="M152.656,91.815c-3.005,0.797-3.651,1.443-4.449,4.449
		c-0.797-3.006-1.443-3.652-4.448-4.449c3.005-0.797,3.651-1.443,4.448-4.449C149.004,90.372,149.65,91.018,152.656,91.815z"/>
	<path fill="#EDF6FC" d="M60.533,234.929H30.334c-3.835,0-6.944-3.109-6.944-6.943l0,0c0-3.834,3.108-6.943,6.944-6.943h30.199
		c3.835,0,6.944,3.109,6.944,6.943l0,0C67.477,231.819,64.368,234.929,60.533,234.929z"/>
	<path fill="#EDF6FC" d="M546.757,186.346H532.18c-3.836,0-6.944-3.108-6.944-6.942l0,0c0-3.835,3.108-6.943,6.944-6.943h14.577
		c3.834,0,6.942,3.108,6.942,6.943l0,0C553.699,183.237,550.591,186.346,546.757,186.346z"/>
	<g id="XMLID_756_">
		<g id="XMLID_769_">
			<polygon id="XMLID_770_" fill="#FFFFFF" points="353.663,118.022 347.374,111.732 349.984,109.122 353.663,112.802 
				361.807,104.661 364.418,107.27 			"/>
		</g>
	</g>
</g>
</svg>
