<?xml version="1.0" encoding="utf-8"?>
<!-- Generator: Adobe Illustrator 16.0.0, SVG Export Plug-In . SVG Version: 6.00 Build 0)  -->
<!DOCTYPE svg PUBLIC "-//W3C//DTD SVG 1.1//EN" "http://www.w3.org/Graphics/SVG/1.1/DTD/svg11.dtd">
<svg version="1.1" id="Layer_1" xmlns="http://www.w3.org/2000/svg" xmlns:xlink="http://www.w3.org/1999/xlink" x="0px" y="0px"
	 width="570px" height="310px" viewBox="0 0 570 310" enable-background="new 0 0 570 310" xml:space="preserve">
<g>
	<circle id="XMLID_584_" fill="#5FB0E5" cx="83.334" cy="109.773" r="1.576"/>
	<circle id="XMLID_27_" fill="#5FB0E5" cx="147.082" cy="192.596" r="1.576"/>
	<circle id="XMLID_21_" fill="#5FB0E5" cx="341.679" cy="249.272" r="1.577"/>
	<circle id="XMLID_25_" fill="#5FB0E5" cx="526.824" cy="159.911" r="1.577"/>
	<circle id="XMLID_31_" fill="#5FB0E5" cx="460.668" cy="178.669" r="1.576"/>
	<circle id="XMLID_32_" fill="#5FB0E5" cx="324.865" cy="62.237" r="1.577"/>
	<circle id="XMLID_13_" fill="#5FB0E5" cx="388.673" cy="120.361" r="1.503"/>
	<circle id="XMLID_16_" fill="#5FB0E5" cx="215.792" cy="79.816" r="3.055"/>
	<circle id="XMLID_22_" fill="#5FB0E5" cx="32.084" cy="128.828" r="2.195"/>
	<circle id="XMLID_24_" fill="#5FB0E5" cx="449.548" cy="113.904" r="2.621"/>
	<path id="XMLID_17_" fill="#5FB0E5" d="M169.028,126.209c-2.726,0.723-3.312,1.309-4.035,4.034
		c-0.722-2.725-1.308-3.311-4.034-4.034c2.726-0.723,3.312-1.309,4.034-4.035C165.716,124.9,166.302,125.486,169.028,126.209z"/>
	<path id="XMLID_30_" fill="#5FB0E5" d="M417.686,77.688c-2.056,0.544-2.497,0.987-3.044,3.042
		c-0.544-2.055-0.985-2.498-3.042-3.042c2.057-0.545,2.498-0.988,3.042-3.043C415.188,76.7,415.63,77.143,417.686,77.688z"/>
	<path id="XMLID_20_" fill="#5FB0E5" d="M43.807,222.977c-2.055,0.546-2.498,0.988-3.043,3.042
		c-0.545-2.054-0.987-2.496-3.042-3.042c2.055-0.545,2.497-0.986,3.042-3.042C41.31,221.99,41.752,222.432,43.807,222.977z"/>
	<path id="XMLID_26_" fill="#5FB0E5" d="M499.124,107.901c-2.775,0.736-3.373,1.333-4.109,4.109
		c-0.736-2.776-1.333-3.373-4.108-4.109c2.775-0.736,3.372-1.333,4.108-4.109C495.751,106.567,496.349,107.165,499.124,107.901z"/>
	<path id="XMLID_23_" fill="#5FB0E5" d="M325.294,138.117c-2.548,0.675-3.097,1.224-3.773,3.771
		c-0.676-2.548-1.224-3.096-3.771-3.771c2.548-0.677,3.096-1.225,3.771-3.773C322.197,136.892,322.746,137.439,325.294,138.117z"/>
	<path id="XMLID_18_" fill="#5FB0E5" d="M277.568,101.787c-3.339,0.887-4.058,1.605-4.944,4.944
		c-0.884-3.339-1.604-4.058-4.944-4.944c3.34-0.886,4.06-1.604,4.944-4.944C273.51,100.183,274.229,100.901,277.568,101.787z"/>
	<path id="XMLID_29_" fill="#5FB0E5" d="M297.442,210.846c-4.202,1.114-5.106,2.019-6.222,6.22c-1.114-4.201-2.018-5.105-6.22-6.22
		c4.203-1.115,5.106-2.02,6.22-6.222C292.336,208.826,293.24,209.73,297.442,210.846z"/>
	<path id="XMLID_28_" fill="#5FB0E5" d="M548.292,222.377c-3.34,0.887-4.058,1.604-4.944,4.944c-0.885-3.34-1.605-4.058-4.944-4.944
		c3.339-0.887,4.06-1.604,4.944-4.944C544.234,220.772,544.952,221.49,548.292,222.377z"/>
	<path id="XMLID_19_" fill="#5FB0E5" d="M105.311,79.995c-3.47,0.92-4.217,1.667-5.138,5.137c-0.92-3.47-1.667-4.217-5.137-5.137
		c3.47-0.921,4.216-1.667,5.137-5.138C101.094,78.328,101.841,79.074,105.311,79.995z"/>
	<g id="XMLID_756_">
		<g id="XMLID_769_">
			<polygon id="XMLID_770_" fill="#FFFFFF" points="337.429,110.259 330.165,102.995 333.18,99.98 337.429,104.23 346.832,94.829 
				349.847,97.842 			"/>
		</g>
	</g>
</g>
</svg>
