<?xml version="1.0" encoding="utf-8"?>
<!-- Generator: Adobe Illustrator 16.0.0, SVG Export Plug-In . SVG Version: 6.00 Build 0)  -->
<!DOCTYPE svg PUBLIC "-//W3C//DTD SVG 1.1//EN" "http://www.w3.org/Graphics/SVG/1.1/DTD/svg11.dtd">
<svg version="1.1" id="Layer_1" xmlns="http://www.w3.org/2000/svg" xmlns:xlink="http://www.w3.org/1999/xlink" x="0px" y="0px"
	 width="500px" height="408px" viewBox="0 0 500 408" enable-background="new 0 0 500 408" xml:space="preserve">
<g>
	
		<image overflow="visible" opacity="0.8" width="336" height="426" xlink:href="D9A102734D1F963A.png"  transform="matrix(1 0 0 1 50.2148 -2.0254)">
	</image>
	<g>
		<path fill="#5EAFE4" d="M361.215,27.537c0,65.445-121.055,371-186.5,371s-118.5-152.055-118.5-217.5
			c0-65.446-9.445-130.5,56-130.5S361.215-37.909,361.215,27.537z"/>
	</g>
</g>
<g>
	
		<image overflow="visible" opacity="0.8" width="324" height="324" xlink:href="D9A102734D1F963D.png"  transform="matrix(1 0 0 1 161.2148 45.9746)">
	</image>
	<g>
		<path fill="#D1E8F6" d="M456.226,318.504c15.278-57.656-14.767-250.175-72.423-265.453
			c-57.657-15.278-198.499,64.085-213.776,121.742c-15.278,57.657,19.077,116.783,76.733,132.061
			C304.417,322.132,440.947,376.16,456.226,318.504z"/>
	</g>
</g>
</svg>
