<?xml version="1.0" encoding="utf-8"?>
<!-- Generator: Adobe Illustrator 16.0.0, SVG Export Plug-In . SVG Version: 6.00 Build 0)  -->
<!DOCTYPE svg PUBLIC "-//W3C//DTD SVG 1.1//EN" "http://www.w3.org/Graphics/SVG/1.1/DTD/svg11.dtd">
<svg version="1.1" id="Layer_1" xmlns="http://www.w3.org/2000/svg" xmlns:xlink="http://www.w3.org/1999/xlink" x="0px" y="0px"
	 width="500px" height="200px" viewBox="0 0 500 200" enable-background="new 0 0 500 200" xml:space="preserve">
<path id="XMLID_66_" fill="#5FB0E5" d="M108.146,112.602c-1.385,0.367-1.683,0.665-2.051,2.051
	c-0.367-1.386-0.666-1.684-2.051-2.051c1.385-0.368,1.684-0.666,2.051-2.051C106.463,111.936,106.761,112.233,108.146,112.602z"/>
<path fill="#D2E9F7" d="M79.92,58.451L79.92,58.451c0,4.987,4.042,9.03,9.029,9.03h55.845c3.714,0,6.725,3.01,6.725,6.724l0,0
	c0,3.714-3.011,6.725-6.725,6.725h-93.99c-6.51,0-11.788,5.277-11.788,11.788l0,0c0,6.511,5.277,11.788,11.788,11.788h130.453
	c4.174,0,7.557,3.383,7.557,7.557l0,0c0,4.155-3.355,7.531-7.511,7.557l-98.931,0.604c-6.737,0.041-12.177,5.514-12.177,12.251l0,0
	c0,6.767,5.485,12.252,12.252,12.252h81.208v36.305h213.222V159.88l67.956,0.051c6.37,0.005,11.535-5.157,11.535-11.527l0,0
	c0-6.365-5.16-11.526-11.526-11.526h-42.131c-5.209,0-9.433-4.223-9.433-9.433l0,0c0-5.209,4.224-9.432,9.433-9.432h5.145
	c6.575,0,11.905-5.33,11.905-11.905l0,0c0-6.575-5.33-11.905-11.905-11.905h-79.159c-4.646,0-8.412-3.767-8.412-8.412l0,0
	c0-4.646,3.767-8.411,8.412-8.411h40.624c7.72,0,13.979-6.258,13.979-13.979l0,0c0-7.72-6.259-13.979-13.979-13.979H88.95
	C83.963,49.422,79.92,53.465,79.92,58.451z"/>
<circle id="XMLID_91_" fill="#5FB0E5" cx="209.002" cy="61.998" r="1.151"/>
<circle id="XMLID_196_" fill="#5FB0E5" cx="285.29" cy="83.132" r="1.488"/>
<circle id="XMLID_240_" fill="#5FB0E5" cx="229.545" cy="71.299" r="1.864"/>
<circle id="XMLID_85_" fill="#5FB0E5" cx="237.803" cy="88.39" r="0.908"/>
<circle id="XMLID_88_" fill="#5FB0E5" cx="421.929" cy="69.435" r="1.571"/>
<circle id="XMLID_161_" fill="#5FB0E5" cx="197.576" cy="19.429" r="1.571"/>
<circle id="XMLID_86_" fill="#5FB0E5" cx="148.648" cy="63.148" r="1.062"/>
<circle id="XMLID_195_" fill="#5FB0E5" cx="83.76" cy="111.731" r="1.062"/>
<circle id="XMLID_34_" fill="#5FB0E5" cx="129.561" cy="52.781" r="1.399"/>
<circle id="XMLID_70_" fill="#5FB0E5" cx="223.377" cy="44.817" r="1.399"/>
<circle id="XMLID_83_" fill="#5FB0E5" cx="412.264" cy="127.735" r="1.13"/>
<circle id="XMLID_71_" fill="#5FB0E5" cx="394.973" cy="97.19" r="1.56"/>
<circle id="XMLID_33_" fill="#5FB0E5" cx="120.972" cy="74.157" r="2.034"/>
<path id="XMLID_68_" fill="#5FB0E5" d="M307.814,125.665c-1.837,0.487-2.232,0.882-2.72,2.719c-0.487-1.837-0.882-2.231-2.719-2.719
	c1.837-0.487,2.231-0.883,2.719-2.72C305.582,124.782,305.978,125.178,307.814,125.665z"/>
<path id="XMLID_65_" fill="#5FB0E5" d="M368.076,37c-2.072,0.55-2.518,0.995-3.068,3.067c-0.549-2.072-0.995-2.518-3.067-3.067
	c2.072-0.55,2.519-0.995,3.067-3.067C365.559,36.005,366.004,36.45,368.076,37z"/>
<path id="XMLID_35_" fill="#5FB0E5" d="M260.453,54.627c-2.854,0.757-3.468,1.371-4.225,4.225c-0.757-2.854-1.371-3.468-4.225-4.225
	c2.854-0.757,3.468-1.371,4.225-4.225C256.985,53.256,257.6,53.87,260.453,54.627z"/>
<path id="XMLID_46_" fill="#5FB0E5" d="M290.68,31.717c-1.497,0.396-1.818,0.719-2.216,2.216c-0.397-1.497-0.719-1.819-2.216-2.216
	c1.497-0.397,1.818-0.72,2.216-2.217C288.861,30.997,289.183,31.319,290.68,31.717z"/>
<path id="XMLID_43_" fill="#5FB0E5" d="M356.499,68.548c-1.497,0.397-1.819,0.72-2.217,2.216c-0.396-1.496-0.719-1.818-2.216-2.216
	c1.497-0.397,1.819-0.719,2.216-2.216C354.68,67.829,355.002,68.15,356.499,68.548z"/>
<path id="XMLID_238_" fill="#5FB0E5" d="M382.459,66.332c-1.497,0.397-1.818,0.719-2.216,2.216
	c-0.397-1.497-0.719-1.818-2.216-2.216c1.497-0.397,1.818-0.719,2.216-2.216C380.641,65.613,380.962,65.935,382.459,66.332z"/>
<path id="XMLID_239_" fill="#5FB0E5" d="M81.826,78.589c-1.497,0.397-1.819,0.719-2.216,2.216c-0.397-1.497-0.719-1.818-2.216-2.216
	c1.497-0.397,1.819-0.719,2.216-2.216C80.007,77.87,80.329,78.191,81.826,78.589z"/>
<path id="XMLID_47_" fill="#5FB0E5" d="M142.693,29.5c-1.843,0.489-2.239,0.886-2.729,2.729c-0.489-1.843-0.885-2.239-2.729-2.729
	c1.843-0.489,2.24-0.885,2.729-2.729C140.454,28.615,140.85,29.011,142.693,29.5z"/>
<path id="XMLID_45_" fill="#5FB0E5" d="M437.288,115.084c-1.59,0.421-1.932,0.764-2.354,2.354c-0.422-1.59-0.764-1.933-2.354-2.354
	c1.59-0.423,1.932-0.765,2.354-2.354C435.356,114.319,435.698,114.661,437.288,115.084z"/>
<g>
	<g id="XMLID_232_">
		<rect id="XMLID_190_" x="164.77" y="52.636" fill="#FFFFFF" width="24.478" height="22.37"/>
		
			<rect id="XMLID_175_" x="164.77" y="52.636" fill="none" stroke="#0686D8" stroke-width="1.5" stroke-miterlimit="10" width="24.478" height="22.37"/>
		<polygon id="XMLID_173_" fill="#FFFFFF" points="192.979,124.549 189.852,76.373 164.167,76.373 161.038,124.575 		"/>
		<polygon id="XMLID_172_" fill="#5FB0E5" points="189.851,76.373 165.4,76.373 164.12,77.112 163.087,93.016 189.926,77.521 		"/>
		<polygon id="XMLID_207_" fill="#5FB0E5" points="161.038,124.575 191.827,106.799 190.869,92.045 162.071,108.671 		"/>
		<polygon id="XMLID_236_" fill="none" stroke="#0686D8" stroke-width="1.5" stroke-miterlimit="10" points="189.851,76.373 
			165.4,76.373 164.12,77.112 163.087,93.016 189.926,77.521 		"/>
		
			<line id="XMLID_191_" fill="none" stroke="#0686D8" stroke-width="1.5" stroke-miterlimit="10" x1="190.869" y1="92.045" x2="162.071" y2="108.671"/>
		<polyline id="XMLID_237_" fill="none" stroke="#0686D8" stroke-width="1.5" stroke-miterlimit="10" points="161.645,118.008 
			164.167,76.373 189.852,76.373 191.263,98.114 		"/>
		<path id="XMLID_170_" fill="#9ECFEF" d="M192.509,79.025h-31.001c-0.259,0-0.47-0.211-0.47-0.47v-7.099
			c0-0.259,0.21-0.47,0.47-0.47h31.001c0.259,0,0.47,0.211,0.47,0.47v7.099C192.979,78.814,192.769,79.025,192.509,79.025z"/>
		<path id="XMLID_31_" fill="none" stroke="#0686D8" stroke-width="1.5" stroke-miterlimit="10" d="M192.509,79.025h-31.001
			c-0.259,0-0.47-0.211-0.47-0.47v-7.099c0-0.259,0.21-0.47,0.47-0.47h31.001c0.259,0,0.47,0.211,0.47,0.47v7.099
			C192.979,78.814,192.769,79.025,192.509,79.025z"/>
		<path id="XMLID_174_" fill="#9ECFEF" d="M176.815,37.079l-18.297,15.082c-0.177,0.173-0.055,0.475,0.193,0.475h36.595
			c0.248,0,0.37-0.302,0.193-0.475l-18.297-15.082C177.094,36.974,176.923,36.974,176.815,37.079z"/>
		<path id="XMLID_208_" fill="none" stroke="#0686D8" stroke-width="1.5" stroke-miterlimit="10" d="M176.815,37.079l-18.297,15.082
			c-0.177,0.173-0.055,0.475,0.193,0.475h36.595c0.248,0,0.37-0.302,0.193-0.475l-18.297-15.082
			C177.094,36.974,176.923,36.974,176.815,37.079z"/>
		
			<circle id="XMLID_209_" fill="none" stroke="#0686D8" stroke-width="1.5" stroke-miterlimit="10" cx="177.009" cy="61.998" r="3.146"/>
		
			<line id="XMLID_213_" fill="none" stroke="#0686D8" stroke-width="1.5" stroke-miterlimit="10" x1="139.965" y1="76.312" x2="157.331" y2="66.285"/>
		
			<line id="XMLID_223_" fill="none" stroke="#0686D8" stroke-width="1.5" stroke-miterlimit="10" x1="157.331" y1="57.794" x2="139.965" y2="47.768"/>
		
			<line id="XMLID_224_" fill="none" stroke="#0686D8" stroke-width="1.5" stroke-miterlimit="10" x1="214.942" y1="76.312" x2="197.576" y2="66.285"/>
		
			<line id="XMLID_222_" fill="none" stroke="#0686D8" stroke-width="1.5" stroke-miterlimit="10" x1="197.576" y1="57.794" x2="214.942" y2="47.768"/>
	</g>
	<polyline id="XMLID_177_" fill="none" stroke="#0686D8" stroke-width="3" stroke-miterlimit="10" points="335.377,57.471 
		343.8,57.471 343.8,66.332 	"/>
	<g id="XMLID_176_">
		<path id="XMLID_189_" fill="#D2E9F7" d="M438.708,180.501h-73.002c-0.437,0-0.791-0.354-0.791-0.792v-11.982
			c0-0.438,0.354-0.792,0.791-0.792h73.002c0.438,0,0.792,0.354,0.792,0.792v11.982C439.5,180.146,439.146,180.501,438.708,180.501z
			"/>
		<path id="XMLID_144_" fill="none" stroke="#0686D8" stroke-width="1.5" stroke-miterlimit="10" d="M389.047,166.935h49.614
			c0.464,0,0.839,0.376,0.839,0.839v11.889c0,0.463-0.375,0.839-0.839,0.839h-72.908c-0.463,0-0.838-0.376-0.838-0.839"/>
		
			<line id="XMLID_572_" fill="none" stroke="#0686D8" stroke-width="1.5" stroke-miterlimit="10" x1="395.901" y1="166.935" x2="395.901" y2="172.323"/>
		
			<line id="XMLID_184_" fill="none" stroke="#0686D8" stroke-width="1.5" stroke-miterlimit="10" x1="403.73" y1="166.935" x2="403.73" y2="172.323"/>
		
			<line id="XMLID_183_" fill="none" stroke="#0686D8" stroke-width="1.5" stroke-miterlimit="10" x1="411.561" y1="166.935" x2="411.561" y2="172.323"/>
		
			<line id="XMLID_181_" fill="none" stroke="#0686D8" stroke-width="1.5" stroke-miterlimit="10" x1="419.39" y1="166.935" x2="419.39" y2="172.323"/>
		
			<line id="XMLID_179_" fill="none" stroke="#0686D8" stroke-width="1.5" stroke-miterlimit="10" x1="427.219" y1="166.935" x2="427.219" y2="172.323"/>
		
			<line id="XMLID_534_" fill="none" stroke="#0686D8" stroke-width="1.5" stroke-miterlimit="10" x1="434.935" y1="166.935" x2="434.935" y2="172.323"/>
	</g>
	<g id="XMLID_944_">
		<path id="XMLID_927_" fill="#FFFFFF" d="M90.886,180.501H59.201c-0.613,0-1.109-0.497-1.109-1.11v-39.176
			c0-0.613,0.497-1.109,1.109-1.109h31.685c0.613,0,1.109,0.496,1.109,1.109v39.176C91.995,180.004,91.499,180.501,90.886,180.501z"
			/>
		<path id="XMLID_166_" fill="none" stroke="#0686D8" stroke-width="1.5" stroke-miterlimit="10" d="M58.092,180.501V140.28
			c0-0.649,0.526-1.175,1.175-1.175H90.82c0.649,0,1.175,0.525,1.175,1.175v4.104"/>
		<rect id="XMLID_928_" x="64.513" y="145.548" fill="#5FB0E5" width="21.061" height="7.121"/>
		<polygon fill="#BFDFF5" points="78.681,145.547 68.61,145.547 64.513,149.645 64.513,152.669 71.56,152.669 		"/>
		<polygon fill="#BFDFF5" points="73.409,152.669 78.223,152.669 85.344,145.547 80.531,145.547 		"/>
		<g id="XMLID_933_">
			
				<line id="XMLID_930_" fill="none" stroke="#0686D8" stroke-width="1.5" stroke-miterlimit="10" x1="64.513" y1="160.038" x2="67.682" y2="160.038"/>
			
				<line id="XMLID_929_" fill="none" stroke="#0686D8" stroke-width="1.5" stroke-miterlimit="10" x1="70.477" y1="160.038" x2="73.646" y2="160.038"/>
			
				<line id="XMLID_931_" fill="none" stroke="#0686D8" stroke-width="1.5" stroke-miterlimit="10" x1="76.441" y1="160.038" x2="79.61" y2="160.038"/>
			
				<line id="XMLID_932_" fill="none" stroke="#0686D8" stroke-width="1.5" stroke-miterlimit="10" x1="82.405" y1="160.038" x2="85.574" y2="160.038"/>
		</g>
		<g id="XMLID_934_">
			
				<line id="XMLID_938_" fill="none" stroke="#0686D8" stroke-width="1.5" stroke-miterlimit="10" x1="64.513" y1="165.671" x2="67.682" y2="165.671"/>
			
				<line id="XMLID_937_" fill="none" stroke="#0686D8" stroke-width="1.5" stroke-miterlimit="10" x1="70.477" y1="165.671" x2="73.646" y2="165.671"/>
			
				<line id="XMLID_936_" fill="none" stroke="#0686D8" stroke-width="1.5" stroke-miterlimit="10" x1="76.441" y1="165.671" x2="79.61" y2="165.671"/>
			
				<line id="XMLID_935_" fill="none" stroke="#0686D8" stroke-width="1.5" stroke-miterlimit="10" x1="82.405" y1="165.671" x2="85.574" y2="165.671"/>
		</g>
		<g id="XMLID_939_">
			
				<line id="XMLID_943_" fill="none" stroke="#0686D8" stroke-width="1.5" stroke-miterlimit="10" x1="64.513" y1="171.304" x2="67.682" y2="171.304"/>
			
				<line id="XMLID_942_" fill="none" stroke="#0686D8" stroke-width="1.5" stroke-miterlimit="10" x1="70.477" y1="171.304" x2="73.646" y2="171.304"/>
			
				<line id="XMLID_941_" fill="none" stroke="#0686D8" stroke-width="1.5" stroke-miterlimit="10" x1="76.441" y1="171.304" x2="79.61" y2="171.304"/>
			
				<line id="XMLID_940_" fill="none" stroke="#0686D8" stroke-width="1.5" stroke-miterlimit="10" x1="82.405" y1="171.304" x2="85.574" y2="171.304"/>
		</g>
	</g>
	<g>
		<path id="XMLID_852_" fill="#FFFFFF" d="M364.51,118.505l12.978,12.978v45.306c0,2.05-1.662,3.713-3.712,3.713H335.03
			c-2.05,0-3.713-1.663-3.713-3.713v-54.57c0-2.051,1.663-3.713,3.713-3.713H364.51z"/>
		<polygon id="XMLID_878_" fill="#5FB0E5" points="364.51,131.482 364.51,118.505 377.487,131.482 		"/>
		<path id="XMLID_853_" fill="none" stroke="#0686D8" stroke-width="1.5" stroke-miterlimit="10" d="M377.487,131.482h-11.681
			c-0.717,0-1.297-0.58-1.297-1.296v-11.682"/>
		<g id="XMLID_914_">
			<path id="XMLID_916_" fill="none" stroke="#0686D8" stroke-width="1.5" stroke-miterlimit="10" d="M359.498,130.409h-7.502
				c-1.585,0-2.869,1.284-2.869,2.868l0,0c0,1.585,1.284,2.869,2.869,2.869h3.089c1.584,0,2.868,1.284,2.868,2.868l0,0
				c0,1.584-1.284,2.869-2.868,2.869h-7.724"/>
			
				<line id="XMLID_915_" fill="none" stroke="#0686D8" stroke-width="1.5" stroke-miterlimit="10" x1="353.43" y1="125.665" x2="353.43" y2="146.628"/>
		</g>
		
			<line id="XMLID_923_" fill="none" stroke="#0686D8" stroke-width="1.5" stroke-miterlimit="10" x1="336.576" y1="150.506" x2="370.999" y2="150.506"/>
		
			<line id="XMLID_856_" fill="none" stroke="#0686D8" stroke-width="1.5" stroke-miterlimit="10" x1="336.576" y1="157.868" x2="370.999" y2="157.868"/>
		
			<line id="XMLID_924_" fill="none" stroke="#0686D8" stroke-width="1.5" stroke-miterlimit="10" x1="336.576" y1="165.229" x2="370.999" y2="165.229"/>
		
			<line id="XMLID_925_" fill="none" stroke="#0686D8" stroke-width="1.5" stroke-miterlimit="10" x1="336.576" y1="172.592" x2="370.999" y2="172.592"/>
		<path id="XMLID_171_" fill="none" stroke="#0686D8" stroke-width="1.5" stroke-miterlimit="10" d="M339.266,118.505h25.244
			l12.978,12.978v45.306c0,2.05-1.662,3.713-3.712,3.713H335.03c-2.05,0-3.713-1.663-3.713-3.713"/>
	</g>
	<g id="XMLID_162_">
		<path id="XMLID_167_" fill="#FFFFFF" d="M181.991,180.501h-74.289c-1.057,0-1.913-0.856-1.913-1.913v-52.393
			c0-1.056,0.856-1.912,1.913-1.912h74.289c1.057,0,1.913,0.856,1.913,1.912v52.393
			C183.904,179.645,183.048,180.501,181.991,180.501z"/>
		<path id="XMLID_193_" fill="none" stroke="#0686D8" stroke-width="1.5" stroke-miterlimit="10" d="M105.789,149.108v-21.195
			c0-2.005,1.625-3.63,3.631-3.63h6.233"/>
		<path id="XMLID_187_" fill="none" stroke="#0686D8" stroke-width="1.5" stroke-miterlimit="10" d="M162.343,124.283h17.931
			c2.005,0,3.63,1.625,3.63,3.63v48.957c0,2.005-1.625,3.631-3.63,3.631H109.42c-2.005,0-3.631-1.626-3.631-3.631"/>
		
			<line id="XMLID_165_" fill="none" stroke="#0686D8" stroke-width="1.5" stroke-miterlimit="10" x1="111.858" y1="145.174" x2="111.858" y2="159.609"/>
		<rect id="XMLID_164_" x="115.903" y="129.091" fill="#D2E9F7" width="57.128" height="46.602"/>
		
			<circle id="XMLID_163_" fill="none" stroke="#0686D8" stroke-width="1.5" stroke-miterlimit="10" cx="176.699" cy="152.392" r="2.03"/>
		<rect x="117.298" y="116.599" fill="#5FB0E5" width="8.959" height="59.094"/>
		<rect x="117.298" y="116.599" fill="#7FC0EA" width="4.48" height="59.094"/>
		<polyline fill="none" stroke="#0686D8" stroke-width="1.5" stroke-miterlimit="10" points="126.258,175.692 126.258,116.599 
			117.298,116.599 117.298,175.692 		"/>
		<rect x="128.945" y="107.64" fill="#D2E9F7" width="8.959" height="68.053"/>
		<rect x="128.945" y="107.64" fill="#E4F2FA" width="4.479" height="68.053"/>
		<polyline fill="none" stroke="#0686D8" stroke-width="1.5" stroke-miterlimit="10" points="137.905,175.692 137.905,107.64 
			128.945,107.64 128.945,175.692 		"/>
		<rect x="141.046" y="100.563" fill="#9ECFEF" width="8.959" height="75.129"/>
		<rect x="141.046" y="100.563" fill="#C5E2F5" width="4.48" height="75.129"/>
		<polyline fill="none" stroke="#0686D8" stroke-width="1.5" stroke-miterlimit="10" points="150.006,175.692 150.006,100.563 
			141.046,100.563 141.046,175.692 		"/>
	</g>
	<g>
		<path id="XMLID_122_" fill="#5FB0E5" d="M283.607,176.296H180.245c-0.55,0-1-0.45-1-1v-73.732c0-0.551,0.45-1,1-1h103.363
			c0.55,0,1,0.449,1,1v73.732C284.607,175.846,284.157,176.296,283.607,176.296z"/>
		
			<line id="XMLID_75_" fill="none" stroke="#0686D8" stroke-width="1.5" stroke-miterlimit="10" x1="188.032" y1="100.563" x2="190.015" y2="100.563"/>
		<path id="XMLID_169_" fill="none" stroke="#0686D8" stroke-width="1.5" stroke-miterlimit="10" d="M179.245,117.561v-14.38
			c0-1.439,1.178-2.617,2.618-2.617h5.241"/>
		
			<line id="XMLID_185_" fill="none" stroke="#0686D8" stroke-width="1.5" stroke-miterlimit="10" x1="284.607" y1="131.354" x2="284.607" y2="146.148"/>
		<path id="XMLID_168_" fill="none" stroke="#0686D8" stroke-width="1.5" stroke-miterlimit="10" d="M190.907,100.563h91.082
			c1.44,0,2.618,1.178,2.618,2.617v19.72"/>
		<rect id="XMLID_30_" x="184.361" y="106.521" fill="#FFFFFF" width="94.558" height="61.457"/>
		<path id="XMLID_27_" fill="#FFFFFF" d="M282.767,180.501H179.925c-2.47,0-4.575-1.788-4.975-4.225l-0.732-4.469h47.666
			l1.824,2.618h13.171l1.971-2.618h50.213l-0.637,3.887C287.971,178.466,285.575,180.501,282.767,180.501z"/>
		
			<line id="XMLID_192_" fill="none" stroke="#0686D8" stroke-width="1.5" stroke-miterlimit="10" x1="282.767" y1="180.501" x2="179.925" y2="180.501"/>
		<polyline id="XMLID_188_" fill="none" stroke="#0686D8" stroke-width="1.5" stroke-miterlimit="10" points="186.923,171.808 
			221.883,171.808 223.707,174.426 236.878,174.426 238.849,171.808 252.004,171.808 		"/>
	</g>
	<polygon opacity="0.3" fill="#03436C" points="284.607,131.354 284.607,128.492 273.668,141.191 250.421,113.645 222.518,154.921 
		208.469,140.359 194.681,154.768 183.899,154.375 183.899,157.375 195.992,157.815 208.554,144.69 222.997,159.661 
		250.751,118.604 273.715,145.816 285.357,132.301 285.357,131.354 	"/>
	<polyline id="XMLID_130_" fill="none" stroke="#0686D8" stroke-width="3" stroke-miterlimit="10" points="183.899,155.875 
		195.336,155.875 208.511,141.628 222.757,155.875 250.586,113.693 273.691,140.231 312.049,94.305 	"/>
	<path opacity="0.3" fill="#03436C" d="M340.981,180.501v-50.58h-3.654l-0.104-3.932l1.553-7.484h-3.745
		c-2.05,0-3.713,1.662-3.713,3.713v54.57l0,0h-0.75c0,1.548,0.793,2.912,1.993,3.713h6.921l0,0H340.981z"/>
	<g>
		<path fill="#FFFFFF" d="M324.368,109.488c1.347-0.39,2.122-1.789,1.733-3.13l0,0c-0.386-1.35-1.791-2.119-3.129-1.735l-8.81,2.539
			c-1.345,0.382-2.122,1.789-1.735,3.13l0,0c0.393,1.348,1.788,2.119,3.138,1.732L324.368,109.488z"/>
		<path fill="#FFFFFF" d="M327.031,114.931c1.347-0.388,2.123-1.79,1.732-3.135l0,0c-0.388-1.346-1.788-2.117-3.131-1.731
			l-8.809,2.537c-1.34,0.387-2.121,1.791-1.733,3.137l0,0c0.39,1.342,1.794,2.115,3.136,1.727L327.031,114.931z"/>
		<path fill="#FFFFFF" d="M328.442,120.265c1.339-0.387,2.119-1.79,1.73-3.132l0,0c-0.391-1.346-1.79-2.121-3.13-1.735l-8.807,2.543
			c-1.346,0.384-2.123,1.788-1.738,3.132l0,0c0.39,1.344,1.793,2.114,3.135,1.729L328.442,120.265z"/>
		<path fill="none" stroke="#0686D8" stroke-width="1.5" stroke-miterlimit="10" d="M315.632,106.738l-1.469,0.424
			c-1.345,0.382-2.122,1.789-1.735,3.13l0,0c0.393,1.348,1.788,2.119,3.138,1.732l1.666-0.479"/>
		<path fill="none" stroke="#0686D8" stroke-width="1.5" stroke-miterlimit="10" d="M316.824,112.602
			c-1.34,0.387-2.121,1.791-1.733,3.137l0,0c0.39,1.342,1.794,2.115,3.136,1.727"/>
		<path fill="none" stroke="#0686D8" stroke-width="1.5" stroke-miterlimit="10" d="M318.236,117.94
			c-1.346,0.384-2.123,1.788-1.738,3.132l0,0c0.39,1.344,1.793,2.114,3.135,1.729"/>
		<g id="XMLID_125_">
			
				<line id="XMLID_767_" fill="none" stroke="#0686D8" stroke-width="1.5" stroke-miterlimit="10" x1="322.849" y1="94.377" x2="322.849" y2="101.995"/>
			<path id="XMLID_764_" fill="#5FB0E5" d="M322.849,58.541c-10.156,0-18.39,8.233-18.39,18.39s8.233,18.389,18.39,18.389
				c10.155,0,18.389-8.232,18.389-18.39C341.237,66.774,333.004,58.541,322.849,58.541z M322.849,90.901
				c-7.716,0-13.971-6.255-13.971-13.971s6.255-13.971,13.971-13.971s13.971,6.255,13.971,13.971S330.564,90.901,322.849,90.901z"/>
			<path id="XMLID_128_" fill="none" stroke="#0686D8" stroke-width="1.5" stroke-miterlimit="10" d="M334.546,62.74
				c-3.179-2.623-7.254-4.199-11.697-4.199c-10.156,0-18.39,8.233-18.39,18.39s8.233,18.389,18.39,18.389
				c10.155,0,18.389-8.232,18.389-18.39c0-3.402-0.924-6.59-2.535-9.323"/>
			<path id="XMLID_761_" fill="#5FB0E5" d="M319.216,99.751v22.228c0,1.174,0.951,2.124,2.125,2.125l3.016-0.001
				c1.173,0,2.124-0.951,2.124-2.124V99.75L319.216,99.751z"/>
			<path id="XMLID_127_" fill="none" stroke="#0686D8" stroke-width="1.5" stroke-miterlimit="10" d="M319.216,99.751v22.228
				c0,1.174,0.951,2.124,2.125,2.125l3.016-0.001c1.173,0,2.124-0.951,2.124-2.124V99.75L319.216,99.751z"/>
			
				<line id="XMLID_758_" fill="none" stroke="#0686D8" stroke-width="1.5" stroke-miterlimit="10" x1="319.039" y1="104.979" x2="326.657" y2="104.979"/>
			
				<line id="XMLID_126_" fill="none" stroke="#0686D8" stroke-width="1.5" stroke-miterlimit="10" x1="319.039" y1="108.789" x2="326.657" y2="108.789"/>
		</g>
		<polygon fill="#FFFFFF" points="334.631,131.94 334.471,125.922 337.264,112.456 330.334,103.136 324.599,104.524 321.151,124.08 
			321.608,132.012 		"/>
		<path fill="none" stroke="#0686D8" stroke-width="1.5" stroke-miterlimit="10" d="M321.151,118.08l0.457,13.932l13.022-0.071
			l-0.16-6.019l2.625-12.657c0.107-0.515-0.011-1.05-0.324-1.471l-6.438-8.658l-5.377,1.302"/>
		<path fill="#FFFFFF" d="M329.271,121.191c0.626,1.81-0.218,3.864-1.879,4.591l0,0c-1.667,0.731-3.523-0.139-4.147-1.947
			l-5.804-16.703c-0.632-1.811,0.21-3.863,1.873-4.594l0,0c1.665-0.731,3.519,0.145,4.151,1.95L329.271,121.191z"/>
		<path fill="#FFFFFF" d="M331.591,125.11c-0.014,3.569-0.673,6.446-3.7,6.434h-3.538c-3.033-0.01-3.742-2.908-3.726-6.478
			l0.012-2.938c0.014-3.569,2.48-6.444,5.513-6.432l0,0c3.027,0.011,5.467,2.907,5.452,6.475L331.591,125.11z"/>
		<path fill="none" stroke="#0686D8" stroke-width="1.5" stroke-miterlimit="10" d="M323.245,123.835l-5.804-16.703
			c-0.632-1.811,0.21-3.863,1.873-4.594l0,0c1.665-0.731,3.519,0.145,4.151,1.95l3.956,11.387"/>
		<polyline fill="none" stroke="#0686D8" stroke-width="1.5" stroke-miterlimit="10" points="321.151,118.08 321.608,132.012 
			334.631,131.94 		"/>
		<rect x="319.146" y="130.671" fill="#9ECFEF" width="19.085" height="49.83"/>
		<polyline fill="none" stroke="#0686D8" stroke-width="1.5" stroke-miterlimit="10" points="319.146,148.736 319.146,130.671 
			338.231,130.671 338.231,180.501 		"/>
	</g>
	
		<line id="XMLID_131_" fill="none" stroke="#0686D8" stroke-width="3" stroke-miterlimit="10" x1="317.231" y1="88.39" x2="342.527" y2="58.469"/>
	<g opacity="0.3">
		<path fill="#03436C" d="M319.92,156.855c0.244,0.141,0.511,0.208,0.773,0.208c0.538,0,1.062-0.278,1.348-0.776l1.327-2.297
			c0.208-0.359,0.264-0.778,0.156-1.18c-0.107-0.4-0.364-0.736-0.724-0.943l-3.654-2.11v6.652L319.92,156.855L319.92,156.855z"/>
		<path fill="#03436C" d="M329.705,180.501c0-8.914-4.127-16.872-10.559-22.098v22.098h4.807h1.5h2.752H329.705z"/>
	</g>
	<g>
		<path id="XMLID_840_" fill="#5FB0E5" d="M326.955,180.501c0-15.316-12.417-27.732-27.732-27.732
			c-15.316,0-27.732,12.416-27.732,27.732H326.955z"/>
		<path id="XMLID_26_" fill="none" stroke="#0686D8" stroke-width="1.5" stroke-miterlimit="10" d="M326.955,180.501
			c0-15.316-12.417-27.732-27.732-27.732c-9.278,0-17.493,4.557-22.527,11.555"/>
		<path id="XMLID_835_" fill="#D2E9F7" d="M322.702,180.501c0-12.968-10.512-23.48-23.479-23.48s-23.48,10.513-23.48,23.48H322.702z
			"/>
		<path id="XMLID_834_" fill="#FFFFFF" d="M312.003,180.501c0-7.059-5.722-12.781-12.78-12.781s-12.781,5.723-12.781,12.781H312.003
			z"/>
		<path id="XMLID_833_" fill="#5FB0E5" d="M302.137,180.501c0-1.609-1.305-2.914-2.914-2.914s-2.914,1.305-2.914,2.914H302.137z"/>
		<path id="XMLID_828_" fill="none" stroke="#0686D8" stroke-width="1.5" stroke-miterlimit="10" d="M322.702,180.501
			c0-12.968-10.512-23.48-23.479-23.48s-23.48,10.513-23.48,23.48"/>
		
			<line id="XMLID_827_" fill="none" stroke="#0686D8" stroke-width="1.5" stroke-miterlimit="10" x1="299.223" y1="156.658" x2="299.166" y2="161.15"/>
		
			<line id="XMLID_826_" fill="none" stroke="#0686D8" stroke-width="1.5" stroke-miterlimit="10" x1="310.012" y1="159.913" x2="307.8" y2="163.635"/>
		
			<line id="XMLID_825_" fill="none" stroke="#0686D8" stroke-width="1.5" stroke-miterlimit="10" x1="319.56" y1="168.767" x2="315.449" y2="171.071"/>
		
			<line id="XMLID_824_" fill="none" stroke="#0686D8" stroke-width="1.5" stroke-miterlimit="10" x1="278.904" y1="168.731" x2="282.952" y2="171.145"/>
		
			<line id="XMLID_816_" fill="none" stroke="#0686D8" stroke-width="1.5" stroke-miterlimit="10" x1="288.464" y1="159.895" x2="290.576" y2="163.674"/>
		<g id="XMLID_691_">
			<g id="XMLID_194_">
				<polygon fill="#5FB0E5" points="299.475,178.516 309.977,168.562 310.391,168.972 300.54,179.571 				"/>
			</g>
		</g>
		<g id="XMLID_453_">
			
				<line id="XMLID_465_" fill="none" stroke="#0686D8" stroke-width="1.5" stroke-miterlimit="10" x1="299.223" y1="147.622" x2="299.223" y2="152.769"/>
			<path id="XMLID_456_" fill="#5FB0E5" d="M303.976,149.798h-9.626c-0.443,0-0.803-0.359-0.803-0.803v-3.94
				c0-0.444,0.359-0.804,0.803-0.804h9.626c0.444,0,0.804,0.359,0.804,0.803v3.941C304.779,149.438,304.42,149.798,303.976,149.798z
				"/>
			<path id="XMLID_454_" fill="none" stroke="#0686D8" stroke-width="1.5" stroke-miterlimit="10" d="M303.976,149.798h-9.626
				c-0.443,0-0.803-0.359-0.803-0.803v-3.94c0-0.444,0.359-0.804,0.803-0.804h9.626c0.444,0,0.804,0.359,0.804,0.803v3.941
				C304.779,149.438,304.42,149.798,303.976,149.798z"/>
		</g>
		<g id="XMLID_363_">
			
				<line id="XMLID_452_" fill="none" stroke="#0686D8" stroke-width="1.5" stroke-miterlimit="10" x1="316.13" y1="153.025" x2="314.153" y2="156.449"/>
			<path id="XMLID_451_" fill="#5FB0E5" d="M318.294,156.206l-6.08-3.512c-0.384-0.222-0.516-0.713-0.294-1.097l1.328-2.299
				c0.222-0.384,0.713-0.516,1.098-0.294l6.08,3.512c0.384,0.222,0.516,0.713,0.293,1.098l-1.327,2.298
				C319.17,156.297,318.679,156.428,318.294,156.206z"/>
			<path id="XMLID_143_" fill="none" stroke="#0686D8" stroke-width="1.5" stroke-miterlimit="10" d="M318.294,156.206l-6.08-3.512
				c-0.384-0.222-0.516-0.713-0.294-1.097l1.328-2.299c0.222-0.384,0.713-0.516,1.098-0.294l6.08,3.512
				c0.384,0.222,0.516,0.713,0.293,1.098l-1.327,2.298C319.17,156.297,318.679,156.428,318.294,156.206z"/>
		</g>
		<g id="XMLID_133_">
			
				<line id="XMLID_139_" fill="none" stroke="#0686D8" stroke-width="1.5" stroke-miterlimit="10" x1="281.892" y1="153.025" x2="283.868" y2="156.449"/>
			<path id="XMLID_135_" fill="#5FB0E5" d="M279.728,156.206l6.08-3.512c0.384-0.222,0.516-0.713,0.294-1.097l-1.328-2.299
				c-0.222-0.384-0.713-0.516-1.097-0.294l-6.081,3.512c-0.384,0.222-0.516,0.713-0.293,1.098l1.327,2.298
				C278.852,156.297,279.343,156.428,279.728,156.206z"/>
			<path id="XMLID_134_" fill="none" stroke="#0686D8" stroke-width="1.5" stroke-miterlimit="10" d="M279.728,156.206l6.08-3.512
				c0.384-0.222,0.516-0.713,0.294-1.097l-1.328-2.299c-0.222-0.384-0.713-0.516-1.097-0.294l-6.081,3.512
				c-0.384,0.222-0.516,0.713-0.293,1.098l1.327,2.298C278.852,156.297,279.343,156.428,279.728,156.206z"/>
		</g>
	</g>
	<path opacity="0.3" fill="#03436C" d="M173.144,179.501v-1.96h3.162l3.132-5.001h2.384v-1.5h-2.049v-2.721h2.049v-1.5h-2.049
		v-2.721h2.049v-1.5h-2.049v-2.721h2.049v-1.5h-2.049v-4.514c1.878-1.142,3.519-2.583,4.883-4.235v-21.716
		c0-2.415-1.965-4.38-4.38-4.38h-17.931v0.75h-5.87c-0.334,0.336-0.659,0.683-0.965,1.045l-0.58-0.488
		c-2.935,3.482-4.551,7.912-4.551,12.474c0,6.744,3.566,13.046,9.336,16.551v4.514h-2.049v1.5h2.049v2.721h-2.049v1.5h2.049v2.721
		h-2.049v1.5h2.049v2.721h-2.049v1.5h2.347l2.638,5.001h3.422v1.96c0,0.965,0.785,1.75,1.75,1.75h3.571
		C172.358,181.251,173.144,180.466,173.144,179.501z"/>
	<g id="XMLID_132_">
		<g id="XMLID_148_">
			<path id="XMLID_579_" fill="#5FB0E5" d="M173.394,180.501h-3.571c-0.55,0-1-0.45-1-1v-6.532c0-0.551,0.45-1,1-1h3.571
				c0.55,0,1,0.449,1,1v6.532C174.394,180.051,173.943,180.501,173.394,180.501z"/>
			<path id="XMLID_577_" fill="none" stroke="#0686D8" stroke-width="1.5" stroke-miterlimit="10" d="M173.394,180.501h-3.571
				c-0.55,0-1-0.45-1-1v-6.532c0-0.551,0.45-1,1-1h3.571c0.55,0,1,0.449,1,1v6.532C174.394,180.051,173.943,180.501,173.394,180.501
				z"/>
			<path id="XMLID_569_" fill="#FFFFFF" d="M190.358,137.313c0-10.281-8.334-18.615-18.615-18.615s-18.616,8.334-18.616,18.615
				c0,6.898,3.762,12.906,9.337,16.122v18.354l2.638,5.001h12.788l3.131-5.001v-18.354
				C186.597,150.22,190.358,144.212,190.358,137.313z"/>
			<polygon id="XMLID_580_" fill="#D2E9F7" points="162.464,159.882 162.464,173.17 165.102,176.791 177.89,176.791 181.021,173.17 
				181.021,159.882 			"/>
			<polygon id="XMLID_571_" fill="#5FB0E5" points="181.021,171.79 177.89,176.791 165.102,176.791 162.464,171.79 			"/>
			<path id="XMLID_574_" fill="none" stroke="#0686D8" stroke-width="1.5" stroke-miterlimit="10" d="M157.502,125.323
				c-2.73,3.239-4.375,7.423-4.375,11.99c0,6.898,3.762,12.906,9.337,16.122v18.354l2.638,5.001h12.788l3.131-5.001v-18.354
				c5.575-3.216,9.336-9.224,9.336-16.122c0-10.281-8.334-18.615-18.615-18.615c-2.473,0-4.833,0.482-6.992,1.357"/>
			<path id="XMLID_568_" fill="none" stroke="#0686D8" stroke-width="1.5" stroke-miterlimit="10" d="M162.463,121.173
				c-1.451,0.835-1.939,1.066-3.109,2.248"/>
			
				<line id="XMLID_566_" fill="none" stroke="#0686D8" stroke-width="1.5" stroke-miterlimit="10" x1="159.665" y1="159.128" x2="183.821" y2="159.128"/>
			
				<line id="XMLID_564_" fill="none" stroke="#0686D8" stroke-width="1.5" stroke-miterlimit="10" x1="159.665" y1="163.349" x2="183.821" y2="163.349"/>
			
				<line id="XMLID_567_" fill="none" stroke="#0686D8" stroke-width="1.5" stroke-miterlimit="10" x1="159.665" y1="167.569" x2="183.821" y2="167.569"/>
			
				<line id="XMLID_573_" fill="none" stroke="#0686D8" stroke-width="1.5" stroke-miterlimit="10" x1="159.665" y1="171.79" x2="183.821" y2="171.79"/>
			<g id="XMLID_149_">
				<path id="XMLID_160_" fill="#5FB0E5" d="M172.651,125.302v12.098l0.006,0.007l8.536,8.559c2.188-2.182,3.544-5.197,3.554-8.529
					c0-0.013,0.002-0.024,0.002-0.036C184.749,130.719,179.333,125.302,172.651,125.302z"/>
				<path id="XMLID_158_" fill="#9ECFEF" d="M163.521,128.834c-2.191,2.186-3.548,5.205-3.555,8.543l12.097,0.029v-0.007v-12.098
					C168.729,125.302,165.709,126.652,163.521,128.834z"/>
				<path id="XMLID_157_" fill="#D2E9F7" d="M172.07,137.994l-0.006-0.001l-12.097-0.029c0,0.008-0.001,0.016-0.001,0.023
					c0,6.682,5.417,12.098,12.098,12.098c3.335,0,6.354-1.35,8.542-3.532L172.07,137.994z"/>
				
					<circle id="XMLID_570_" fill="none" stroke="#0686D8" stroke-width="1.5" stroke-miterlimit="10" cx="172.152" cy="137.198" r="12.887"/>
				<polyline id="XMLID_154_" fill="none" stroke="#0686D8" stroke-width="1.5" stroke-miterlimit="10" points="159.274,137.649 
					172.152,137.649 180.605,145.965 				"/>
				
					<line id="XMLID_153_" fill="none" stroke="#0686D8" stroke-width="1.5" stroke-miterlimit="10" x1="171.643" y1="124.066" x2="171.643" y2="137.406"/>
			</g>
		</g>
	</g>
	<path opacity="0.3" fill="#03436C" d="M112.373,163.805c0-5.514-2.578-10.429-6.584-13.628v26.693h-0.75
		c0,0.354,0.054,0.694,0.133,1.024C109.527,174.72,112.373,169.595,112.373,163.805z"/>
	<g>
		<circle fill="#D2E9F7" cx="92.927" cy="163.805" r="16.696"/>
		<circle fill="#FFFFFF" cx="92.927" cy="163.805" r="12.148"/>
		<circle fill="none" stroke="#0686D8" stroke-width="1.5" stroke-miterlimit="10" cx="92.927" cy="163.805" r="16.696"/>
		<g>
			
				<line fill="none" stroke="#0686D8" stroke-width="1.5" stroke-miterlimit="10" x1="98.66" y1="158.072" x2="87.194" y2="169.538"/>
			<circle fill="none" stroke="#0686D8" stroke-width="1.5" stroke-miterlimit="10" cx="89.644" cy="160.521" r="2.081"/>
			<circle fill="none" stroke="#0686D8" stroke-width="1.5" stroke-miterlimit="10" cx="96.474" cy="167.353" r="2.081"/>
		</g>
	</g>
	<g id="XMLID_547_">
		<path id="XMLID_551_" fill="#FFFFFF" d="M386.012,180.501h-3.747c-0.282,0-0.512-0.229-0.512-0.512v-53.976
			c0-0.074,0.017-0.147,0.048-0.215l1.873-4.059c0.183-0.396,0.745-0.396,0.929,0l1.873,4.059c0.031,0.067,0.047,0.141,0.047,0.215
			v53.976C386.522,180.271,386.294,180.501,386.012,180.501z"/>
		<rect id="XMLID_550_" x="381.753" y="127.735" fill="#5FB0E5" width="4.77" height="47.599"/>
		<path id="XMLID_549_" fill="none" stroke="#0686D8" stroke-width="1.5" stroke-miterlimit="10" d="M386.522,180.501h-4.77v-54.6
			l2.108-4.568c0.109-0.235,0.444-0.235,0.553,0l2.108,4.568V180.501z"/>
		
			<line id="XMLID_548_" fill="none" stroke="#0686D8" stroke-width="1.5" stroke-miterlimit="10" x1="381.589" y1="127.735" x2="386.522" y2="127.735"/>
	</g>
	<g>
		<g id="XMLID_499_">
			<circle id="XMLID_518_" fill="#FFFFFF" cx="265.246" cy="170.099" r="10.401"/>
			
				<circle id="XMLID_507_" fill="none" stroke="#0686D8" stroke-width="1.5" stroke-miterlimit="10" cx="265.246" cy="170.099" r="10.401"/>
			<g id="XMLID_513_">
				<path id="XMLID_515_" fill="none" stroke="#0686D8" stroke-width="1.5" stroke-miterlimit="10" d="M266.59,164.526l-4.317,2.809
					c-0.911,0.593-1.169,1.812-0.576,2.725l0,0c0.593,0.911,1.812,1.169,2.725,0.576l1.777-1.156
					c0.911-0.593,2.131-0.335,2.725,0.577l0,0c0.593,0.911,0.334,2.131-0.577,2.724l-4.444,2.892"/>
				
					<line id="XMLID_514_" fill="none" stroke="#0686D8" stroke-width="1.5" stroke-miterlimit="10" x1="261.322" y1="164.068" x2="269.169" y2="176.13"/>
			</g>
		</g>
	</g>
	<line fill="none" stroke="#0686D8" stroke-width="1.5" stroke-miterlimit="10" x1="31.474" y1="180.53" x2="468.822" y2="180.53"/>
</g>
</svg>
