<?xml version="1.0" encoding="utf-8"?>
<!-- Generator: Adobe Illustrator 16.0.0, SVG Export Plug-In . SVG Version: 6.00 Build 0)  -->
<!DOCTYPE svg PUBLIC "-//W3C//DTD SVG 1.1//EN" "http://www.w3.org/Graphics/SVG/1.1/DTD/svg11.dtd">
<svg version="1.1" id="Layer_1" xmlns="http://www.w3.org/2000/svg" xmlns:xlink="http://www.w3.org/1999/xlink" x="0px" y="0px"
	 width="510px" height="469px" viewBox="0 0 510 469" enable-background="new 0 0 510 469" xml:space="preserve">
<path fill="#461315" d="M352.299,406.405c-23.632,0-19.887-6.602-19.887-6.602s-5.2-68.713-4.453-111.708
	c0.479-27.159,24.301-96.767,24.301-96.767s29.312,49.071,29.421,76.247c0.189,44.69-1.136,130.751-1.136,130.751
	S375.982,406.405,352.299,406.405"/>
<path fill="#E1BD9A" d="M343.625,136.97l-11.723,25.294l-5.082-0.02c0,0-3.054,10.727,1.178,17.943
	c4.213,7.205,13.489,12.534,7.149,25.207c-6.35,12.667-15.344,20.822-15.325,43.2c0.03,22.378,19.068,57.646,18.22,77.664
	c-0.228,5.382-5.548,16.358-5.709,22.115c-0.169,5.754,7.256,36.724,7.546,46.32c0.241,7.896-3.952,14.345-6.688,17.146
	c-2.745,2.806-7.598,10.494-2.326,12.2c5.261,1.706,12.299,3.765,15.684-6.174c1.147-3.389,2.407-2.258,2.536-4.686
	c0.109-2.165-0.849-7.757-0.709-12.662c0.3-10.398,0.758-64.89,0.818-74.86c0.06-9.966,0.14-77.748,0.14-77.748l2.445,0.984V137.84
	C348.376,137.79,345.451,137.34,343.625,136.97"/>
<path fill="#F1D1AC" d="M364.03,394.654c0.292-9.598,7.718-40.566,7.559-46.321c-0.17-5.757-5.492-16.73-5.723-22.11
	c-0.848-20.017,18.192-55.286,18.211-77.669c0.029-22.376-8.966-30.534-15.315-43.207c-6.34-12.661,2.926-17.992,7.16-25.203
	c4.222-7.21,1.177-17.94,1.177-17.94l-6.867,0.026l-10.771-25.025c-2.646,0.52-5.284,0.679-7.681,0.639v111.051
	c0,0,0.131,0.033,0.19,0.028c0.699-0.067,2.605-1.051,2.605-1.051s0.072,67.779,0.14,77.747c0.071,9.965,0.521,64.459,0.818,74.863
	c0.143,4.9-0.827,10.493-0.708,12.658c0.131,2.433,1.388,1.294,2.535,4.683c3.396,9.939,10.424,7.879,15.696,6.181
	c5.262-1.7,0.408-9.399-2.327-12.2C367.983,409,363.793,402.556,364.03,394.654"/>
<path fill="#F1D1AC" d="M392.436,249.179c-1.548,11.707-4.643,16.951-8.875,18.026c-4.225,1.074-10.703-2.151-8.457-5.785
	c2.265-3.629,7.966-10.598,8.624-14.662c0.8-5.011-2.525-16.807-2.484-18.827c0.14-7.535,0.8-14.527,0.8-14.527l-0.41-5.372
	l-0.051-0.638l-4.822-28.994l-0.529-3.077l-2.166-1.765l-14.018-34.06l-0.746-1.843v-0.01c0.346-0.089,0.708-0.188,1.067-0.295
	c0.367-0.114,0.718-0.219,1.077-0.343v0.009c0.01,0.124,0.031,0.239,0.051,0.359v0.03c0.01,0.14,0.038,0.28,0.057,0.415
	c0.062,0.384,0.133,0.749,0.212,1.114c0.07,0.344,0.14,0.678,0.21,1.007c0.926,3.904,2.307,6.46,4.351,6.46
	c0,0,3.966,0.469,8.508,3.784c3.423,2.497,7.167,6.609,9.764,13.328c1.339,3.116,2.557,6.824,3.534,11.269
	c1.578,7.096,2.547,16.052,2.488,27.335c0.007,0.086,0.017,0.274,0.048,0.534c0,0.057,0.011,0.105,0.011,0.17
	c0.02,0.165,0.04,0.37,0.05,0.6c0.008,0.08,0.021,0.172,0.03,0.289c0.018,0.201,0.041,0.431,0.062,0.669
	c0.027,0.275,0.048,0.57,0.068,0.894c0.018,0.165,0.039,0.344,0.05,0.524c0,0.071,0.011,0.145,0.028,0.21
	c0.023,0.238,0.041,0.489,0.051,0.752C391.876,216.736,393.652,240.09,392.436,249.179"/>
<path fill="#6394A4" d="M351.392,403.897c-0.999,0-2.019-0.098-3.016-0.307c-0.758-0.142-1.967-0.294-3.375-0.468
	c-4.464-0.555-10.574-1.312-12.748-3.123l-0.119-0.095l0.03-0.146c0.047-0.555-1.101-12.79-2.538-28.285
	c-3.752-40.106-10.022-107.235-10.034-123.01c-0.019-17.211,5.382-26.235,10.612-34.953c1.599-2.659,3.246-5.417,4.724-8.367
	c4.791-9.554,0.53-14.901-3.584-20.067c-1.257-1.567-2.557-3.196-3.554-4.898c-0.857-1.487-1.487-3.204-1.847-5.116l-0.04-0.2
	l0.19-0.079c6.587-2.806,14.864-4.174,25.298-4.174h0.401c10.822,0.036,19.306,1.558,25.965,4.658l0.181,0.083l-0.041,0.2
	c-0.39,1.737-0.978,3.285-1.745,4.592c-1.001,1.705-2.297,3.326-3.546,4.894c-4.123,5.167-8.386,10.502-3.604,20.063
	c1.49,2.956,3.136,5.711,4.733,8.371c5.231,8.722,10.643,17.741,10.622,34.956c0,2.693-3.014,8.324-6.82,15.437
	c-5.418,10.138-12.159,22.759-13.937,33.597c-4.811,29.386-5.819,64.137-6.429,84.904c-0.468,16.495-0.689,20.71-1.568,20.955
	C354.217,403.703,352.8,403.897,351.392,403.897"/>
<path fill="#E1BD9A" d="M294.192,198.377c0.521-3.639,3.767-9.905,12.881-22.351c6.479-8.85,11.54-14.977,15.205-19.093
	c1.148-1.728,2.365-3.175,3.604-4.379c1.228-1.212,2.478-2.202,3.676-2.985c0.26-0.18,0.515-0.344,0.776-0.504
	c3.806-2.295,6.859-2.661,6.859-2.661c2.027,0,3.376-2.481,4.294-6.294c0.05-0.208,0.101-0.439,0.151-0.669
	c0.129-0.555,0.229-1.118,0.317-1.728c0.02-0.095,0.028-0.19,0.041-0.29c0.04-0.174,0.059-0.35,0.089-0.529v-0.009
	c0.519,0.189,1.058,0.354,1.578,0.508"/>
<path fill="#E1BD9A" d="M343.664,137.394l-0.01,0.005l-0.65,1.478l-14.506,32.253c-0.819,1.097-1.639,2.216-2.446,3.325
	c-9.024,12.298-17.9,24.501-18.329,25.644c-0.021,0.073-0.041,0.18-0.041,0.304c-0.01,0.061,0,0.119,0.01,0.19
	c0.011,0.093,0.02,0.189,0.044,0.293c0.006,0.066,0.025,0.145,0.047,0.221c1.087,5.286,11.969,26.387,11.969,26.387
	s11.593,2.73,14.838,3.609c3.265,0.889,5.021,0,2.076,12.993c-2.956,13.001-7.979,5.906-8.866,1.483
	c-0.888-4.432-3.534-3.553-7.088-4.432c-3.545-0.889-23.612-36.03-25.688-38.889"/>
<path fill="#1E454C" d="M330.665,184.291l-0.078-0.102c-0.961-1.224-1.97-2.545-2.777-3.923c-0.41-0.689-0.769-1.458-1.078-2.307
	c-0.1-0.269-0.2-0.55-0.279-0.829c-0.21-0.658-0.379-1.347-0.52-2.092c-1.047,1.434-1.889,2.586-1.889,2.586l-12.328-7.793
	c-0.141,0,3.104-11.346,5.98-15.819c1.507-2.331,5.989-4.921,6.521-5.065c0.379-0.261,3.322-2.138,8.508-2.556l1.354-0.106
	c2.067-0.154,3.104-0.229,3.745-0.544l0.088-0.049c0.13-0.06,0.241-0.14,0.361-0.265l0.068-0.075c0.239-0.23,0.42-0.59,0.661-1.048
	l0.038-0.081c0.599-1.218,1.037-2.615,1.391-3.733l0.075-0.279c0-0.02,0.021-0.07,0.042-0.121l0.1-0.308
	c0.03-0.121,0.06-0.24,0.099-0.35l-0.028-0.06l0.069-0.085c0.01-0.03,0.021-0.059,0.03-0.084c0.2-0.63,0.378-1.069,0.719-1.069
	h0.659l-0.041,0.3l-0.1,0.53c0.1,0.128,0.191,0.269,0.3,0.428c0.101,0.15,0.221,0.315,0.34,0.494
	c0.479,0.674,1.259,1.567,3.066,2.501c0.677,0.369,1.246,0.629,1.746,0.848c1.508,0.7,2.347,1.088,3.294,2.966
	c0.75,1.477,1.069,4.383,1.208,6.569l0.021,0.419l0.031,0.773l0.018,0.46c0,0.22,0.013,0.424,0.013,0.614
	c0.008,0.054,0.008,0.129,0.008,0.209c0.01,0.159,0.01,0.33,0.01,0.484c0,0.104,0,0.194-0.01,0.274c0,0.02-0.008,0.04-0.008,0.06
	c0.058,0.061,0.178,0.17,0.278,0.265c0.629,0.579,1.947,1.782,2.116,3.399c0.03,0.12,0.03,0.26,0.03,0.395v0.43
	c-0.03,4.258-0.07,10.788-0.092,16.054c-0.009,3.219-0.028,5.962-0.039,7.428v0.256H330.665z"/>
<path fill="#1E454C" d="M349.155,184.291v-0.256c-0.009-1.269-0.021-3.48-0.03-6.124c-0.011-4.214-0.029-9.505-0.069-13.83v-0.768
	c0-0.61,0-1.198-0.01-1.757c-0.012-0.506-0.012-0.984-0.012-1.433c-0.027-1.803,1.429-3.135,2.128-3.779
	c0.109-0.101,0.24-0.214,0.291-0.274c0-0.065,0-0.145,0-0.245c-0.011-0.151-0.011-0.349,0-0.579c-0.011-0.015-0.011-0.1,0-0.18
	c0-0.38,0.008-0.909,0.049-1.503v-0.114c0.008-0.09,0.008-0.18,0.02-0.28c0-0.111,0.01-0.254,0.019-0.41
	c0-0.064,0.012-0.16,0.021-0.255c0.131-2.062,0.449-4.837,1.168-6.304c0.96-1.877,1.797-2.266,3.316-2.956
	c0.489-0.229,1.068-0.49,1.747-0.858c1.128-0.589,1.977-1.219,2.584-1.927l0.08-0.09h0.012c0.309-0.348,0.52-0.668,0.707-0.958
	c0.11-0.16,0.22-0.315,0.321-0.448l-0.17-0.83h0.679c0.327,0,0.519,0.409,0.808,1.343l0.271,0.848
	c0.356,1.163,0.808,2.612,1.415,3.905c0.278,0.504,0.479,0.883,0.719,1.132c0.042,0.05,0.08,0.091,0.12,0.121
	c0.07,0.079,0.162,0.145,0.28,0.219l0.11,0.05c0.701,0.311,1.747,0.384,3.674,0.529l1.419,0.11c5.191,0.418,8.107,2.295,8.493,2.556
	c0.53,0.144,5.092,1.397,6.602,3.728c4.451,6.984,3.596,16.615,2.385,21.211c-0.01,0.051-0.027,0.099-0.04,0.15
	c-0.061,0.18-0.1,0.319-0.139,0.443c-0.37,1.17-0.551,1.274-0.728,1.294c-1.988,0.081-10.475,0.578-10.475,0.578
	c-0.262,0.616-0.452,3.366-0.75,3.875c-0.849,1.454-1.896,2.816-2.803,3.963l-0.082,0.102H349.155z"/>
<path fill="#361213" d="M337.635,426.261c-2.269,0-4.564-0.679-6.9-1.431c-1.087-0.35-1.826-0.978-2.195-1.863
	c-0.708-1.708,0.128-4.015,0.946-5.646l0.172-0.335l0.14,0.35c0.659,1.646,1.938,2.606,4.272,3.196
	c0.671,0.162,1.348,0.252,2.026,0.252c6.931,0,12.068-8.825,12.641-9.833l0.259-0.479l0.051,0.547c0.109,1.216,0.17,2.155,0.139,2.8
	c-0.07,1.279-0.448,1.646-0.938,2.098c-0.47,0.437-1.039,0.979-1.607,2.632C344.861,423.742,341.925,426.261,337.635,426.261"/>
<path fill="#361213" d="M366.309,426.261c2.277,0,4.56-0.679,6.896-1.431c1.088-0.35,1.829-0.978,2.198-1.863
	c0.709-1.708-0.128-4.015-0.949-5.646l-0.167-0.335l-0.143,0.35c-0.658,1.646-1.937,2.606-4.272,3.196
	c-0.657,0.162-1.35,0.252-2.027,0.252c-6.928,0-12.069-8.825-12.64-9.833l-0.258-0.479l-0.051,0.547
	c-0.109,1.216-0.171,2.155-0.14,2.8c0.069,1.279,0.448,1.646,0.937,2.098c0.47,0.437,1.049,0.979,1.61,2.632
	C359.079,423.742,362.021,426.261,366.309,426.261"/>
<g opacity="0.7">
	<g>
		<defs>
			<rect id="SVGID_1_" x="341.616" y="130.625" width="20.349" height="12.09"/>
		</defs>
		<clipPath id="SVGID_2_">
			<use xlink:href="#SVGID_1_"  overflow="visible"/>
		</clipPath>
		<path clip-path="url(#SVGID_2_)" fill="#C09980" d="M361.496,137.399c0.01,0.145,0.038,0.285,0.057,0.419
			c-0.358,0.484-0.857,1.083-1.496,1.678c-1.688,1.581-4.364,3.225-8.277,3.225h-0.046c-4.147-0.02-7.071-2.151-8.74-3.844
			c-0.43-0.429-0.776-0.833-1.037-1.164c0.02-0.095,0.028-0.2,0.041-0.29c0.029-0.179,0.059-0.35,0.089-0.529
			c-0.15-0.05-0.309-0.109-0.47-0.159c0.191-1.108,0.34-2.287,0.449-3.494c0.081-0.829,0.159-1.658,0.243-2.511
			c2.861,0.724,5.979,1.163,9.312,1.212h0.112c0.106,0,0.228,0,0.337-0.01c3.283-0.074,6.33-0.529,9.185-1.308
			c0.082,0.829,0.159,1.657,0.241,2.457c0.14,1.317,0.269,2.566,0.469,3.754c-0.171,0.059-0.35,0.115-0.52,0.179
			c0.01,0.124,0.031,0.239,0.051,0.359V137.399z"/>
	</g>
</g>
<path fill="#D3A788" d="M351.761,68.446c-29.533-0.049-29.711,23.672-28.396,39.157c-2.026-3.634-8.006-2.287-7.526,3.529
	c0.472,5.566,8.945,8.092,8.816,7.478c2.426,12.604,16.343,19.608,27.105,20.607c0.071,0.005,0.149,0,0.23,0.011V68.446
	C351.91,68.446,351.832,68.446,351.761,68.446"/>
<path fill="#C09980" d="M317.326,108.671c1.478-2.247,3.764-1.277,4.335-0.783c0.599,0.534,1.059,1.253,0.695,2.581
	c-0.207,0.749-1.037,0.804-0.837,1.947c0.22,1.277,0.848,1.358,1.2,1.646c0.357,0.29,0.785,0.511,1.017,1.05
	c0.209,0.539,0.25,1.118,0.13,1.607c-0.231,0.919-1.639,0.19-2.585-0.22c-0.631-0.27-2.607-1.857-3.095-2.396
	C316.918,112.759,316.337,110.169,317.326,108.671"/>
<path fill="#DFB79A" d="M351.91,68.446c29.532-0.049,29.702,23.672,28.385,39.157c2.033-3.634,8.017-2.287,7.528,3.529
	c-0.472,5.566-8.936,8.092-8.817,7.478c-2.415,12.604-16.343,19.608-27.096,20.607c-0.078,0.005-0.158,0-0.229,0.011V68.446
	C351.761,68.446,351.832,68.446,351.91,68.446"/>
<path fill="#C09980" d="M386.554,108.671c-1.487-2.247-3.773-1.277-4.334-0.783c-0.597,0.534-1.068,1.253-0.697,2.581
	c0.209,0.749,1.027,0.804,0.83,1.947c-0.222,1.277-0.838,1.358-1.201,1.646c-0.346,0.29-0.784,0.511-1.008,1.05
	c-0.218,0.539-0.258,1.118-0.129,1.607c0.228,0.919,1.639,0.19,2.576-0.22c0.63-0.27,2.605-1.857,3.104-2.396
	C386.951,112.759,387.531,110.169,386.554,108.671"/>
<path fill="#E1BE9B" d="M351.603,75.155c-9.865,0-17.085,2.726-21.446,8.098c-6.1,7.492-5.87,18.948-3.625,27.166
	c0.689,2.516,1.04,9.289,1.527,11.771c2.127,11.123,15.035,17.043,23.544,17.043c0.078,0,0.158-0.01,0.229-0.01V75.17
	C351.752,75.17,351.681,75.155,351.603,75.155"/>
<path fill="#F1D1AC" d="M373.017,83.262c-4.344-5.331-11.482-8.052-21.185-8.091v64.051c9.715-0.1,21.321-6.589,23.319-17.033
	c0.472-2.481,0.831-9.255,1.52-11.771C378.916,102.222,379.135,90.781,373.017,83.262"/>
<path fill="#C6696F" d="M356.802,129.179c0,0-2.235,2.385-4.981,2.385s-4.843-2.335-4.843-2.335s2.097-0.359,4.843-0.359
	S356.802,129.179,356.802,129.179"/>
<path fill="#D87374" d="M353.229,128.08c-0.78,0-1.39,0.483-1.409,1.088c-0.021-0.604-0.64-1.088-1.397-1.088
	c-0.79,0-3.574,1.104-3.574,1.104s2.715,0.285,3.497,0.285c0.765,0,1.454,0.309,1.475-0.27c0.012,0.579,0.568,0.359,1.348,0.359
	s3.634-0.374,3.634-0.374S354.006,128.08,353.229,128.08"/>
<path fill="#7B532D" d="M297.367,277.515c0,0.252,0,0.803-0.009,1.614c-0.021,1.421-0.05,3.608-0.1,6.233
	c-0.172,9.689-0.561,25.275-1.102,29.48c-0.79,6.267-3.185,26.109-3.185,26.109s1.762,17.35,1.392,20.659
	c-1.069,9.572-1.287,18.956-1.287,18.956s-0.504,13.949-0.587,21.744c-0.014,1.033-0.023,1.964-0.014,2.732
	c0.512,0.297,0.849,0.804,0.849,1.379c0,0.496-0.27,0.944-0.684,1.256c0.133,0.663,0.327,1.411,0.562,2.198
	c0.396,1.328,0.906,2.784,1.37,4.169c0.281,0.812,0.541,1.613,0.771,2.348c0.491,1.628,0.781,2.967,0.561,3.601
	c-0.26,0.749-1.857,2.299-1.857,2.299s0.776,7.64-2.61,10.169c-3.396,2.529-10.707,3.843-17.86,1.295
	c-7.171-2.537,0.906-7.615,1.695-10.948c0.425-1.815,1.307-3.578,2.111-5.16v-0.012c0.672-1.316,1.304-2.525,1.605-3.559
	c0-0.007,0.005-0.021,0.005-0.032c0.211-0.729,0.349-1.791,0.446-2.958c0.234-2.78,0.25-6.18,0.475-7.156
	c0.129-0.52,0.219-1.06,0.258-1.62c0.886-9.32-7.453-23.437-6.396-40.788c0.655-10.746,2.88-17.506,2.674-21.561
	c-0.352-7.022-3.119-17.034-4.464-26.899c-1.302-9.449-3.224-30.161-2.212-39.251l-0.028-0.01c0.028-0.134,0.042-0.269,0.063-0.405
	c0.886-5.825,1.727-9.559,2.02-10.776c0.069-0.299,0.11-0.448,0.11-0.448s0.006-3.33,0.795-5.459
	c0.026-0.061,0.054-0.124,0.078-0.21c0.344-0.992,1.138-3.518,1.989-6.31c0.068-0.228,0.144-0.455,0.22-0.691
	c0.007-0.047,0.021-0.098,0.036-0.146c0-0.008,0.01-0.013,0.01-0.024c0.012,0.055,0.021,0.107,0.042,0.153
	c0.359,1.525,0.971,3.026,1.819,4.313c1.318,1.98,3.401,3.114,5.421,4.212c1.329,0.729,2.582,1.413,3.468,2.271
	c1.306,1.264,3.644,4.966,5.438,8.279c0.88,1.639,1.641,3.17,2.08,4.277c0.185,0.479,0.343,0.866,0.45,1.142
	C294.534,275.823,295.146,277.039,297.367,277.515"/>
<path fill="#966439" d="M321.494,422.809c0.793,3.331,8.87,8.411,1.703,10.954c-7.158,2.54-14.467,1.229-17.87-1.304
	c-3.393-2.526-2.604-10.168-2.604-10.168s-1.591-1.548-1.862-2.297c-0.198-0.566,0.01-1.699,0.421-3.104l0.01-0.036
	c0.24-0.86,0.562-1.812,0.903-2.809c0.469-1.382,0.969-2.839,1.369-4.165c0.241-0.796,0.433-1.539,0.572-2.202
	c-0.42-0.312-0.69-0.758-0.69-1.256c0-0.569,0.328-1.088,0.85-1.373c0.011-0.771,0-1.705-0.02-2.735
	c-0.08-7.8-0.581-21.747-0.581-21.747s-0.22-9.38-1.281-18.956c-0.381-3.312,1.381-20.659,1.381-20.659s-2.392-19.84-3.183-26.109
	c-0.541-4.223-0.942-19.861-1.11-29.549c-0.041-2.584-0.072-4.744-0.082-6.151v-0.014c-0.021-0.806-0.021-1.362-0.021-1.616
	c2.225-0.474,2.835-1.693,3.574-3.527c0.12-0.279,0.271-0.67,0.462-1.147c0.43-1.103,1.191-2.637,2.081-4.275
	c1.793-3.313,4.136-7.016,5.437-8.282c0.882-0.855,2.133-1.537,3.465-2.264c2.013-1.098,4.104-2.228,5.415-4.222
	c0.852-1.279,1.472-2.782,1.834-4.309c0-0.006,0-0.016,0-0.03c0.019-0.041,0.028-0.074,0.028-0.119
	c0.09,0.288,0.19,0.579,0.272,0.86c0.849,2.796,1.64,5.312,1.991,6.307c0.03,0.083,0.049,0.149,0.069,0.21
	c0.791,2.129,0.801,5.464,0.801,5.464s0.039,0.145,0.109,0.44c0.251,1.069,0.922,4.041,1.684,8.636
	c0.129,0.801,0.258,1.656,0.398,2.556l-0.029,0.011c1.021,9.087-0.911,29.794-2.211,39.238c-1.342,9.87-4.116,19.884-4.457,26.904
	c-0.209,4.051,2.014,10.812,2.664,21.561c1.062,17.352-7.278,31.474-6.397,40.791c0.049,0.554,0.141,1.09,0.26,1.617
	c0.23,1.033,0.241,4.728,0.521,7.574c0.09,0.997,0.222,1.897,0.401,2.54c0,0.005,0.011,0.02,0.011,0.03
	c0.33,1.106,1.011,2.398,1.742,3.827C320.283,419.423,321.095,421.093,321.494,422.809"/>
<g>
	<defs>
		<path id="SVGID_3_" d="M296.799,279.016c0.16,0.039,0.319,0.064,0.47,0.064c0.81,0.102,1.451,0.075,1.881,0.068
			c0.443-0.008,0.662-0.008,0.662-0.008s-0.219-0.017-0.662-0.035c-0.21-0.008-0.479-0.025-0.791-0.039
			c-0.309-0.017-0.669-0.09-1.06-0.14c-0.171-0.009-0.321-0.05-0.5-0.087V279.016z"/>
	</defs>
	<clipPath id="SVGID_4_">
		<use xlink:href="#SVGID_3_"  overflow="visible"/>
	</clipPath>
	
		<linearGradient id="SVGID_5_" gradientUnits="userSpaceOnUse" x1="-139.373" y1="561.8613" x2="-134.2597" y2="561.8613" gradientTransform="matrix(4.8873 0 0 -4.8873 955.9531 3024.9844)">
		<stop  offset="0" style="stop-color:#FFFFFF"/>
		<stop  offset="1" style="stop-color:#211915"/>
	</linearGradient>
	<rect x="296.799" y="278.84" clip-path="url(#SVGID_4_)" fill="url(#SVGID_5_)" width="3.013" height="0.342"/>
</g>
<path d="M299.399,282.629L299.399,282.629z"/>
<path fill="#FFFFFF" d="M277.217,170.479c4.627,5.088,13.786,12.096,20.861,12.448h0.15h0.03h0.022c0.028,0,0.099,0.028,0.148,0
	c7.087-0.353,16.237-7.36,20.872-12.448c-1.23-0.709-2.373-1.226-3.332-1.585c-3.895,4.291-11.614,10.222-17.601,10.518
	c-0.06,0.028-0.11,0-0.131,0h-0.028h-0.021h-0.119c-5.964-0.296-13.683-6.197-17.577-10.485
	C279.539,169.279,278.42,169.786,277.217,170.479"/>
<path fill="#1B1C1C" d="M295.796,410.375c0.161,0.611,0.271,1.123,0.141,1.525c-0.509,1.558-1.181,1.874-1.111,2.097l0.461,3.398
	c0.481,1.756,0.781,3.197,0.561,3.88c-0.27,0.809-1.854,2.479-1.854,2.479s0.772,8.231-2.597,10.951
	c-3.391,2.728-10.673,4.141-17.809,1.4c-2.763-1.054-2.952-4.5-2.952-4.5s4.165-5.093,4.644-7.298
	c0.43-1.954,1.302-3.852,2.106-5.562v-0.012l0.236-3.869c0.088-0.321,0.406-1.103,0.17-2.435c0.538-0.278,1.087-0.529,1.646-0.746
	c2.102-0.849,4.383-1.309,6.754-1.309H295.796z"/>
<path fill="#020202" d="M281.551,435.287c-2.746,0-5.449-0.464-8.027-1.383c-1.702-0.598-2.665-1.378-2.958-2.379
	c-0.48-1.644,1.001-3.528,2.436-5.359c0.964-1.234,1.882-2.399,2.117-3.393c0.415-1.753,1.208-3.394,2.121-5.2l0.165-0.32
	c0.599-1.177,1.162-2.286,1.432-3.223c0.19-0.647,0.327-1.576,0.448-2.955c0.103-1.203,0.162-2.541,0.222-3.721
	c0.067-1.548,0.128-2.89,0.261-3.454c0.125-0.52,0.206-1.059,0.253-1.601l0.015-0.143h12.614v0.157
	c-0.016,0.996-0.025,1.892-0.02,2.636c0.538,0.347,0.854,0.888,0.854,1.473c0,0.484-0.24,0.962-0.669,1.315
	c0.123,0.599,0.295,1.288,0.538,2.096c0.322,1.07,0.716,2.236,1.104,3.356l0.271,0.807c0.279,0.813,0.539,1.614,0.77,2.346
	c0.59,1.963,0.763,3.11,0.56,3.7c-0.249,0.705-1.56,2.02-1.844,2.311c0.074,0.85,0.604,7.79-2.674,10.231
	C289.254,434.279,285.522,435.287,281.551,435.287"/>
<path fill="#30302F" d="M290.471,421.775c-0.268,0.882-1.203,1.371-2.102,1.173c-3.665-0.803-7.47-0.803-11.13,0
	c-0.898,0.198-1.838-0.291-2.105-1.173c-0.267-0.879,0.35-1.841,1.389-2.069c4.137-0.916,8.422-0.916,12.563,0
	C290.121,419.935,290.735,420.899,290.471,421.775"/>
<path fill="#30302F" d="M287.798,427.313c-0.265,0.879-1.205,1.376-2.104,1.182c-3.662-0.813-7.464-0.813-11.126,0
	c-0.901,0.194-1.84-0.303-2.105-1.182c-0.268-0.873,0.349-1.838,1.389-2.067c4.136-0.912,8.423-0.912,12.557,0
	C287.45,425.476,288.065,426.44,287.798,427.313"/>
<path fill="#1B1C1C" d="M301.904,413.997l-0.462,3.398c-0.491,1.756-0.779,3.197-0.56,3.88c0.26,0.809,1.85,2.479,1.85,2.479
	s-0.778,8.231,2.595,10.951c3.394,2.728,10.673,4.141,17.81,1.4c2.763-1.054,2.952-4.5,2.952-4.5s-4.163-5.093-4.643-7.298
	c-0.432-1.954-1.302-3.852-2.104-5.562v-0.005l-1.522-3.781c-0.09-0.326,0.882-1.197,1.111-2.529
	c-0.538-0.278-1.081-0.529-1.642-0.746c-2.102-0.842-4.384-1.309-6.757-1.309C310.533,410.375,301.973,413.78,301.904,413.997"/>
<path fill="#020202" d="M315.218,435.287c-3.974,0-7.709-1.008-9.99-2.702c-3.273-2.441-2.745-9.382-2.662-10.231
	c-0.292-0.291-1.604-1.605-1.854-2.311c-0.188-0.544-0.059-1.557,0.422-3.204c0.25-0.883,0.571-1.846,0.91-2.842l0.271-0.807
	c0.39-1.12,0.779-2.286,1.101-3.361c0.24-0.803,0.42-1.492,0.542-2.091c-0.432-0.354-0.672-0.831-0.672-1.315
	c0-0.585,0.32-1.126,0.852-1.473c0.01-0.744,0-1.64-0.021-2.636v-0.157h12.615l0.021,0.143c0.05,0.542,0.129,1.081,0.248,1.595
	c0.131,0.57,0.191,1.89,0.262,3.427c0.061,1.333,0.13,2.847,0.26,4.166c0.101,1.088,0.241,1.925,0.399,2.515
	c0.291,0.973,0.853,2.091,1.453,3.271l0.281,0.561c0.79,1.55,1.581,3.213,1.99,4.94c0.241,0.993,1.161,2.158,2.124,3.393
	c1.431,1.831,2.912,3.716,2.432,5.359c-0.29,1.001-1.252,1.781-2.953,2.379C320.664,434.823,317.962,435.287,315.218,435.287"/>
<path fill="#30302F" d="M306.169,421.979c0.27,0.879,1.209,1.375,2.102,1.174c3.665-0.805,7.468-0.805,11.133,0
	c0.9,0.201,1.842-0.295,2.101-1.174c0.271-0.881-0.35-1.839-1.381-2.064c-4.146-0.92-8.429-0.92-12.563,0
	C306.518,420.14,305.908,421.105,306.169,421.979"/>
<path fill="#30302F" d="M308.841,427.518c0.271,0.881,1.211,1.372,2.104,1.18c3.674-0.808,7.468-0.808,11.132,0
	c0.902,0.192,1.841-0.299,2.103-1.18c0.271-0.877-0.353-1.845-1.383-2.074c-4.145-0.909-8.43-0.909-12.563,0
	C309.191,425.673,308.582,426.641,308.841,427.518"/>
<path fill="#966439" d="M312.495,168.448c0,0,22.025,0,21.774,54.827c0,0,3.125,35.43,1.681,47.15
	c-1.43,11.719-4.295,16.973-8.209,18.052c-3.901,1.077-9.909-2.154-7.816-5.793c2.081-3.635,6.585-10.614,7.187-14.682
	c0.75-5.021-3.896-16.84-3.864-18.861c0.13-7.539,1.521-14.547,1.521-14.547l-0.421-6.031c0,0-3.392-5.473-5.335-12.967
	c-0.911-3.502,1.691-20.879,1.691-20.879L312.495,168.448z"/>
<path fill="#7B532D" d="M283.667,168.704c0,0-22.033,0-21.773,54.825c0,0-3.13,35.431-1.697,47.153
	c1.438,11.719,4.307,16.975,8.217,18.053c3.912,1.076,9.909-2.156,7.822-5.798c-2.086-3.635-6.586-10.617-7.191-14.679
	c-0.749-5.024,3.901-16.843,3.864-18.857c-0.131-7.544-1.518-14.55-1.518-14.55l0.416-6.025c0,0,3.391-5.479,5.341-12.97
	c0.911-3.505-1.697-20.882-1.697-20.882L283.667,168.704z"/>
<path fill="#222D30" d="M292.875,420.565c-2.146-0.352-6.724-2.538-8.406-2.538c-3.624,0-4.652-0.173-5.868,0.696
	c-0.795,0.568-2.149,0.818-2.149,0.818l-1.857-2.594l0.01-0.283c0.003-0.04,0.152-4.141,0.362-6.023
	c0.17-1.585-0.147-2.406-0.147-2.41l-0.1-0.226l1.371-6.655c0.792-5.575-0.591-10.164-2.044-15.013
	c-1.457-4.81-2.954-9.778-2.548-16.211c0.279-4.479,1.859-22.93,2.335-28.475l0.006-0.063c-5.681-20.574-7.647-42.527-5.854-65.224
	c0.475-5.908,1.482-10.128,1.777-11.283c0.082-0.322,0.058-1.09,0.042-1.648c-0.029-0.983-0.037-1.429,0.168-1.773l0.242-0.395
	l0.457,0.015c0.157,0.01,1.573,0.084,2.694,0.669c0.493,0.197,5.427,0.419,13.566,0.419h0.247c0.078,0.005,6.783,0.312,11.991,0.614
	c0.219,0.021,0.451,0.027,0.7,0.027h0.35c4.576-0.244,9.2-0.469,9.2-0.469h0.321c8.119,0,13.043-0.219,13.545-0.423
	c1.12-0.585,2.522-0.652,2.683-0.662l0.46-0.017l0.241,0.396c0.209,0.342,0.199,0.782,0.171,1.764
	c-0.021,0.538-0.051,1.331,0.038,1.671c0.302,1.151,1.312,5.368,1.773,11.269c1.802,22.685-0.16,44.627-5.848,65.219l0.011,0.075
	c0.471,5.545,2.052,23.99,2.333,28.466c0.401,6.429-1.091,11.394-2.542,16.2c-1.463,4.865-2.845,9.45-2.043,15.081l1.361,6.605
	l-0.1,0.229c0,0-0.311,0.818-0.15,2.404c0.23,1.996-0.57,6.233-0.57,6.28l-0.041,0.203l-0.52,2.754c0,0-0.131-0.455-2.112-1.037
	c-0.751-0.22-2.784-1.121-6.849-1.172c-5.375-0.068-7.379,1.38-7.379,1.38l-2.942,1.449c-1.401-0.169-2.102-2.236-2.102-3.568
	c0-1.441,0.931-3.71,1.28-4.539c-0.26-1.264-0.972-4.781-0.972-5.396c0-0.543,0.342-1.133,0.871-1.966
	c0.142-0.226,0.422-0.665,0.462-0.791c0.011-0.024,0.029-0.123,0.059-0.263c0.843-3.351,2.614-12.167,0.942-21.668l-0.512-2.853
	c-1.631-9.229-2.242-12.687-1.11-17.941c1.131-5.154,2.184-15.194,2.322-16.563c-0.171-1.067-2.893-18.479-3.394-24.381
	c-0.341-3.999-0.089-3.481-0.24-5.045c-0.03-0.253-0.882,0.256-0.901,0.035c-0.021,0.157-0.101,0.818-0.43,4.833
	c-0.511,5.863-3.194,23.108-3.396,24.381c0.142,1.37,1.184,11.431,2.314,16.557c1.142,5.257,0.531,8.708-1.111,17.938l-0.5,2.864
	c-1.677,9.505,0.101,18.32,0.939,21.672c0,0,0.052,0.239,0.062,0.278c0.04,0.105,0.311,0.551,0.45,0.757
	c0.53,0.846,0.882,1.441,0.882,1.986c0,0.582-0.661,3.874-0.981,5.389c0.361,0.828,1.281,3.103,1.281,4.541
	c0,1.332-0.02,2.384-1.5,2.557C295.979,419.489,296.067,421.093,292.875,420.565"/>
<path fill="#7B532D" d="M298.299,143.109v59.143h-32.154c-0.517-0.228-0.787-0.337-0.787-0.337
	c0-31.727,19.682-34.096,19.682-34.096c1.962,0,3.225-2.522,4.06-6.354c0.137-0.591,0.246-1.195,0.338-1.852
	c0.186-1.081,0.338-2.231,0.45-3.429c0.072-0.717,0.14-1.441,0.2-2.183c0.298-3.634,0.392-7.575,0.392-11.316
	C290.479,142.685,294.806,143.109,298.299,143.109"/>
<path fill="#966439" d="M331.355,201.915c0,0-0.29,0.109-0.76,0.337h-32.297v-59.143h0.07c3.494,0,7.85-0.431,7.85-0.431
	c0,3.718,0.091,7.621,0.381,11.229c0.068,0.721,0.14,1.445,0.199,2.143c0.141,1.239,0.271,2.413,0.451,3.517v0.023
	c0.069,0.491,0.158,0.944,0.25,1.4c0.83,4.079,2.142,6.828,4.163,6.828C311.663,167.819,331.355,170.188,331.355,201.915"/>
<path fill="#7B532D" d="M298.35,169.875v109.271c-0.068,0-0.15,0-0.241-0.01c-0.12,0-0.229,0-0.33-0.01h-0.42
	c-0.359-0.005-0.56-0.005-0.56-0.005l0.049-0.125c-0.24-0.056-0.501-0.127-0.78-0.183c-0.221-0.091-0.472-0.209-0.713-0.317
	c-0.239-0.133-0.438-0.337-0.679-0.518c-0.827-0.866-1.241-2.112-1.796-3.363c-0.774-1.847-1.662-3.906-2.659-6.066
	c-0.387-0.842-0.791-1.694-1.206-2.554c-0.754-1.533-1.586-3.169-2.599-4.539c-0.138-0.173-0.292-0.335-0.454-0.507
	c-0.125-0.112-0.314-0.276-0.469-0.398c-0.349-0.268-0.715-0.516-1.102-0.754c-0.772-0.461-1.6-0.871-2.409-1.314
	c-1.63-0.884-3.298-1.84-4.525-3.344c-1.112-1.501-1.852-3.213-2.235-4.937c-0.012-0.01-0.012-0.014-0.012-0.024
	c-0.048-0.229-0.103-0.452-0.126-0.68c-0.012-0.05-0.016-0.085-0.025-0.136c-0.244-1.464-0.244-2.91,0.092-4.301
	c0.128-0.385,0.26-0.76,0.383-1.134c0.133-0.354,0.269-0.697,0.401-1.042c0.241-0.696,0.444-1.396,0.649-2.049
	c0.374-1.321,0.721-2.546,1.01-3.631c0.252-0.966,0.436-2.06,0.436-2.15c0,0.007-0.006,0.018-0.006,0.021
	c-0.055-7.053-0.767-17.087-0.767-17.087c-1.559-3.034-3.695-9.741-4.94-13.897c-0.642-2.112-1.062-3.581-1.062-3.581
	s0.103-0.831,0.293-2.226c0.686-4.966,2.544-17.04,5.186-23.455c1.223-2.973,4.186-4.386,7.469-4.989
	c5.811-1.054,12.617,0.425,12.617,0.425C297.348,170.115,297.858,169.991,298.35,169.875"/>
<path fill="#966439" d="M318.451,233.138c-0.011,0.443-0.011,0.885-0.019,1.31c0.2,0.769,0.431,1.691,0.72,2.742
	c0.279,1.077,0.631,2.295,1.011,3.632c0.191,0.653,0.401,1.354,0.643,2.048c0.131,0.343,0.269,0.688,0.399,1.037
	c0.13,0.38,0.26,0.755,0.381,1.144c0.34,1.382,0.34,2.836,0.1,4.289c0,0.035-0.01,0.079-0.019,0.12c0,0.014,0,0.021-0.013,0.032
	c-0.029,0.223-0.078,0.443-0.118,0.666c0,0.013,0,0.013-0.011,0.021v0.011c-0.391,1.709-1.121,3.434-2.242,4.936
	c-1.222,1.504-2.895,2.465-4.525,3.346c-0.811,0.436-1.632,0.851-2.402,1.312c-0.391,0.238-0.762,0.486-1.101,0.743
	c-0.161,0.136-0.352,0.303-0.481,0.406c-0.149,0.176-0.312,0.335-0.451,0.513c-1.01,1.367-1.842,3.001-2.592,4.535
	c-0.391,0.812-0.782,1.619-1.143,2.409c-1.021,2.221-1.933,4.312-2.723,6.2c-0.56,1.264-0.971,2.514-1.802,3.375
	c-0.229,0.177-0.439,0.384-0.681,0.517c-0.25,0.11-0.481,0.226-0.712,0.325c-0.279,0.047-0.54,0.127-0.789,0.182l0.059,0.149
	c0,0-0.18,0-0.53,0.01h-0.132c-0.099,0-0.198,0-0.309,0.005c-0.181,0-0.39,0-0.62-0.005V169.875c2.894-0.674,5.226-0.714,7.099-0.35
	c1.611-0.094,3.423-0.099,5.196,0.096c3.893,0.405,7.647,1.77,9.068,5.209c2.943,7.13,4.315,21.214,4.625,24.825
	c0.051,0.552,0.069,0.856,0.069,0.856s-0.52,2.35-1.3,5.385c-1.042,4.095-2.573,9.477-3.915,12.093c0,0-0.589,8.325-0.741,15.14
	V233.138z"/>
<path fill="#563B20" d="M307.25,159.377v0.025c-0.791,1.261-3.524,4.857-8.932,4.857h-0.037c-5.128-0.021-8.108-3.751-8.88-4.836
	c0.183-1.087,0.341-2.233,0.454-3.433c0.064-0.721,0.137-1.444,0.202-2.188c2.508,0.63,5.22,1.014,8.131,1.061h0.093
	c2.992-0.047,5.733-0.453,8.318-1.148c0.06,0.718,0.13,1.439,0.199,2.141C306.929,157.098,307.07,158.276,307.25,159.377"/>
<path fill="#020202" d="M343.52,230.473c0,0-20.133,4.451-20.662,4.697l-2.323-13.102c0,0,5.855,29.325,7.188,39.2
	c1.662,12.313,1.581,48.959,1.581,48.959s-16.487-3.499-22.994-3.608c-8.211-0.14-24.395,3.454-32.567,4.168
	c-1.996,0.177-6.75,0.032-6.75,0.032s0.029-35.952,1.208-46.972c1.165-10.906,6.858-40.611,6.858-40.611l-1.316,11.753
	c-0.567-0.245-20.37-4.121-20.37-4.121c2.475-50.46,21.2-59.717,27.183-61.946c3.897,4.291,11.617,10.194,17.584,10.493h0.119h0.022
	h0.028c0.03,0,0.079,0.026,0.12,0c5.986-0.299,13.704-6.23,17.609-10.521C321.996,171.1,339.425,182.102,343.52,230.473"/>
<path fill="#FFFFFF" d="M289.529,207.15v1.679c0,0.411,0.137,0.611,0.401,0.611c0.52-0.129,1.046-0.231,1.569-0.327
	c0.523-0.099,1.028-0.145,1.503-0.145c1.312,0,2.425,0.452,3.324,1.368c0.821,0.831,1.231,1.74,1.231,2.708v4.832
	c0,1.482-0.76,2.589-2.293,3.328c-1.235,0.601-2.846,0.897-4.815,0.897c-1.163,0-2.219-0.149-3.166-0.449
	c-1.119-0.359-2.131-0.949-3.071-1.765v-4.942h5.316v2.34c0,0.296,0.137,0.529,0.413,0.704c0.278,0.175,0.575,0.261,0.912,0.261
	c0.3,0,0.561-0.092,0.785-0.271c0.229-0.18,0.345-0.422,0.345-0.711v-3.369c0-0.451-0.096-0.77-0.303-0.937
	c-0.204-0.175-0.492-0.263-0.852-0.263c-0.363,0-0.615,0.045-0.768,0.144c-0.15,0.09-0.288,0.271-0.415,0.537h-5.435v-10.579h13.115
	v5.2h-5.565c-0.047-0.324-0.159-0.59-0.345-0.813c-0.176-0.215-0.398-0.327-0.649-0.327h-0.599c-0.124,0-0.262,0.016-0.41,0.041
	C289.604,206.924,289.529,207.003,289.529,207.15"/>
<path fill="#FFFFFF" d="M307.81,221.7h-6.377l5.146-14.502c0.049-0.164-0.041-0.256-0.261-0.294c-0.23-0.043-0.42-0.063-0.561-0.063
	h-0.681c-0.271,0-0.411,0.215-0.411,0.641v0.537v2.32h-5.164v-7.537h14.124v3.237L307.81,221.7z"/>
<path fill="#49484A" d="M278.08,98.785c0,0-0.434,11.816-2.61,15.552c-2.179,3.732-1.037,6.525-14.891,10.129
	c-8.562,2.229-22.561,0.439-27.345-12.091c-1.268-3.306-4.928-10.797,9.389-11.729C256.928,99.708,278.08,98.785,278.08,98.785"/>
<path fill="#563B20" d="M297.999,71.515c-35.626,0-35.834,29.83-34.243,49.344c-2.446-4.628-9.674-3.198-9.083,4.09
	c0.574,7.021,10.786,10.652,10.641,9.838c2.922,16.064,19.688,25.346,32.685,25.346c0.09,0,0.189-0.013,0.271-0.013V71.524
	C298.18,71.524,298.089,71.515,297.999,71.515"/>
<path fill="#332214" d="M256.949,121.868c1.76-2.809,4.479-1.599,5.145-0.979c0.711,0.675,1.271,1.568,0.835,3.234
	c-0.252,0.933-1.234,1.007-0.991,2.429c0.264,1.606,1.007,1.708,1.423,2.066c0.413,0.365,0.943,0.64,1.202,1.319
	c0.252,0.676,0.299,1.393,0.154,2.009c-0.27,1.146-1.946,0.23-3.068-0.273c-0.74-0.338-3.091-2.327-3.686-2.998
	C256.466,126.987,255.775,123.744,256.949,121.868"/>
<path fill="#563B20" d="M298.18,71.515c35.628,0,35.831,29.83,34.238,49.344c2.441-4.628,9.68-3.198,9.08,4.09
	c-0.57,7.021-10.783,10.652-10.633,9.838c-2.923,16.064-19.691,25.346-32.686,25.346c-0.091,0-0.191-0.013-0.281-0.013V71.524
	C297.999,71.524,298.089,71.515,298.18,71.515"/>
<path fill="#332214" d="M339.224,121.868c-1.762-2.809-4.473-1.599-5.146-0.979c-0.71,0.675-1.262,1.568-0.83,3.234
	c0.251,0.933,1.231,1.007,0.991,2.429c-0.26,1.606-1.001,1.708-1.423,2.066c-0.408,0.365-0.939,0.64-1.201,1.319
	c-0.249,0.676-0.309,1.393-0.158,2.009c0.27,1.146,1.951,0.23,3.074-0.273c0.738-0.338,3.092-2.327,3.684-2.998
	C339.715,126.987,340.406,123.744,339.224,121.868"/>
<path fill="#7B532D" d="M298.281,79.924c-11.727,0-20.301,3.403-25.498,10.124c-7.254,9.385-6.979,23.72-4.299,34.013
	c0.817,3.149,1.234,11.625,1.802,14.742c2.527,13.917,17.885,21.327,27.995,21.327c0.088,0,0.188-0.014,0.268-0.014V79.933
	C298.46,79.933,298.38,79.924,298.281,79.924"/>
<path fill="#966439" d="M323.728,90.06c-5.155-6.672-13.636-10.072-25.179-10.127v80.184c11.555-0.127,25.35-8.246,27.722-21.315
	c0.571-3.116,0.991-11.596,1.803-14.741C330.745,113.798,331.007,99.479,323.728,90.06"/>
<path fill="#231F20" d="M264.133,96.938c0,0,1.248-20.394,7.775-22.482c6.532-2.093,19.341-6.509,29.543-4.131
	c10.725,2.492,29.596,5.588,31.729,23.501c1.04,8.733-0.752,27.032-0.752,27.032s-0.181-8.996-7.019-14.592
	c-6.848-5.598-14.614-12.103-28.001-11.18C284.039,96.006,264.133,96.938,264.133,96.938"/>
<path fill="#0B0B0B" d="M210.911,134.534c0,0-2.842,3.043-6.351,3.043c-3.515,0-6.198-2.98-6.198-2.98s2.684-0.46,6.198-0.46
	C208.068,134.137,210.911,134.534,210.911,134.534"/>
<path fill="#361213" d="M155.758,441.754c-2.345,0-4.685-0.762-7.082-1.616c-1.313-0.466-2.15-1.332-2.468-2.589
	c-0.941-3.666,3.473-9.437,5.337-11.539c0.835-0.937,14.81-2.402,14.81-2.402s0.887,3.262,0.84,4.204
	c-0.069,1.486-0.333,1.828-0.822,2.335c-0.465,0.477-0.728,1.045-1.299,2.867C163.253,438.894,160.198,441.754,155.758,441.754"/>
<path fill="#361213" d="M183.434,441.743c-4.492,0-7.584-2.845-9.426-8.687c-0.577-1.793-0.942-2.472-1.408-2.948
	c-0.503-0.509-0.72-0.783-0.794-2.268c-0.042-0.938,0.969-4.217,0.969-4.217s14.232,1.521,15.069,2.455
	c1.885,2.077,6.188,7.798,5.258,11.449c-0.326,1.269-1.166,2.144-2.505,2.609C188.178,440.984,185.811,441.743,183.434,441.743"/>
<path fill="#7B532D" d="M169.378,128.563v132.032l-2.488-1.001c0,0-0.053,43.413-0.111,66.474
	c-0.012,6.031-0.022,10.672-0.034,12.773c-0.062,10.163-0.528,65.703-0.846,76.314c-0.132,4.997,0.846,10.69,0.729,12.9
	c-0.125,2.476-1.406,1.321-2.583,4.779c-3.451,10.123-10.616,8.022-15.995,6.287c-5.367-1.735-0.418-9.568,2.373-12.432
	c2.794-2.859,7.071-9.429,6.826-17.482c-0.29-9.778-7.863-41.349-7.695-47.216c0.163-5.858,5.584-17.048,5.815-22.53
	c0.175-3.954-0.417-8.492-1.486-13.395c-4.43-20.444-17.06-47.382-17.075-65.773c-0.009-8.387,1.216-14.816,3.111-20.237
	c2.515-7.231,6.204-12.67,9.645-18.566c0.989-1.69,1.948-3.417,2.857-5.238c6.468-12.909-2.984-18.339-7.288-25.687
	c-1.189-2.019-1.81-4.318-2.091-6.575c-0.741-5.965,0.89-11.718,0.89-11.718l5.775,0.025L169.378,128.563z"/>
<path fill="#966439" d="M188.686,426.651c2.789,2.853,7.743,10.7,2.367,12.432c-5.368,1.737-12.531,3.836-15.985-6.298
	c-1.176-3.457-2.457-2.3-2.583-4.774c-0.112-2.195,0.866-7.901,0.719-12.899c-0.296-10.606-0.766-66.157-0.831-76.309
	c-0.023-2.101-0.026-6.716-0.047-12.739c-0.053-23.049-0.096-66.508-0.096-66.508l-2.656,1.076l-0.203-0.037V128.563l17.976,43.699
	l7.839-0.025c0,0,1.964,6.917,0.599,13.458c-0.35,1.68-0.921,3.326-1.801,4.822c-4.308,7.353-13.761,12.783-7.283,25.699
	c0.911,1.836,1.885,3.571,2.875,5.273c3.112,5.343,6.431,10.292,8.898,16.581c2.286,5.818,3.842,12.768,3.833,22.188
	c-0.023,18.405-12.663,45.363-17.087,65.804c-1.057,4.9-1.65,9.417-1.481,13.353c0.245,5.48,5.653,16.667,5.828,22.537
	c0.164,5.861-7.406,37.441-7.697,47.224C181.614,417.225,185.896,423.792,188.686,426.651"/>
<path fill="#374920" d="M202.306,260.255c-0.023,18.41-12.663,45.368-17.087,65.809h-12.893
	c-0.049-23.049-0.096-65.645-0.096-65.645s-1.101,0.34-2.751,0.355c-1.467,0.016-2.588-0.321-2.588-0.321s-0.06,42.562-0.111,65.61
	h-12.895c-4.434-20.44-17.06-47.378-17.075-65.765c-0.009-8.396,1.216-14.821,3.124-20.247c2.508-7.23,6.192-12.666,9.633-18.562
	h40.004c3.118,5.338,6.437,10.292,8.904,16.581C200.762,243.89,202.315,250.839,202.306,260.255"/>
<path fill="#966439" d="M209.376,217.646c-0.017-0.266-0.037-0.514-0.059-0.768c-0.01-0.069-0.021-0.149-0.021-0.213
	c-0.016-0.185-0.038-0.365-0.047-0.539c-0.033-0.322-0.053-0.631-0.075-0.917c-0.031-0.235-0.047-0.468-0.063-0.676
	c-0.011-0.111-0.021-0.205-0.026-0.291c-0.016-0.232-0.037-0.438-0.058-0.612c0-0.058-0.012-0.112-0.012-0.165
	c-0.03-0.276-0.042-0.466-0.052-0.549c0.063-11.504-0.921-20.629-2.52-27.87c-1.006-4.521-2.244-8.304-3.621-11.48
	c-2.635-6.855-6.457-11.041-9.946-13.587c-4.63-3.372-8.665-3.848-8.665-3.848c-2.096,0-3.493-2.614-4.435-6.589
	c-0.075-0.334-0.158-0.677-0.227-1.028c-0.101-0.507-0.195-1.015-0.276-1.561v-0.026c-0.195-1.239-0.343-2.541-0.493-3.922
	c-0.083-0.778-0.159-1.588-0.245-2.388c-0.315-4.027-0.417-8.378-0.417-12.528c0,0-4.843,0.476-8.743,0.476l22.712,55.243
	l2.222,1.801l0.523,3.128l4.919,29.556l0.058,0.651l0.408,5.478c0,0-0.667,7.124-0.81,14.811c-0.037,2.06,3.356,14.079,2.546,19.192
	c-0.677,4.139-6.5,11.237-8.797,14.943c-2.297,3.699,4.308,6.987,8.617,5.89c4.308-1.096,7.474-6.44,9.052-18.371
	C212.06,251.622,210.249,227.814,209.376,217.646"/>
<path fill="#5E1C20" d="M198.473,238.071c-3.891,5.61-10.375,9.285-17.716,9.285h-24.672c-6.435,0-12.216-2.827-16.159-7.3
	c3.234-9.31,8.41-15.641,12.497-23.804c6.463-12.909-2.99-18.334-7.288-25.687c-1.189-2.019-1.81-4.316-2.091-6.575
	c3.626-2.769,8.147-4.404,13.042-4.404h24.672c5.843,0,10.696,2.249,14.571,6.035c0.137,1.74-0.466,3.4-1.346,4.896
	c-4.308,7.353-13.761,12.783-7.288,25.694C190.485,223.797,195.217,229.787,198.473,238.071"/>
<path fill="#7B532D" d="M111.529,213.056c2.117,2.918,22.581,38.74,26.189,39.643c3.611,0.896,6.319,0,7.221,4.516
	c0.909,4.511,6.022,11.743,9.029-1.506c3.007-13.249,1.207-12.344-2.107-13.249c-3.315-0.9-15.126-3.686-15.126-3.686
	s-11.096-21.499-12.206-26.889c-0.016-0.073-0.033-0.152-0.042-0.223c-0.032-0.104-0.032-0.205-0.042-0.302
	c-0.012-0.073-0.022-0.131-0.012-0.189c0-0.132,0.021-0.233,0.042-0.314c0.435-1.167,9.474-13.605,18.685-26.137
	c0.82-1.127,1.657-2.265,2.488-3.391l23.722-52.767h-0.074c-3.895,0-8.722-0.471-8.722-0.471c0,4.166-0.105,8.575-0.434,12.624
	c-0.076,0.825-0.153,1.63-0.223,2.434c-0.126,1.329-0.295,2.616-0.508,3.822c-0.096,0.736-0.222,1.409-0.369,2.064
	c-0.054,0.234-0.106,0.455-0.156,0.672c-0.931,3.896-2.308,6.42-4.366,6.42c0,0-3.123,0.371-6.993,2.709
	c-0.269,0.158-0.533,0.329-0.798,0.509c-1.217,0.804-2.488,1.805-3.747,3.049c-1.255,1.227-2.509,2.704-3.673,4.466
	c-3.737,4.191-8.892,10.439-15.493,19.463c-9.289,12.681-12.603,19.066-13.132,22.776"/>
<path fill="#361213" d="M161.538,437.126c-3.096-2.486-6.267-3.794-9.434-3.748c-4.942,0.066-6.413,1.983-6.413,1.983
	c0.122-0.92,0.042-0.912,0.295-1.707c0.36-1.171,0.678-1.5,0.678-1.5c1.203-0.56,3.008-1.16,5.522-1.16
	c3.7,0,7.353,1.422,10.85,4.243l0.249,0.194l-0.18,0.264c-0.323,0.485-0.698,0.962-1.1,1.393l-0.221,0.232L161.538,437.126z"/>
<path fill="#361213" d="M177.163,437.627c-0.409-0.424-0.782-0.908-1.113-1.395l-0.167-0.262l0.243-0.194
	c3.503-2.816,7.155-4.246,10.854-4.246c2.51,0,5.808,1.298,5.808,1.298s0.55,0.668,0.656,2.049c0.027,0.275,0,1.106,0,1.106
	s-1.254-2.062-6.384-2.062c-3.166-0.006-6.341,1.258-9.431,3.745l-0.254,0.197L177.163,437.627z"/>
<path fill="#563B20" d="M179.364,146.909v0.025c-0.889,1.419-3.947,5.452-10.004,5.452h-0.058c-5.755-0.026-9.1-4.208-9.962-5.432
	c0.202-1.211,0.376-2.507,0.502-3.847c0.075-0.82,0.155-1.63,0.222-2.467c2.818,0.709,5.868,1.143,9.137,1.191h0.101
	c3.35-0.048,6.431-0.502,9.331-1.287c0.075,0.805,0.153,1.625,0.232,2.403C179.011,144.352,179.164,145.666,179.364,146.909"/>
<path fill="#361219" d="M153.863,156.198v15.408h-1.069V156.5C153.173,156.346,153.518,156.32,153.863,156.198"/>
<path fill="#361219" d="M185.843,156.437v15.166h-1.059v-15.378C185.102,156.352,185.483,156.335,185.843,156.437"/>
<path fill="#5E1C20" d="M185.345,167.646c-0.037,0.16-5.23,7.221-13.829,9.25c-0.313,0.074-1.346,0.074-2.245,0.056
	c-0.897,0.018-1.911,0.018-2.229-0.056c-8.532-2.029-13.677-9.09-13.72-9.25c-4.232,3.398-12.195,11.711-9.749,19.104l25.698,0.132
	l26.046-0.165C196.973,179.091,189.624,171.044,185.345,167.646"/>
<path fill="#951A37" d="M193.941,163.152c0.682-1.439,1.239-2.789,0.53-3.392c-0.806-0.678-2.286,0.391-3.754,1.434
	c-0.608-2.075-0.677-5.395-2.111-5.483c-1.577-0.112-2.044,3.89-3.113,5.712c-1.525-1.387-3.166-3.294-4.218-2.631
	c-0.8,0.492-0.435,1.932,0.033,3.461c-1.764-0.228-3.51-0.455-3.891,0.498c-0.529,1.318,2.34,2.79,3.958,4.224
	c-1.598,1.373-5.483,2.52-5.101,4.065c0.3,1.223,2.847,0.985,4.921,1.071c-0.688,1.458-1.269,2.861-0.55,3.475
	c0.804,0.663,2.244-0.38,3.684-1.424c0.572,2.092,0.636,5.313,2.044,5.42c1.608,0.116,2.085-3.982,3.196-5.765
	c1.545,1.388,3.219,3.32,4.277,2.651c0.783-0.496,0.444-1.884-0.022-3.371c1.72,0.238,3.419,0.451,3.802-0.486
	c0.545-1.325-2.373-2.836-3.976-4.288c1.561-1.403,5.51-2.583,5.128-4.146C198.468,162.983,195.995,163.206,193.941,163.152"/>
<path fill="#ED204B" d="M190.866,167.646c0,1.849-1.498,3.341-3.339,3.341c-1.854,0-3.347-1.492-3.347-3.341
	c0-1.852,1.494-3.345,3.347-3.345C189.368,164.301,190.866,165.794,190.866,167.646"/>
<path fill="#563B20" d="M169.355,70.07c-31.61-0.058-31.795,25.343-30.389,41.905c-2.162-3.886-8.574-2.446-8.054,3.784
	c0.508,5.954,9.568,8.659,9.443,8.003c2.581,13.497,17.482,20.987,29,22.056c0.08,0.006,0.169,0,0.238,0.01V70.081
	C169.52,70.081,169.435,70.07,169.355,70.07"/>
<path fill="#332214" d="M132.506,113.123c1.582-2.408,4.028-1.364,4.631-0.841c0.64,0.583,1.143,1.344,0.751,2.768
	c-0.222,0.799-1.111,0.863-0.899,2.081c0.232,1.365,0.91,1.45,1.291,1.762c0.372,0.313,0.849,0.551,1.082,1.122
	c0.222,0.583,0.273,1.202,0.137,1.72c-0.244,0.986-1.753,0.207-2.763-0.232c-0.667-0.286-2.786-1.984-3.32-2.562
	C132.065,117.5,131.448,114.728,132.506,113.123"/>
<path fill="#563B20" d="M169.516,70.07c31.613-0.058,31.794,25.343,30.386,41.905c2.169-3.886,8.575-2.446,8.051,3.784
	c-0.505,5.954-9.561,8.659-9.438,8.003c-2.583,13.497-17.482,20.987-28.999,22.056c-0.081,0.006-0.165,0-0.244,0.01V70.081
	C169.351,70.081,169.435,70.07,169.516,70.07"/>
<path fill="#332214" d="M206.59,113.123c-1.585-2.408-4.032-1.364-4.63-0.841c-0.641,0.583-1.148,1.344-0.747,2.768
	c0.223,0.799,1.111,0.863,0.889,2.081c-0.233,1.365-0.911,1.45-1.281,1.762c-0.377,0.313-0.852,0.551-1.084,1.122
	c-0.227,0.583-0.27,1.202-0.144,1.72c0.245,0.986,1.758,0.207,2.763-0.232c0.667-0.286,2.79-1.984,3.326-2.562
	C207.037,117.5,207.65,114.728,206.59,113.123"/>
<path fill="#7B532D" d="M169.191,77.258c-10.559,0-18.281,2.911-22.96,8.66c-6.531,8.018-6.279,20.281-3.87,29.074
	c0.736,2.693,1.111,9.939,1.62,12.608c2.282,11.897,16.106,18.233,25.21,18.233c0.081,0,0.16-0.005,0.244-0.005v-68.56
	C169.351,77.269,169.271,77.258,169.191,77.258"/>
<path fill="#966439" d="M192.099,85.928c-4.636-5.706-12.279-8.611-22.664-8.665v68.565c10.395-0.111,22.824-7.055,24.962-18.235
	c0.508-2.657,0.889-9.908,1.625-12.602C198.418,106.222,198.653,93.979,192.099,85.928"/>
<path fill="#643336" d="M174.75,135.073c0,0-2.382,2.562-5.325,2.562c-2.944,0-5.188-2.502-5.188-2.502s2.244-0.387,5.188-0.387
	C172.368,134.746,174.75,135.073,174.75,135.073"/>
<path fill="#75383C" d="M170.933,133.904c-0.832,0-1.498,0.513-1.508,1.154c-0.022-0.641-0.683-1.154-1.503-1.154
	c-0.847,0-3.822,1.169-3.822,1.169s2.911,0.317,3.741,0.317c0.827,0,1.562,0.323,1.584-0.295c0.01,0.618,0.613,0.38,1.438,0.38
	c0.832,0,3.886-0.402,3.886-0.402S171.764,133.904,170.933,133.904"/>
<path fill="#BFAA6F" d="M200.806,111.683c-0.656,0.625-1.402,1.434-1.9,2.743c-1.027,2.646-1.418,2.186-1.418,2.186
	s1.62-10.37,1.62-13.253c0-2.869-9.253-15.52-14.408-17.24c-5.188-1.694-9.951,1.873-15.499,1.873h-0.433
	c-5.448-0.115-10.147-3.551-15.245-1.873c-5.156,1.72-14.396,14.371-14.396,17.24c0,2.884,1.614,13.253,1.614,13.253
	s-0.399,0.46-1.425-2.186c-0.586-1.545-1.529-2.419-2.275-3.049c-1.375-17.976-0.582-44.457,31.812-44.457h0.168
	C201.596,66.92,202.232,93.708,200.806,111.683"/>
<path fill="#951A37" d="M140.567,133.723c0,0.598-0.446,1.08-0.995,1.08c-0.551,0-0.996-0.482-0.996-1.08
	c0-0.587,0.444-1.074,0.996-1.074C140.122,132.649,140.567,133.136,140.567,133.723"/>
<path fill="#951A37" d="M140.567,131.57c0,0.592-0.446,1.08-0.995,1.08c-0.551,0-0.996-0.487-0.996-1.08
	c0-0.593,0.444-1.075,0.996-1.075C140.122,130.495,140.567,130.977,140.567,131.57"/>
<path fill="#951A37" d="M140.567,129.415c0,0.597-0.446,1.08-0.995,1.08c-0.551,0-0.996-0.483-0.996-1.08
	c0-0.598,0.444-1.075,0.996-1.075C140.122,128.34,140.567,128.817,140.567,129.415"/>
<path fill="#951A37" d="M140.567,127.26c0,0.598-0.446,1.08-0.995,1.08c-0.551,0-0.996-0.482-0.996-1.08
	c0-0.593,0.444-1.074,0.996-1.074C140.122,126.187,140.567,126.667,140.567,127.26"/>
<path fill="#951A37" d="M140.567,125.107c0,0.593-0.446,1.08-0.995,1.08c-0.551,0-0.996-0.487-0.996-1.08s0.444-1.075,0.996-1.075
	C140.122,124.032,140.567,124.514,140.567,125.107"/>
<path fill="#951A37" d="M140.25,123.228c0,0.408-0.308,0.741-0.677,0.741c-0.376,0-0.678-0.333-0.678-0.741
	c0-0.402,0.302-0.736,0.678-0.736C139.942,122.492,140.25,122.826,140.25,123.228"/>
<polygon fill="#FBCC0A" points="139.573,133.723 141.149,136.931 144.691,137.444 142.127,139.942 142.738,143.463 139.573,141.8 
	136.406,143.463 137.004,139.942 134.448,137.444 137.994,136.931 "/>
<path fill="#951A37" d="M200.124,133.93c0,0.599-0.445,1.081-0.996,1.081c-0.548,0-0.996-0.482-0.996-1.081
	c0-0.593,0.447-1.08,0.996-1.08C199.678,132.85,200.124,133.337,200.124,133.93"/>
<path fill="#951A37" d="M200.124,131.776c0,0.598-0.445,1.074-0.996,1.074c-0.548,0-0.996-0.476-0.996-1.074
	c0-0.594,0.447-1.075,0.996-1.075C199.678,130.702,200.124,131.182,200.124,131.776"/>
<path fill="#951A37" d="M200.124,129.622c0,0.599-0.445,1.08-0.996,1.08c-0.548,0-0.996-0.481-0.996-1.08
	c0-0.593,0.447-1.074,0.996-1.074C199.678,128.548,200.124,129.029,200.124,129.622"/>
<path fill="#951A37" d="M200.124,127.467c0,0.599-0.445,1.081-0.996,1.081c-0.548,0-0.996-0.482-0.996-1.081
	c0-0.587,0.447-1.074,0.996-1.074C199.678,126.394,200.124,126.88,200.124,127.467"/>
<path fill="#951A37" d="M200.124,125.318c0,0.593-0.445,1.075-0.996,1.075c-0.548,0-0.996-0.482-0.996-1.075
	c0-0.599,0.447-1.085,0.996-1.085C199.678,124.233,200.124,124.72,200.124,125.318"/>
<path fill="#951A37" d="M199.805,123.434c0,0.408-0.306,0.742-0.677,0.742c-0.375,0-0.678-0.334-0.678-0.742
	c0-0.402,0.303-0.735,0.678-0.735C199.499,122.699,199.805,123.032,199.805,123.434"/>
<polygon fill="#FBCC0A" points="199.128,133.723 200.706,136.931 204.251,137.444 201.689,139.942 202.293,143.463 199.128,141.8 
	195.958,143.463 196.566,139.942 194.004,137.444 197.546,136.931 "/>
<path fill="#E1BD9A" d="M231.654,284.039c0,0.27,0,0.849-0.013,1.711c-0.022,1.509-0.056,3.826-0.103,6.604
	c-0.183,10.271-0.597,26.773-1.171,31.233c-0.844,6.633-3.373,27.654-3.373,27.654s0.366,3.632,0.745,7.962
	c0.47,5.429,0.953,11.982,0.724,13.927c-1.125,10.146-1.359,20.086-1.359,20.086s-0.672,18.931-0.639,25.92
	c0.55,0.32,0.908,0.858,0.908,1.462c0,0.54-0.294,1.014-0.729,1.339c0.142,0.705,0.35,1.493,0.59,2.323
	c0.424,1.419,0.963,2.956,1.458,4.421c0.299,0.864,0.58,1.709,0.815,2.488c0.523,1.729,0.825,3.14,0.596,3.81
	c-0.28,0.793-1.974,2.441-1.974,2.441s0.839,8.094-2.753,10.771c-3.604,2.678-11.351,4.068-18.926,1.378
	c-7.598-2.695,0.953-8.077,1.796-11.604c0.454-1.932,1.383-3.786,2.232-5.472v-0.005c0.716-1.405,1.389-2.679,1.705-3.769
	c0,0,0.005-0.03,0.005-0.039c0.224-0.771,0.368-1.896,0.469-3.131c0.249-2.949,0.265-6.545,0.505-7.584
	c2.297-9.808-7.688-25.449-6.505-44.927c0.321-5.187,0.976-9.507,1.589-13.06c0.075-0.506,0.131-0.776,0.131-0.776
	c0.666-3.876,1.228-6.81,1.119-9.008c-0.372-7.441-3.312-18.053-4.734-28.504c-1.376-10.006-3.414-31.944-2.34-41.572l-0.035-0.006
	c0.035-0.145,0.045-0.299,0.067-0.436c0.942-6.17,1.836-10.128,2.141-11.42c0.074-0.316,0.11-0.471,0.11-0.471
	s0.01-3.535,0.854-5.785c0.024-0.072,0.051-0.137,0.075-0.221c0.374-1.062,1.205-3.72,2.112-6.688
	c0.069-0.241,0.15-0.487,0.235-0.734c0.005-0.052,0.024-0.097,0.035-0.15l0.006-0.021c0.011,0.046,0.034,0.104,0.045,0.148
	c0.384,1.626,1.032,3.215,1.941,4.574c1.383,2.105,3.596,3.311,5.738,4.465c1.41,0.771,2.729,1.497,3.671,2.408
	c1.378,1.338,3.856,5.264,5.754,8.776c0.937,1.728,1.74,3.356,2.205,4.516c0.201,0.511,0.361,0.929,0.481,1.221
	C228.647,282.249,229.295,283.533,231.654,284.039"/>
<path fill="#F0D1AC" d="M257.212,437.965c0.838,3.527,9.394,8.909,1.802,11.604c-7.585,2.695-15.322,1.3-18.925-1.375
	c-3.593-2.673-2.765-10.774-2.765-10.774s-1.688-1.644-1.973-2.435c-0.208-0.603,0.021-1.802,0.451-3.294l0.005-0.036
	c0.258-0.912,0.598-1.922,0.953-2.975c0.5-1.465,1.034-3.002,1.463-4.421c0.249-0.83,0.455-1.623,0.593-2.323
	c-0.437-0.325-0.724-0.804-0.724-1.339c0-0.596,0.35-1.142,0.901-1.451c0.04-6.993-0.637-25.937-0.637-25.937
	s-0.241-9.934-1.36-20.082c-0.396-3.502,1.463-21.882,1.463-21.882s-2.524-21.019-3.373-27.659
	c-0.569-4.469-0.988-21.042-1.171-31.309c-0.046-2.73-0.081-5.025-0.091-6.52v-0.009c-0.017-0.856-0.017-1.446-0.017-1.711
	c2.358-0.506,3.007-1.79,3.792-3.736c0.115-0.299,0.275-0.717,0.482-1.223c0.47-1.169,1.262-2.788,2.203-4.516
	c1.899-3.522,4.379-7.443,5.761-8.781c0.93-0.911,2.262-1.633,3.673-2.402c2.134-1.165,4.35-2.365,5.75-4.471
	c0.889-1.359,1.539-2.948,1.922-4.566c0.006-0.008,0.006-0.013,0.006-0.036c0.023-0.035,0.023-0.086,0.034-0.12
	c0.092,0.304,0.19,0.614,0.288,0.914c0.899,2.953,1.732,5.623,2.1,6.68c0.035,0.089,0.059,0.153,0.08,0.221
	c0.839,2.25,0.849,5.785,0.849,5.785s0.04,0.159,0.115,0.471c0.266,1.126,0.976,4.276,1.779,9.146
	c0.148,0.851,0.288,1.75,0.424,2.705l-0.021,0.011c1.066,9.636-0.965,31.566-2.343,41.58c-1.429,10.448-4.36,21.055-4.74,28.496
	c-0.219,4.297,2.139,11.454,2.841,22.844c1.18,19.478-8.804,35.113-6.515,44.927c0.253,1.101,0.264,5.009,0.552,8.021
	c0.098,1.062,0.241,2.017,0.425,2.693c0,0.009,0.01,0.032,0.01,0.032c0.352,1.178,1.079,2.541,1.843,4.057
	C255.927,434.371,256.786,436.146,257.212,437.965"/>
<g>
	<defs>
		<path id="SVGID_6_" d="M231.045,285.627c0.171,0.035,0.345,0.071,0.51,0.071c0.854,0.096,1.532,0.078,1.987,0.068
			c0.464-0.012,0.704-0.012,0.704-0.012s-0.24-0.012-0.704-0.033c-0.224-0.013-0.505-0.023-0.844-0.036
			c-0.328-0.028-0.7-0.104-1.119-0.155c-0.173,0-0.351-0.04-0.523-0.085L231.045,285.627z"/>
	</defs>
	<clipPath id="SVGID_7_">
		<use xlink:href="#SVGID_6_"  overflow="visible"/>
	</clipPath>
	
		<linearGradient id="SVGID_8_" gradientUnits="userSpaceOnUse" x1="-128.4746" y1="671.3516" x2="-122.5803" y2="671.3516" gradientTransform="matrix(4.521 0 0 -4.521 788.4375 3320.8203)">
		<stop  offset="0" style="stop-color:#FFFFFF"/>
		<stop  offset="1" style="stop-color:#211915"/>
	</linearGradient>
	<rect x="231.045" y="285.445" clip-path="url(#SVGID_7_)" fill="url(#SVGID_8_)" width="3.201" height="0.349"/>
</g>
<path fill="#E1BD9A" d="M232.698,169.999v115.768c-0.08,0-0.16,0-0.264-0.012c-0.121,0-0.241,0-0.345-0.005h-0.454
	c-0.374-0.014-0.579-0.014-0.579-0.014l0.052-0.132c-0.263-0.057-0.533-0.132-0.832-0.19c-0.241-0.101-0.494-0.222-0.745-0.344
	c-0.264-0.137-0.483-0.354-0.724-0.545c-0.878-0.917-1.321-2.231-1.906-3.562c-0.826-1.952-1.755-4.132-2.823-6.434
	c-0.4-0.885-0.838-1.791-1.273-2.703c-0.792-1.617-1.677-3.35-2.75-4.802c-0.152-0.184-0.315-0.363-0.481-0.539
	c-0.13-0.122-0.328-0.293-0.499-0.421c-0.368-0.281-0.758-0.543-1.17-0.79c-0.816-0.502-1.688-0.93-2.547-1.4
	c-1.735-0.935-3.5-1.944-4.798-3.546c-1.183-1.59-1.962-3.409-2.363-5.227c-0.013-0.013-0.013-0.018-0.013-0.03
	c-0.057-0.241-0.104-0.477-0.137-0.717c-0.013-0.054-0.023-0.092-0.023-0.146c-0.265-1.548-0.265-3.079,0.096-4.556
	c0.132-0.405,0.269-0.809,0.408-1.198c0.138-0.38,0.274-0.741,0.424-1.109c0.254-0.74,0.471-1.474,0.689-2.173
	c0.396-1.396,0.758-2.691,1.068-3.84c0.264-1.016,0.459-2.18,0.459-2.276c0,0.004,0,0.009,0,0.027
	c-0.058-7.471-0.822-18.105-0.822-18.105c-1.646-3.22-3.913-10.324-5.234-14.73c-0.681-2.239-1.124-3.787-1.124-3.787
	s0.109-0.884,0.304-2.366c0.734-5.255,2.697-18.047,5.504-24.848c1.291-3.143,4.43-4.643,7.907-5.286
	c6.157-1.111,13.366,0.461,13.366,0.461C231.631,170.251,232.181,170.125,232.698,169.999"/>
<path fill="#F0D1AC" d="M253.993,237.017c-0.006,0.478-0.006,0.944-0.018,1.402c0.208,0.81,0.459,1.785,0.753,2.897
	c0.31,1.149,0.67,2.438,1.073,3.851c0.212,0.689,0.43,1.422,0.689,2.163c0.137,0.368,0.274,0.727,0.411,1.103
	c0.14,0.4,0.283,0.798,0.415,1.203c0.354,1.476,0.354,3.009,0.096,4.552c0,0.04-0.005,0.085-0.017,0.12c0,0.023,0,0.028-0.012,0.036
	c-0.034,0.24-0.08,0.469-0.125,0.712c0,0.01,0,0.01-0.012,0.016v0.013c-0.415,1.818-1.193,3.637-2.364,5.227
	c-1.309,1.602-3.082,2.611-4.804,3.55c-0.854,0.462-1.738,0.902-2.542,1.392c-0.413,0.25-0.809,0.516-1.17,0.79
	c-0.173,0.132-0.374,0.312-0.504,0.425c-0.156,0.186-0.334,0.357-0.483,0.54c-1.079,1.451-1.952,3.187-2.753,4.811
	c-0.415,0.861-0.822,1.714-1.194,2.551c-1.091,2.354-2.05,4.575-2.905,6.576c-0.585,1.327-1.021,2.656-1.899,3.562
	c-0.247,0.197-0.464,0.408-0.717,0.558c-0.257,0.109-0.505,0.231-0.756,0.334c-0.299,0.057-0.574,0.137-0.838,0.2l0.068,0.156
	c0,0-0.189,0-0.562,0.004h-0.144c-0.097,0-0.207,0-0.327,0.008c-0.183,0-0.414,0-0.648-0.008V170.004
	c3.058-0.717,5.525-0.763,7.512-0.373c1.709-0.091,3.625-0.104,5.502,0.104c4.126,0.431,8.107,1.872,9.624,5.514
	c3.103,7.552,4.555,22.485,4.889,26.299c0.046,0.592,0.08,0.914,0.08,0.914s-0.563,2.485-1.378,5.704
	c-1.113,4.339-2.726,10.037-4.156,12.813c0,0-0.629,8.82-0.785,16.034V237.017z"/>
<path d="M233.806,289.456L233.806,289.456z"/>
<path fill="#E1BD9A" d="M232.559,141.646v62.658h-34.062c-0.551-0.236-0.838-0.358-0.838-0.358
	c0-33.608,20.853-36.117,20.853-36.117c2.077,0,3.42-2.674,4.304-6.743c0.139-0.613,0.259-1.261,0.356-1.956
	c0.188-1.148,0.356-2.364,0.482-3.633c0.069-0.762,0.136-1.526,0.206-2.312c0.31-3.85,0.408-8.027,0.408-11.994
	C224.269,141.191,228.853,141.646,232.559,141.646"/>
<path fill="#F0D1AC" d="M267.582,203.946c0,0-0.312,0.122-0.809,0.358h-34.214v-62.658h0.07c3.707,0,8.321-0.455,8.321-0.455
	c0,3.943,0.091,8.075,0.401,11.891c0.068,0.774,0.148,1.539,0.213,2.272c0.144,1.314,0.286,2.56,0.476,3.729v0.024
	c0.075,0.521,0.172,0.997,0.269,1.479c0.879,4.328,2.263,7.242,4.419,7.242C246.728,167.829,267.582,170.337,267.582,203.946"/>
<path d="M258.809,335.214c-1.104,5.574-1.998,19.561-1.425,22.853c0.678,3.921,1.526,8.815,1.906,14.943
	c0.631,10.487-1.883,19.679-4.109,27.788c-0.712,2.627-1.158,7.151-1.401,11.815c-0.067,1.188,0.953,3.429,0.919,4.616
	c-0.036,1.138-0.879,1.305-0.597,2.479c0.366,1.523-0.587,2.773-0.574,3.943c0,1.097,1.18,2.193,0.939,2.91
	c-0.035,0.065-0.045,0.146-0.085,0.223c-0.339,0.93-0.718,1.499-0.649,1.745l1.298,4.239c0,0-3.741,0.822-5.004,0.844
	c-3.616,0.059-14.318-1.912-14.318-1.912l0.006-0.031l0.643-3.839c0.081-0.256-0.368-0.823-0.712-1.958
	c-0.155-0.507,0.264-0.959,0.562-1.595c0.126-0.301,0.241-0.649,0.254-1.047c0.032-0.943-0.622-2.647-0.189-4.026
	c0.302-0.992-0.099-1.302-0.081-2.185c0.022-1.351,0.729-3.479,0.745-4.971c0.178-13.838,0.081-32.635-0.603-38.851
	c-0.401-3.447-1.095-43.144-1.917-49.531c-0.688-5.395-1.101-27.085-1.175-31.372c-0.042-2.404-0.075-4.471-0.087-5.939h-0.052
	c-0.167,0-0.337,0-0.51-0.005h-0.036c-0.08,0-0.16,0-0.264-0.012h-0.177c-0.012,1.485-0.047,3.58-0.087,6.031
	c-0.081,4.291-0.487,25.983-1.181,31.297c-0.598,4.71-1.729,58.211-2.009,86.651c-0.013,1.478-0.023,2.884-0.035,4.22
	c0,0.396,0.459,1.532,0.929,2.917c0.471,1.369-0.241,2.914-0.241,4.251c-0.013,1.003,0.265,1.865,0.458,2.571
	c0.179,0.595,0.299,1.096,0.162,1.5c-0.54,1.527-1.263,1.839-1.188,2.058l0.494,3.339c0,0-9.669,2.426-12.964,2.438
	c-1.543,0-6.059-1.112-6.059-1.112v-0.008l0.241-3.798c0.091-0.332,0.43-1.091,0.178-2.399c-0.012-0.096-0.042-0.21-0.063-0.313
	c-0.185-0.745,0.993-3,0.988-4.194c-0.013-1.3-0.753-2.022-0.403-3.892c0.19-0.976,0.31-1.896,0.288-2.668
	c-0.059-1.429-0.128-2.88-0.229-4.293c-0.253-4.039-0.672-7.834-1.298-10.138c-2.226-8.109-4.745-17.301-4.109-27.788
	c0.373-6.128,1.228-11.018,1.906-14.943c0.573-3.292-0.323-17.28-1.423-22.86c-0.862-4.365-1.757-8.881-2.376-13.427
	c-1.188-8.66-3.408-30.838-2.398-41.24l-0.029-0.022l0.057-0.494c0,0,0.052-0.361,0.076-0.431c0.871-5.789,1.72-9.67,2.139-11.459
	c0.051-0.201,0.085-0.335,0.098-0.414c0.011-0.539,0.081-3.745,0.877-5.911l0.088-0.225c0.336-0.986,1.14-3.534,2.093-6.645
	l0.051-0.177c0.068-0.186,0.127-0.385,0.189-0.58l0.099-0.275l0.361-0.12l0.051-0.012c0.047,0,0.093-0.005,0.127-0.005
	c0.769-0.104,1.618-0.155,2.518-0.155h47.275l0.404,1.319c0.953,3.133,1.763,5.681,2.103,6.655l0.079,0.214
	c0.805,2.171,0.874,5.372,0.879,5.916c0.017,0.079,0.052,0.213,0.098,0.414c0.344,1.451,1.032,4.567,1.797,9.197
	c0.13,0.839,0.28,1.745,0.417,2.707l0.076,0.479l-0.051,0.022c1.021,10.402-1.207,32.58-2.396,41.252
	C260.563,326.325,259.668,330.841,258.809,335.214"/>
<path fill="#1B1C1C" d="M229.903,424.278c0.173,0.648,0.304,1.176,0.155,1.61c-0.54,1.656-1.25,1.985-1.176,2.222l0.487,3.599
	c0.517,1.851,0.828,3.391,0.598,4.115c-0.288,0.854-1.974,2.616-1.974,2.616s0.826,8.727-2.75,11.615
	c-3.586,2.885-11.303,4.384-18.862,1.481c-2.927-1.128-3.132-4.771-3.132-4.771s4.418-5.405,4.924-7.73
	c0.459-2.076,1.383-4.085,2.238-5.89v-0.013l0.24-4.104c0.099-0.344,0.437-1.165,0.184-2.584c0.574-0.286,1.148-0.557,1.744-0.79
	c2.228-0.889,4.638-1.377,7.162-1.377H229.903z"/>
<path fill="#0C0D0D" d="M214.806,451.198c-2.903,0-5.774-0.498-8.505-1.469c-1.801-0.635-2.823-1.459-3.133-2.517
	c-0.504-1.75,1.056-3.74,2.577-5.681c1.026-1.309,2.002-2.547,2.243-3.597c0.482-2.015,1.503-4.039,2.249-5.51l0.23-3.745
	l0.058-0.178c0.12-0.368,0.345-1.069,0.131-2.171l-0.022-0.132l0.121-0.054c0.585-0.279,1.183-0.531,1.762-0.739
	c2.312-0.866,4.751-1.302,7.236-1.302h10.329l0.035,0.125c0.185,0.634,0.31,1.157,0.16,1.598c-0.355,1.003-0.798,1.515-1.033,1.789
	c-0.069,0.08-0.138,0.169-0.149,0.199l0.494,3.336c0.62,2.056,0.804,3.259,0.584,3.89c-0.264,0.747-1.652,2.146-1.957,2.442
	c0.088,0.903,0.638,8.256-2.829,10.843C222.966,450.129,219.017,451.198,214.806,451.198"/>
<path fill="#1B1C1C" d="M236.381,428.11l-0.492,3.599c-0.517,1.859-0.827,3.386-0.593,4.107c0.283,0.856,1.963,2.624,1.963,2.624
	s-0.82,8.727,2.75,11.615c3.597,2.885,11.303,4.384,18.867,1.474c2.926-1.12,3.128-4.757,3.128-4.757s-4.415-5.412-4.924-7.737
	c-0.454-2.076-1.384-4.085-2.228-5.89v-0.013l-1.612-4c-0.085-0.349,0.93-1.269,1.183-2.68c-0.569-0.3-1.149-0.564-1.745-0.798
	c-2.226-0.889-4.643-1.386-7.161-1.386C245.518,424.27,236.451,427.874,236.381,428.11"/>
<path fill="#0C0D0D" d="M250.474,451.347c-4.227,0-8.198-1.079-10.632-2.887c-3.443-2.562-2.933-10.037-2.863-10.916
	c-0.494-0.385-1.738-1.802-1.952-2.405c-0.206-0.601-0.069-1.661,0.444-3.439l0.635-3.846c0.023-0.088-0.091-0.347-0.182-0.527
	c-0.149-0.32-0.345-0.749-0.518-1.316c-0.139-0.46,0.08-0.859,0.315-1.277c0.098-0.168,0.179-0.324,0.258-0.495l0.046-0.098
	l0.128-0.06h8.326c2.914,0,5.731,0.598,8.372,1.753c0.51,0.223,1.055,0.484,1.652,0.795l0.125,0.071l0.013,0.167
	c-0.162,0.447-0.309,0.764-0.427,1.028c-0.112,0.245-0.251,0.56-0.24,0.649l1.292,4.226c0.821,1.613,1.659,3.364,2.095,5.205
	c0.254,1.038,1.217,2.267,2.237,3.575c1.528,1.947,3.111,3.96,2.588,5.744c-0.31,1.091-1.348,1.936-3.184,2.584
	C256.267,450.85,253.39,451.347,250.474,451.347"/>
<path fill="#F0D1AC" d="M247.595,168.494c0,0,23.338,0,23.068,58.079c0,0,3.316,37.537,1.79,49.954
	c-1.521,12.419-4.557,17.985-8.699,19.119c-4.142,1.147-10.5-2.277-8.287-6.135c2.204-3.854,6.979-11.247,7.621-15.555
	c0.786-5.322-4.138-17.835-4.098-19.983c0.138-7.993,1.607-15.41,1.607-15.41l-0.441-6.383c0,0-3.593-5.802-5.664-13.745
	c-0.963-3.7,1.802-22.116,1.802-22.116L247.595,168.494z"/>
<path fill="#E1BD9A" d="M217.056,168.765c0,0-23.346,0-23.07,58.084c0,0-3.309,37.53-1.79,49.948
	c1.514,12.419,4.556,17.979,8.7,19.121c4.144,1.146,10.502-2.28,8.286-6.135c-2.203-3.853-6.978-11.247-7.621-15.551
	c-0.785-5.325,4.131-17.843,4.099-19.982c-0.139-7.993-1.607-15.419-1.607-15.419l0.448-6.379c0,0,3.586-5.803,5.646-13.74
	c0.977-3.706-1.789-22.128-1.789-22.128L217.056,168.765z"/>
<path fill="#D3D3D3" d="M234.379,321.193l-1.795-111.496l-4.131-37.207l-0.299-0.157l-8.86-4.654c0,0-15.252,0.844-23.545,24.052
	c-8.286,23.209-4.406,85.363-4.406,85.363l11.257-0.613c-0.567-2.664-0.521-6.727,0.408-10.535c0.609-2.439,1.469-5.276,2.279-7.661
	c0.785-2.34,3.746-35.899,3.746-35.899s3.094,4.384,1.068,15.763c-0.563,3.172-3.805,16.922-4.476,18.942
	c-0.787,2.353-3.54,15.658-3.771,20.003h0.035c-0.028,0.286-0.052,0.585-0.08,0.874c-0.053,0.836-0.098,1.656-0.178,2.484
	c-0.005,0.086-0.035,0.146-0.08,0.204c-0.694,8.433-0.718,17.849,0.515,28.207c0.62,5.249,1.028,8.979,1.269,11.585l14.926,0.531
	l10.335,0.363l5.796,0.207L234.379,321.193z"/>
<path fill="#EFEFEF" d="M269.479,191.731c-8.284-23.208-22.786-24.052-22.786-24.052s-3.851,3.874-9.37,4.495
	c-2.708,0.309-6.049,0.291-9.159,0.159c0,0,0,0-0.012,0c-5.251-0.218-9.893-0.78-9.893-0.78v150.058l10.34-0.268h0.035l5.744-0.15
	l27.431-0.701c0.25-2.609,0.681-6.354,1.36-11.628c1.323-10.365,1.153-28.429-0.121-33.583c-0.3-1.212-0.523-2.438-0.759-3.653
	c-0.487-2.468-0.729-5.481-1.349-7.907c-1.215-4.811-5.268-22.559-5.807-25.571c-2.031-11.379,0.762-15.196,0.762-15.196
	s2.778,28.25,2.778,28.577c0.028,5.511,1.313,9.697,3.146,14.892c0.831,2.348,0.545,1.596,1.062,4.021
	c0.241,1.206-0.316,4.602-0.788,5.699l11.288,0.712C273.383,276.854,277.762,214.941,269.479,191.731"/>
<path fill="#D3D3D3" d="M222.771,160.26c0,0-0.481-0.413-1.559,4.671c-0.478,2.261-2.951,2.898-2.951,2.898s2.422,3.379,4.871,4.195
	c5.252,1.75,9.487,0.643,9.487,0.643s-3.18-7.203-3.586-6.853c-0.409,0.356-6.686-2.726-6.387-4.263
	C222.931,160.048,222.771,160.26,222.771,160.26"/>
<path fill="#EFEFEF" d="M242.304,160.26c0,0,0.518-0.413,1.653,4.671c0.518,2.261,2.731,2.755,2.731,2.755s-1.055,2.204-5.429,3.885
	c-5.468,2.087-8.641,1.097-8.641,1.097s2.732-6.973,3.156-6.617c0.435,0.349,6.977-2.961,6.662-4.499
	C242.132,160.048,242.304,160.26,242.304,160.26"/>
<path d="M224.269,278.26c0,0.987-0.798,1.785-1.786,1.785c-0.975,0-1.778-0.798-1.778-1.785c0-0.98,0.804-1.778,1.778-1.778
	C223.47,276.481,224.269,277.279,224.269,278.26"/>
<path d="M223.918,182.692c0,0.98-0.803,1.783-1.778,1.783c-0.988,0-1.786-0.802-1.786-1.783c0-0.988,0.798-1.781,1.786-1.781
	C223.115,180.912,223.918,181.704,223.918,182.692"/>
<path d="M223.918,198.02c0,0.988-0.803,1.778-1.778,1.778c-0.988,0-1.786-0.791-1.786-1.778s0.798-1.778,1.786-1.778
	C223.115,196.242,223.918,197.032,223.918,198.02"/>
<path d="M223.918,215.361c0,0.993-0.803,1.786-1.778,1.786c-0.988,0-1.786-0.792-1.786-1.786c0-0.987,0.798-1.778,1.786-1.778
	C223.115,213.583,223.918,214.374,223.918,215.361"/>
<path d="M224.269,235.979c0,0.987-0.798,1.786-1.786,1.786c-0.975,0-1.778-0.799-1.778-1.786c0-0.98,0.804-1.778,1.778-1.778
	C223.47,234.201,224.269,235,224.269,235.979"/>
<path d="M224.269,256.122c0,0.984-0.798,1.776-1.786,1.776c-0.975,0-1.778-0.792-1.778-1.776c0-0.993,0.804-1.786,1.778-1.786
	C223.47,254.336,224.269,255.129,224.269,256.122"/>
<path d="M245.599,182.692c0,0.98-0.798,1.783-1.781,1.783c-0.985,0-1.778-0.802-1.778-1.783c0-0.988,0.793-1.781,1.778-1.781
	C244.8,180.912,245.599,181.704,245.599,182.692"/>
<path d="M245.599,198.02c0,0.988-0.798,1.778-1.781,1.778c-0.985,0-1.778-0.791-1.778-1.778s0.793-1.778,1.778-1.778
	C244.8,196.242,245.599,197.032,245.599,198.02"/>
<path d="M245.599,215.361c0,0.993-0.798,1.786-1.781,1.786c-0.985,0-1.778-0.792-1.778-1.786c0-0.987,0.793-1.778,1.778-1.778
	C244.8,213.583,245.599,214.374,245.599,215.361"/>
<path d="M245.954,235.979c0,0.987-0.804,1.786-1.779,1.786c-0.987,0-1.778-0.799-1.778-1.786c0-0.98,0.791-1.778,1.778-1.778
	C245.15,234.201,245.954,235,245.954,235.979"/>
<path d="M245.954,256.122c0,0.984-0.804,1.776-1.779,1.776c-0.987,0-1.778-0.792-1.778-1.776c0-0.993,0.791-1.786,1.778-1.786
	C245.15,254.336,245.954,255.129,245.954,256.122"/>
<path d="M245.954,278.26c0,0.987-0.804,1.785-1.779,1.785c-0.987,0-1.778-0.798-1.778-1.785c0-0.98,0.791-1.778,1.778-1.778
	C245.15,276.481,245.954,277.279,245.954,278.26"/>
<g opacity="0.7">
	<g>
		<defs>
			<rect id="SVGID_9_" x="223.139" y="152.875" width="18.901" height="11.179"/>
		</defs>
		<clipPath id="SVGID_10_">
			<use xlink:href="#SVGID_9_"  overflow="visible"/>
		</clipPath>
		<path clip-path="url(#SVGID_10_)" fill="#C09980" d="M242.04,158.877v0.029c-0.837,1.342-3.729,5.141-9.456,5.141h-0.041
			c-5.434-0.023-8.59-3.971-9.404-5.119c0.188-1.154,0.355-2.375,0.47-3.644c0.07-0.757,0.149-1.521,0.211-2.312
			c2.663,0.671,5.533,1.073,8.625,1.119h0.098c3.162-0.046,6.078-0.477,8.802-1.217c0.074,0.769,0.144,1.532,0.213,2.272
			C241.708,156.461,241.85,157.706,242.04,158.877"/>
	</g>
</g>
<path fill="#D3A788" d="M231.905,69.657c-36.104,0-36.317,30.23-34.705,50.017c-2.479-4.695-9.8-3.244-9.216,4.148
	c0.584,7.116,10.938,10.795,10.793,9.962c2.961,16.286,19.952,25.691,33.127,25.691c0.093,0,0.185-0.012,0.276-0.012V69.662
	C232.09,69.662,231.998,69.657,231.905,69.657"/>
<path fill="#C09980" d="M190.298,120.694c1.784-2.846,4.539-1.619,5.215-0.993c0.719,0.684,1.287,1.59,0.85,3.277
	c-0.251,0.946-1.25,1.021-1.01,2.461c0.265,1.625,1.021,1.729,1.447,2.096c0.419,0.367,0.951,0.642,1.215,1.336
	c0.264,0.683,0.299,1.412,0.161,2.032c-0.275,1.171-1.974,0.235-3.111-0.275c-0.745-0.339-3.133-2.354-3.742-3.037
	C189.81,125.887,189.109,122.587,190.298,120.694"/>
<path fill="#DFB79A" d="M232.084,69.657c36.111,0,36.319,30.23,34.711,50.017c2.473-4.695,9.801-3.244,9.203,4.148
	c-0.585,7.116-10.938,10.795-10.787,9.962c-2.962,16.286-19.958,25.691-33.127,25.691c-0.086,0-0.189-0.012-0.275-0.012V69.662
	C231.9,69.662,231.998,69.657,232.084,69.657"/>
<path fill="#C09980" d="M273.691,120.694c-1.777-2.846-4.538-1.619-5.22-0.993c-0.713,0.684-1.28,1.59-0.838,3.277
	c0.253,0.946,1.249,1.021,1.005,2.461c-0.265,1.625-1.011,1.729-1.447,2.096c-0.418,0.367-0.952,0.642-1.216,1.336
	c-0.254,0.683-0.305,1.412-0.156,2.032c0.266,1.171,1.975,0.235,3.11-0.275c0.747-0.339,3.134-2.354,3.731-3.037
	C274.176,125.887,274.874,122.587,273.691,120.694"/>
<path fill="#E1BE9B" d="M232.309,78.178c-11.88,0-20.579,3.455-25.848,10.267c-7.343,9.508-7.062,24.043-4.348,34.47
	c0.825,3.191,1.25,11.781,1.824,14.937c2.563,14.105,18.123,21.623,28.371,21.623c0.091,0,0.189-0.012,0.275-0.012V78.184
	C232.491,78.184,232.399,78.178,232.309,78.178"/>
<path fill="#F1D1AC" d="M258.101,88.455c-5.226-6.765-13.823-10.208-25.517-10.271v81.273c11.706-0.121,25.695-8.355,28.094-21.605
	c0.574-3.156,0.999-11.746,1.831-14.937C265.212,112.511,265.481,97.999,258.101,88.455"/>
<path fill="#050505" d="M267.299,108.74c0,3.507-0.181,6.911-0.435,10.083c-0.724,0.712-1.538,1.602-2.089,3.071
	c-1.137,2.966-1.562,2.45-1.562,2.45s1.773-11.615,1.773-14.851c0-0.367-0.132-0.987-0.371-1.831
	c-1.517-5.292-7.467-18.839-12.339-24.636c-1.125-1.347-2.187-2.271-3.133-2.593c-2.64-0.873-5.142,0.029-7.671,1.257
	c-2.951,1.418-5.952,3.282-9.234,3.282h-0.483c-3.271-0.068-6.346-1.979-9.38-3.391c-2.508-1.17-4.988-1.986-7.524-1.148
	c-0.884,0.298-1.87,1.125-2.903,2.318c-4.74,5.446-10.587,18.546-12.389,24.309c-0.35,1.13-0.557,1.985-0.557,2.433
	c0,3.236,1.785,14.851,1.785,14.851s-0.436,0.516-1.568-2.45c-0.641-1.733-1.685-2.714-2.507-3.421
	c-0.236-3.201-0.419-6.65-0.407-10.168c0.034-7.953,1.01-16.319,4.476-23.303c4.636-9.422,13.73-16.326,30.924-16.326h0.195
	c17.375,0,26.494,7.06,31.09,16.63C266.381,92.364,267.323,100.783,267.299,108.74"/>
<path fill="#E0E0E0" d="M273.59,52.97c6.164-3.639,10.306-10.346,10.306-18.024c0-11.557-9.376-20.928-20.933-20.928
	c-3.938,0-7.61,1.091-10.748,2.973c-3.668-6.043-10.312-10.083-17.909-10.083c-7.23,0-13.607,3.673-17.359,9.251
	c-3.449-2.519-7.695-4.005-12.299-4.005c-11.556,0-20.926,9.376-20.926,20.933c0,9.003,5.687,16.676,13.664,19.625
	c0.619,1.056,1.228,2.22,1.813,3.501c6.008,13.254,0,33.563,0,33.563s72.302,15.752,66.537,3.455
	c-5.778-12.292-2.106-23.964-1.487-28.106C264.811,61.365,270.984,56.092,273.59,52.97"/>
<path fill="#E5E5E4" d="M267.11,109.2c-0.876-0.374-1.773-0.723-2.667-1.073c-10.29-3.942-21.76-6.02-33.169-6.02
	c-10.95,0-21.563,1.82-31.548,5.417c-1.079,0.402-2.158,0.81-3.225,1.239l-0.689,0.27v-0.734c0.035-9.75,1.509-17.439,4.516-23.522
	l0.109-0.206l0.219-0.057c3.728-0.93,7.5-1.693,11.223-2.255c3.34-0.517,6.863-0.918,10.461-1.171
	c2.943-0.206,5.929-0.31,8.877-0.31c3.432,0,6.898,0.138,10.296,0.413c3.621,0.287,7.269,0.735,10.844,1.343
	c3.593,0.59,7.208,1.359,10.767,2.29l0.217,0.058l0.103,0.206c2.951,6.151,4.379,13.893,4.351,23.653v0.748L267.11,109.2z"/>
<path fill="#050505" d="M232.75,145.558c-0.286,4.121-7.431,3.742-11.138,3.742c1.854-1.854,6.703-6.031,10.415-6.031
	C232.026,143.269,232.789,144.95,232.75,145.558"/>
<path fill="#050505" d="M232.364,145.558c0.288,4.121,7.426,3.742,11.144,3.742c-1.859-1.854-6.702-6.031-10.414-6.031
	C233.094,143.269,232.325,144.95,232.364,145.558"/>
<path fill="#050505" d="M233.812,158.447c-0.149-0.476-0.219-1.05-0.488-1.308c-0.408,0.481-0.798,0.786-0.798,0.786
	s-0.366-0.31-0.751-0.796c-0.305,0.28-0.558,0.688-0.718,1.204c-0.046-0.028-0.126-0.607-0.126-0.607s-0.688,0.837-0.827,1.4
	c-0.125,0.556,0.345,1.152,0.345,1.152s0.229-0.115,0.442-0.297c0.206,1.389,1.555,2.502,1.555,2.502s1.378-1.033,1.652-2.399
	c0.174,0.116,0.321,0.195,0.321,0.195s0.506-0.607,0.35-1.152c-0.281-0.982-0.796-1.573-0.796-1.573
	S234.007,158.418,233.812,158.447"/>
</svg>
