<svg width="19" height="15" viewBox="0 0 19 15" xmlns="http://www.w3.org/2000/svg"><title>Fill 1</title><path d="M19 1.77c-.7.3-1.45.503-2.24.595A3.81 3.81 0 0 0 18.476.276 7.968 7.968 0 0 1 16 1.192 3.954 3.954 0 0 0 13.154 0c-2.152 0-3.898 1.69-3.898 3.775 0 .296.035.584.101.86-3.24-.157-6.112-1.66-8.034-3.944a3.668 3.668 0 0 0-.528 1.898c0 1.31.688 2.465 1.734 3.142a3.98 3.98 0 0 1-1.766-.472v.047c0 1.83 1.344 3.355 3.127 3.702a4.014 4.014 0 0 1-1.76.065c.496 1.5 1.936 2.59 3.64 2.621A7.983 7.983 0 0 1 .93 13.31c-.315 0-.625-.018-.93-.053a11.291 11.291 0 0 0 5.976 1.697c7.17 0 11.09-5.753 11.09-10.742 0-.163-.003-.326-.011-.488A7.781 7.781 0 0 0 19 1.77" fill="#90959A" fill-rule="evenodd"/></svg>