<svg width="393" height="234" viewBox="0 0 393 234" xmlns="http://www.w3.org/2000/svg" xmlns:xlink="http://www.w3.org/1999/xlink"><title>Tribe Illustration</title><defs><path d="M.424 189.4h45.097v-32.177c0-.552-.016-1.103-.042-1.653-.013-.263-.035-.523-.053-.785-.02-.269-.037-.538-.063-.806a34.316 34.316 0 0 0-.12-1.066c-.02-.152-.037-.305-.058-.456-.06-.433-.13-.863-.205-1.291-.01-.048-.017-.095-.026-.143C42 134.776 27.677 122.41 10.494 122.41H5.107c-1.758 0-3.189-1.42-3.189-3.164v-13.535c18.882-3.626 33.186-20.173 33.186-39.982V49.128c1.077-4.173 2.367-11.636 2.884-19.088.672-9.665.338-22.586-4.93-29.95H.425V189.4z" id="a"/><path d="M28.337.154a70.59 70.59 0 0 1-1.524.725C14.997 6.343 14.15 7.21 10.073 11.37l-.194.199c-12.915 13.18-.757 46.546-.234 47.96.008.02.021.035.03.055v13.448c0 19.361 13.661 35.593 31.863 39.593V.155H28.337zm13.2 128.638a3.14 3.14 0 0 1-1.938.667h-4.737c-17.024 0-31.215 12.31-34.14 28.482l-.027.147a35.54 35.54 0 0 0-.203 1.282l-.058.456c-.043.352-.086.704-.12 1.06-.024.266-.041.535-.06.803-.019.26-.041.519-.053.78a33.587 33.587 0 0 0-.042 1.647v32.134l41.379-.116v-67.342z" id="c"/></defs><g fill="none" fill-rule="evenodd"><path d="M61.89 204.281v-.347c0-.314-.009-.626-.024-.936-.004-.103-.014-.205-.021-.308a18.702 18.702 0 0 0-.048-.617c-.011-.122-.027-.242-.041-.363a18.618 18.618 0 0 0-.07-.55c-.02-.127-.04-.254-.062-.381a19.946 19.946 0 0 0-.174-.905 16.95 16.95 0 0 0-.215-.885 19.196 19.196 0 0 0-.14-.49 16.382 16.382 0 0 0-.115-.377 18.083 18.083 0 0 0-.164-.484c-.043-.121-.084-.244-.13-.364-.061-.165-.128-.328-.194-.491-.046-.112-.09-.227-.137-.339a20.405 20.405 0 0 0-.506-1.076c-.082-.164-.164-.328-.25-.489-.07-.128-.145-.254-.217-.381-.073-.127-.144-.254-.219-.378-.08-.134-.164-.264-.247-.395-.073-.115-.145-.23-.22-.342a22.222 22.222 0 0 0-.796-1.11 19.688 19.688 0 0 0-1.136-1.343 7.593 7.593 0 0 0-.197-.205 18.568 18.568 0 0 0-.415-.425 19.353 19.353 0 0 0-2.546-2.11l-.033-.024c-.203-.141-.41-.276-.62-.41l-.096-.06a19.261 19.261 0 0 0-.62-.373l-.11-.063c-.212-.12-.426-.236-.643-.348l-.097-.05a18.764 18.764 0 0 0-.681-.332l-.056-.026a19 19 0 0 0-7.935-1.734h-3.082a2.694 2.694 0 0 1-2.697-2.693v-8.525c10.73-1.73 18.993-11.083 18.993-22.275v-9.143c1.048-4.006 2.84-18.09-2.333-24.746-2.007-2.583-10.146-8.828-21.894-9.077-10.412-.22-19.493 6.636-21.883 9.077-7.224 7.379-4.53 25.83-4.53 25.83l.208-.23v8.289c0 11.232 8.322 20.615 19.108 22.296v8.504a2.693 2.693 0 0 1-2.694 2.693h-2.736c-2.827 0-5.514.625-7.936 1.734l-.054.026a18.764 18.764 0 0 0-1.532.793c-.209.12-.416.244-.62.372l-.096.062c-.209.133-.416.268-.62.41l-.033.022a19.357 19.357 0 0 0-2.423 1.993c-.04.04-.083.078-.124.118-.14.139-.277.281-.414.425l-.197.205c-.124.134-.244.27-.364.407a14.661 14.661 0 0 0-.547.652 19.62 19.62 0 0 0-1.021 1.394c-.075.112-.147.227-.22.342-.083.13-.167.261-.247.395-.075.124-.146.251-.218.378-.073.127-.147.253-.217.381-.087.161-.169.325-.251.489a21.356 21.356 0 0 0-.506 1.076c-.048.112-.091.227-.137.339-.066.163-.132.326-.194.49-.045.121-.087.244-.13.365-.056.16-.112.322-.164.484-.04.125-.077.251-.115.378a19.196 19.196 0 0 0-.238.873 18.495 18.495 0 0 0-.29 1.406 14.757 14.757 0 0 0-.132.931c-.015.121-.03.241-.043.363-.02.204-.033.41-.047.617-.006.103-.016.205-.021.308-.015.31-.024.622-.024.936v29.214h61.89v-28.867z" fill="#E1E9F0"/><path d="M115.048 198.92c-.016-.285-.033-.57-.058-.852-.006-.058-.015-.114-.02-.171-.01-.105-.025-.21-.036-.314a24.159 24.159 0 0 0-.112-.87 19.554 19.554 0 0 0-.058-.362c-.027-.164-.05-.331-.08-.494-.02-.106-.045-.21-.066-.314a23.945 23.945 0 0 0-.576-2.303c-.036-.119-.07-.237-.108-.354-.085-.266-.176-.53-.27-.792-.036-.103-.07-.206-.109-.308-.11-.296-.227-.589-.348-.88-.027-.064-.051-.13-.079-.194a24.647 24.647 0 0 0-1.01-2.089l-.152-.268a25.16 25.16 0 0 0-.413-.716c-.073-.12-.15-.238-.224-.357a22.98 22.98 0 0 0-.384-.598c-.088-.131-.178-.26-.268-.39a25.01 25.01 0 0 0-.685-.938 24.939 24.939 0 0 0-1.106-1.34 24.711 24.711 0 0 0-.369-.413l-.018-.02c-.034-.037-.067-.075-.101-.11-.087-.093-.177-.181-.265-.272-.135-.14-.27-.281-.407-.417-.119-.118-.242-.23-.363-.346-.153-.146-.306-.294-.464-.436-.056-.052-.117-.1-.174-.151a24.92 24.92 0 0 0-1.398-1.152c-.03-.023-.06-.048-.09-.07a22.49 22.49 0 0 0-.665-.482c-.08-.057-.159-.115-.24-.17a21.16 21.16 0 0 0-.664-.439c-.088-.057-.176-.115-.264-.17a25.768 25.768 0 0 0-2.689-1.457l-.191-.087a24.393 24.393 0 0 0-.852-.369l-.083-.033a24.497 24.497 0 0 0-9.225-1.801H86.39a3.474 3.474 0 0 1-3.48-3.473v-10.994a29.037 29.037 0 0 0 13.908-6.324c1.724 4.924 4.218 9.904 7.762 12.977.965-9.774 0-16.314 4.722-24.427.417-.716.863-1.55 1.32-2.478.693 1.73 1.559 3.163 2.642 4.063 3.9-9.42 8.427-14.767 7.467-27.298-.656-8.566-.36-14.587-5.606-24.544-5.613-10.654-13.167-17.183-26.547-21.135-7.616-2.25-21.424-1.24-29.835 3.149-6.824 3.56-18.557 11.75-24.97 27.719-5.703 14.2-10.257 31.63.559 44.122 1.296-1.53 2.542-3.018 3.652-4.549 7.12 12.316 11.075 7.108 15.698 25.342 1.868-3.059 3.203-6.368 4.323-9.578a28.867 28.867 0 0 0 9.004 2.988v10.967a3.473 3.473 0 0 1-3.474 3.473h-3.53a24.304 24.304 0 0 0-14.23 4.584c-1.102.742-2.161 1.598-3.098 2.583-.239.25-.468.511-.694.775a24.74 24.74 0 0 0-6.018 11.73 32.394 32.394 0 0 0-.652 2.398v16.78l.136.002v18.42h.074v.264H53.04v-.263l62.052.899v-.9h.002v-32.559c0-.416-.013-.829-.033-1.24-.004-.058-.01-.115-.013-.174" fill="#D0DADC"/><path d="M84.804 179.533a44.188 44.188 0 0 0-7.365-3.13c-3.102-1.002-5.486 3.29-3.132 5.462 1.572 1.45 2.793 2.934 3.935 4.73 1.64 2.58 4.121 4.2 7.222 4.178 1.521-.011 2.985-1.07 3.367-2.566.911-3.568-.799-6.93-4.027-8.674m23.679 18.605c-.828-.887-2.082-1.206-3.243-1.052-2.314.305-3.872 2.57-3.267 4.86.226.851.45 1.703.675 2.555.47 1.78 2.254 2.897 4.042 2.66 1.66-.219 3.397-1.782 3.217-3.612l-.255-2.61c-.108-1.1-.411-1.99-1.169-2.801" fill="#FEB"/><path d="M392.947 204.281v-.347c0-.314-.01-.626-.024-.936-.005-.103-.014-.205-.021-.308a18.704 18.704 0 0 0-.048-.617c-.011-.122-.027-.242-.041-.363a18.622 18.622 0 0 0-.071-.55c-.019-.127-.04-.254-.061-.381a19.951 19.951 0 0 0-.174-.905 20.363 20.363 0 0 0-.215-.885 19.196 19.196 0 0 0-.14-.49c-.038-.126-.075-.252-.115-.377a18.084 18.084 0 0 0-.165-.484c-.042-.121-.084-.244-.129-.364a20.855 20.855 0 0 0-.194-.491c-.046-.112-.09-.227-.137-.339a19.253 19.253 0 0 0-.506-1.076c-.082-.164-.164-.328-.251-.489-.07-.128-.144-.254-.217-.381-.072-.127-.143-.254-.218-.378-.08-.134-.164-.264-.247-.395-.073-.115-.145-.23-.22-.342a18.331 18.331 0 0 0-.497-.711 20.04 20.04 0 0 0-1.435-1.742c-.065-.07-.131-.137-.197-.205a19.578 19.578 0 0 0-.415-.425 19.357 19.357 0 0 0-2.546-2.11l-.033-.024a21.424 21.424 0 0 0-.62-.41l-.096-.06a18.784 18.784 0 0 0-.62-.373l-.11-.063a18.827 18.827 0 0 0-1.422-.73l-.054-.026a19.001 19.001 0 0 0-7.936-1.734h-3.081a2.694 2.694 0 0 1-2.699-2.693v-8.525c10.73-1.73 18.994-11.083 18.994-22.275v-9.143c1.048-4.006 2.84-18.09-2.333-24.746-2.007-2.583-10.146-8.828-21.895-9.077-10.412-.22-19.492 6.636-21.882 9.077-7.225 7.379-4.53 25.83-4.53 25.83l.208-.23v8.289c0 11.232 8.322 20.615 19.108 22.296v8.504a2.693 2.693 0 0 1-2.694 2.693h-2.737c-2.827 0-5.513.625-7.935 1.734l-.055.026c-.23.106-.456.216-.681.331l-.098.05a18.847 18.847 0 0 0-1.373.784l-.095.062c-.21.133-.417.268-.62.41l-.033.022a19.46 19.46 0 0 0-2.423 1.993c-.04.04-.083.078-.124.118-.14.139-.278.281-.415.425l-.196.205c-.124.134-.244.27-.364.407-.073.083-.147.167-.218.252a18.775 18.775 0 0 0-.554.685 20.04 20.04 0 0 0-.3.398c-.075.104-.15.208-.224.314-.092.131-.183.263-.273.397a22.37 22.37 0 0 0-.466.737c-.075.124-.147.251-.219.378-.072.127-.146.253-.216.381-.087.161-.169.325-.251.489a20.413 20.413 0 0 0-.506 1.077c-.048.111-.092.226-.137.338-.066.163-.133.326-.195.49-.045.121-.086.244-.128.365a16.208 16.208 0 0 0-.28.862 17.511 17.511 0 0 0-.355 1.374 18.376 18.376 0 0 0-.174.905c-.021.127-.043.254-.062.381-.026.183-.048.367-.07.55-.014.121-.03.241-.042.363-.02.204-.034.41-.047.617-.007.103-.016.205-.022.308-.014.31-.023.622-.023.936v29.214h61.89v-28.867" fill="#E1E9F0"/><path d="M356.725 198.36v-.419c0-.377-.011-.753-.029-1.126-.006-.124-.018-.247-.026-.37a21.427 21.427 0 0 0-.057-.744c-.014-.145-.033-.29-.05-.435a23.113 23.113 0 0 0-.085-.663c-.023-.153-.049-.306-.074-.458a22.197 22.197 0 0 0-.21-1.09 20.357 20.357 0 0 0-.258-1.065c-.053-.198-.11-.393-.168-.589-.045-.151-.09-.304-.139-.455-.062-.195-.13-.388-.198-.58-.05-.147-.1-.294-.155-.44-.074-.199-.155-.394-.234-.59-.055-.136-.108-.273-.165-.408a23.26 23.26 0 0 0-.61-1.298c-.099-.196-.197-.392-.301-.586-.084-.154-.173-.305-.26-.458-.087-.152-.173-.306-.263-.456-.097-.16-.198-.318-.297-.476-.088-.137-.175-.275-.265-.41-.107-.162-.218-.32-.33-.48a22.028 22.028 0 0 0-1.557-1.983c-.145-.165-.29-.328-.439-.489-.077-.084-.157-.165-.236-.247-.165-.173-.33-.345-.5-.512l-.15-.143a23.295 23.295 0 0 0-2.916-2.398c-.012-.01-.025-.018-.037-.027a21.86 21.86 0 0 0-.747-.492l-.115-.075a22.862 22.862 0 0 0-1.652-.942l-.118-.061a22.68 22.68 0 0 0-.82-.4l-.066-.03a22.866 22.866 0 0 0-9.55-2.087h-3.708a3.242 3.242 0 0 1-3.247-3.241V161.38c12.913-2.081 22.858-13.34 22.858-26.81v-10.96c1.542-5.337 5.008-26.19-1.337-34.356-2.416-3.109-4.638-3.929-6.903-5.177-6.318-3.48-9.674-10.606-16.195-11.304-9.848-1.056-11.895 6.311-25.027 12.389-8.2 3.794-8.64 4.318-11.516 7.255-8.694 8.88.034 32.454.034 32.454l.25-.277v9.975c0 13.518 10.016 24.81 22.997 26.833v10.234a3.24 3.24 0 0 1-3.243 3.24h-3.293c-3.402 0-6.635.753-9.55 2.089l-.066.03c-.276.127-.55.26-.82.399l-.118.06c-.26.136-.518.275-.773.42l-.13.075c-.253.145-.503.294-.749.448l-.114.074c-.253.16-.502.324-.747.493l-.037.026a23.346 23.346 0 0 0-2.917 2.4c-.05.047-.101.094-.15.142-.17.168-.335.34-.5.512-.079.082-.158.163-.236.247a23.944 23.944 0 0 0-.7.792 21.369 21.369 0 0 0-.667.824 23.58 23.58 0 0 0-.959 1.336c-.09.135-.177.273-.264.41-.1.158-.201.315-.297.476-.09.15-.176.303-.263.455-.087.153-.177.305-.26.46-.105.192-.203.388-.301.584a24.417 24.417 0 0 0-.61 1.3c-.058.134-.11.271-.166.407-.08.196-.16.391-.233.59-.055.146-.105.293-.156.44-.068.192-.135.385-.198.58-.048.151-.093.304-.139.455a23.315 23.315 0 0 0-.286 1.051 21.872 21.872 0 0 0-.35 1.693c-.025.152-.051.305-.074.458-.032.22-.059.442-.085.663-.017.145-.036.29-.05.435-.024.247-.04.495-.057.744-.008.123-.02.246-.025.37-.019.373-.029.749-.029 1.126v35.16h74.483v-34.74z" fill="#D0DADC"/><path d="M286.632 45.093c-8.85-2.613-24.897-1.44-34.672 3.66-7.93 4.137-21.566 13.656-29.018 32.213-6.627 16.502-11.92 36.758.65 51.275 4.899-5.785 9.205-11.047 9.337-19.223 7.859-12.872 19.03 31.465 25.71 26.164 10.722-2.921 38.294-3.855 38.294-3.855s-.936-41.45 11.356-30.794c1.308-13.259-1.025 18.676 7.031 25.368 4.533-10.946 9.792-17.16 8.677-31.723-.762-9.954-.418-16.952-6.514-28.523-6.524-12.38-15.301-19.97-30.851-24.562" fill="#F3DE86"/><path d="M236.083 109.575l.135.003c4.267.154 8.245 7.872 12.456 16.044 2.852 5.534 6.402 12.42 8.611 12.896.18.039.387.043.678-.187.115-.092.247-.158.39-.197 9.647-2.63 32.223-3.649 37.475-3.855-.065-5.868.118-28.97 6.956-32.182 1.423-.668 2.97-.517 4.617.448.026-.23.05-.423.071-.588.089-.688.228-1.72 1.263-1.701 1.04.026 1.117 1.085 1.158 1.654.031.422.06 1.035.098 1.797.236 4.855.918 18.89 4.977 24.243.813-1.869 1.635-3.6 2.437-5.288 3.408-7.18 6.351-13.38 5.507-24.402-.1-1.294-.18-2.54-.258-3.752-.523-8.09-.936-14.48-6.134-24.346-6.695-12.708-15.444-19.669-30.197-24.026-8.154-2.408-24.064-1.53-33.86 3.58-7.465 3.895-21.094 13.186-28.511 31.655-11.654 29.017-6.14 41.992-.356 49.18 4.281-5.082 8.125-10.066 8.245-17.55a1.09 1.09 0 0 1 .16-.55c1.165-1.909 2.538-2.876 4.082-2.876m21.373 31.137a3 3 0 0 1-.629-.068c-3.215-.692-6.4-6.87-10.087-14.026-3.389-6.576-7.606-14.758-10.6-14.867-.702-.025-1.42.51-2.13 1.593-.247 8.571-4.995 14.176-9.588 19.6a1.088 1.088 0 0 1-.825.384 1.045 1.045 0 0 1-.828-.376c-13.396-15.47-6.893-37.31-.837-52.391 7.678-19.118 21.793-28.739 29.524-32.772 10.41-5.431 26.752-6.317 35.484-3.739 15.176 4.483 24.598 11.989 31.506 25.099 5.413 10.275 5.861 17.2 6.38 25.22.077 1.202.158 2.44.256 3.726.888 11.598-2.17 18.04-5.712 25.5-1.004 2.115-2.042 4.303-3.045 6.722a1.086 1.086 0 0 1-1.7.42c-4.796-3.984-6.158-15.252-6.716-25.185a1.095 1.095 0 0 1-.333-.198c-2.323-2.014-3.485-1.468-3.866-1.289-1.416.665-3.968 3.69-5.15 16.467-.693 7.503-.54 14.698-.539 14.77a1.088 1.088 0 0 1-1.05 1.111c-.274.01-27.236.952-37.852 3.766a2.907 2.907 0 0 1-1.663.533" fill="#3B4249"/><path d="M317.444 194.248v37.837H240.19l-5.23-37.837c0-15.793 2.661-28.72 18.468-28.72h4.1a4.036 4.036 0 0 0 4.038-4.036v-14.434h18.48v14.434a4.037 4.037 0 0 0 4.043 4.036h4.619c15.806 0 28.736 12.927 28.736 28.72" fill="#FCEAB4"/><path d="M270.807 154.813c-6.887 0-9.24-3.747-9.24-3.747v-3.05h18.479v3.05s-2.352 3.747-9.24 3.747m17.902 11.76h-.186c.011.265.01.53.02.798.25 6.458-10.408 15.05-17.148 17.12-6.598-2.965-18.431-9.962-17.795-17.12.023-.266.008-.533.02-.798h-.191c-15.807 0-8.18 28.572-8.18 44.364v21.148l72.196 1.045v-37.837c0-15.792-12.93-28.72-28.736-28.72" fill="#D2C08C"/><path d="M226.197 230.778h89.94v-36.53c0-15.116-12.305-27.413-27.43-27.413h-4.618a5.353 5.353 0 0 1-5.35-5.343v-13.127h-15.865v13.127a5.35 5.35 0 0 1-5.346 5.343h-4.1c-15.015 0-27.231 12.297-27.231 27.413v36.53zm91.248 2.614h-92.556a1.307 1.307 0 0 1-1.307-1.307v-37.837c0-16.557 13.389-30.027 29.846-30.027h4.1a2.733 2.733 0 0 0 2.73-2.73v-14.433c0-.722.586-1.307 1.309-1.307h18.48c.721 0 1.306.585 1.306 1.307v14.434a2.736 2.736 0 0 0 2.736 2.729h4.619c16.566 0 30.044 13.47 30.044 30.027v37.837c0 .722-.585 1.307-1.307 1.307z" fill="#3B4249"/><path d="M308.51 92.895v22.437c0 18.6-15.226 33.817-33.836 33.817h-7.908c-18.61 0-33.837-15.217-33.837-33.817V92.168c0-3.167 1.6-8.845 3.991-13.738 2.39-4.892 5.576-8.991 8.74-8.991 0 0 13.116-1.977 26.673-1.977 12.684 0 25.874 1.977 25.874 1.977 6.334 0 10.304 17.126 10.304 23.456" fill="#FCEAB4"/><path d="M232.707 94.01l8.664-11.259c1.7-2.21-11.419 14.99-8.664 15.427 0 0 11.35-5.955 18.582-8.248 11.089-3.515 22.3-8.133 28.35-15.15 6.569 1.046 11.29 3.835 17.18 6.964 2.329 1.238 11.47 11.54 11.47 11.54 0-3.169-2.659-6.691-5.049-11.584-2.39-4.893-4.518-6.979-7.682-6.979 0 0-11.693-5.82-25.251-5.82-12.684 0-28.316 5.418-28.316 5.418-6.334 0-9.284 13.36-9.284 19.69m38.099 48.214c32.082 0 37.704-26.891 37.704-26.891 0 18.6-15.226 33.818-33.836 33.818h-7.908c-18.61 0-33.837-15.218-33.837-33.818 0 0 5.696 26.89 37.877 26.89" fill="#D2C08C"/><path d="M272.333 68.769c-13.305 0-26.348 1.943-26.478 1.962a1.29 1.29 0 0 1-.195.015c-2.21 0-5.039 3.087-7.565 8.258-2.236 4.576-3.858 10.113-3.858 13.164v23.164c0 17.926 14.592 32.51 32.529 32.51h7.908c17.937 0 32.529-14.584 32.529-32.51V92.895c0-7.105-4.257-22.15-8.996-22.15a1.28 1.28 0 0 1-.195-.014c-.13-.02-13.243-1.962-25.679-1.962m2.341 81.687h-7.908c-19.379 0-35.145-15.756-35.145-35.124V92.168c0-3.456 1.696-9.341 4.124-14.311 4.06-8.312 7.85-9.678 9.811-9.724 1.196-.174 13.866-1.978 26.777-1.978 12.087 0 24.78 1.804 25.977 1.978 7.552.165 11.508 18.427 11.508 24.762v22.437c0 19.368-15.766 35.124-35.144 35.124" fill="#3B4249"/><path d="M249.888 166.326a27.25 27.25 0 0 0-5.807 1.634c0 14.196 12.083 25.705 26.987 25.705 14.904 0 26.986-11.509 26.986-25.706 0-.065-.005-.129-.005-.193a27.267 27.267 0 0 0-5.3-1.44c-.115 11.73-9.666 21.206-21.427 21.206-11.767 0-21.313-9.476-21.434-21.206" fill="#B5DEF2"/><path d="M226.285 116.41c.406-16.44 9.323-27.151 31.815-34.47 22.491-7.318 22.752-20.649 22.752-20.649l-25.767-4.871-18.65 13.109-10.17 13.215-5.067 24.396 5.087 9.27z" fill="#F2DE8B"/><path d="M249.699 100.034a6.1 6.1 0 0 1 5.152-3.27 6.101 6.101 0 0 1 5.41 2.824" fill="#FCEBB6"/><path d="M249.698 101.08a1.045 1.045 0 0 1-.926-1.53 7.175 7.175 0 0 1 6.034-3.83 7.174 7.174 0 0 1 6.337 3.307 1.045 1.045 0 1 1-1.764 1.122 5.076 5.076 0 0 0-4.484-2.34 5.077 5.077 0 0 0-4.27 2.71c-.186.356-.55.56-.927.56" fill="#3B4249"/><path d="M281.391 98.64a6.102 6.102 0 0 1 5.796-1.909 6.1 6.1 0 0 1 4.554 4.06" fill="#FCEBB6"/><path d="M291.74 101.837c-.438 0-.847-.278-.992-.717a5.076 5.076 0 0 0-3.774-3.366 5.077 5.077 0 0 0-4.803 1.584 1.046 1.046 0 0 1-1.56-1.394 7.176 7.176 0 0 1 6.789-2.237 7.173 7.173 0 0 1 5.334 4.756 1.045 1.045 0 0 1-.993 1.374m-23.581 20.839a1.046 1.046 0 1 1 0-2.09c1.2 0 2.654-.796 3.601-1.438-1.279-2.047-2.002-5.083-2.092-5.474a1.045 1.045 0 0 1 2.04-.467c.25 1.09 1.15 4.198 2.286 5.46a1.046 1.046 0 0 1-.103 1.497c-.121.102-3.005 2.512-5.731 2.512m6.721 10.246a1.045 1.045 0 0 1-.084-2.088c6.672-.542 7.95-5.348 7.962-5.397a1.045 1.045 0 1 1 2.03.507c-.065.258-1.671 6.312-9.822 6.974a.934.934 0 0 1-.086.004m-24.096 52.876a.784.784 0 0 1-.571-.246 28.877 28.877 0 0 1-2.783-3.449.784.784 0 1 1 1.293-.888 27.281 27.281 0 0 0 2.632 3.261.784.784 0 0 1-.57 1.322m17.015 8.564a.802.802 0 0 1-.092-.006 28.642 28.642 0 0 1-13.015-4.939.784.784 0 1 1 .898-1.286 27.067 27.067 0 0 0 12.3 4.668.784.784 0 0 1-.091 1.563m5.664.088a.785.785 0 0 1-.066-1.566c7.632-.65 14.667-4.544 19.3-10.68a.784.784 0 0 1 1.252.944c-4.9 6.492-12.343 10.61-20.418 11.299a.863.863 0 0 1-.068.002m21.224-12.969a.784.784 0 0 1-.664-1.201 26.77 26.77 0 0 0 1.217-2.15.785.785 0 0 1 1.4.708c-.392.774-.825 1.54-1.288 2.276a.784.784 0 0 1-.665.367m-48.05-4.788a.785.785 0 0 1-.732-.503c-.4-1.042-.744-2.12-1.018-3.2a.784.784 0 1 1 1.52-.387c.26 1.022.584 2.04.963 3.025a.784.784 0 0 1-.733 1.065" fill="#3B4249"/><path d="M245.952 178.777a.785.785 0 0 1-.707-.444 28.54 28.54 0 0 1-1.475-3.702.784.784 0 1 1 1.495-.477c.38 1.193.85 2.37 1.394 3.498a.784.784 0 0 1-.707 1.125" fill="#3B4249"/><path d="M271.452 113.532s2.024 2.586 3.445 4.927c.865 1.423.218 3.298-1.325 3.872-1.64.61-3.816 1-5.78.001l5.055-3.031-1.395-5.77z" fill="#010202" opacity=".1"/><path d="M298.078 113.602a6.308 6.308 0 0 1-6.31 6.306 6.308 6.308 0 0 1-6.31-6.306 6.308 6.308 0 0 1 6.31-6.307 6.308 6.308 0 0 1 6.31 6.307m-40.982 0a6.308 6.308 0 0 1-6.31 6.306 6.309 6.309 0 0 1-6.31-6.306 6.309 6.309 0 0 1 6.31-6.307 6.308 6.308 0 0 1 6.31 6.307" fill="#F6D4A4"/><path d="M317.446 194.247v37.838h-72.198v-21.148l-20.516-.26v-19.5s2.316-10.76 8.558-17.321c5.75-6.046 15.468-7.937 15.468-7.937.126 12.212 17.455 22.251 22.314 22.076 4.73 0 22.188-9.864 22.308-22.076 13.605 2.243 24.066 14.125 24.066 28.328" fill="#C0DFB0"/><path d="M271.15 231.085h.05l.052-.001 24.528-.29v-19.857c0-.715.575-1.297 1.29-1.307l19.069-.244v-15.139c0-6.509-2.35-12.83-6.616-17.798-3.904-4.546-9.165-7.695-14.937-8.968-1.487 12.258-18.711 21.668-23.378 21.814h-.081c-4.666-.146-21.89-9.556-23.378-21.814-5.771 1.273-11.033 4.422-14.936 8.968a27.349 27.349 0 0 0-6.616 17.798v15.139l19.068.244c.716.01 1.29.592 1.29 1.307v19.856l24.528.291.047.001h.02zm-.082 2.615c-.032 0-.063-.001-.095-.003l-25.74-.306a1.307 1.307 0 0 1-1.293-1.306v-19.857l-19.067-.245a1.307 1.307 0 0 1-1.291-1.307v-16.429a29.96 29.96 0 0 1 7.246-19.5c4.621-5.383 10.983-8.975 17.914-10.118a1.31 1.31 0 0 1 1.52 1.277c.11 11.05 16.77 20.586 20.906 20.775 4.136-.189 20.796-9.726 20.904-20.775a1.308 1.308 0 0 1 1.521-1.277c6.93 1.143 13.293 4.735 17.914 10.117a29.963 29.963 0 0 1 7.247 19.501v16.43c0 .714-.576 1.297-1.291 1.306l-19.068.245v19.857c0 .716-.576 1.298-1.292 1.306l-25.74.306a1.79 1.79 0 0 1-.112.003l-.1-.001-.066.001h-.017z" fill="#3B4249"/><path d="M297.087 233.392a1.307 1.307 0 0 1-1.307-1.307v-32.411a1.307 1.307 0 0 1 2.615 0v32.41c0 .723-.585 1.308-1.308 1.308m-51.437 0a1.307 1.307 0 0 1-1.308-1.307v-32.411a1.307 1.307 0 0 1 2.615 0v32.41c0 .723-.585 1.308-1.307 1.308" fill="#3B4249"/><path fill="#FCEAB4" d="M297.086 232.392h20.357v-21.454h-20.357z"/><path fill="#D2C08C" d="M297.086 214.834h20.357v-4.942h-20.357z"/><path d="M298.356 230.598h17.816v-18.39h-17.816v18.39zm19.087 2.54h-20.357a1.27 1.27 0 0 1-1.271-1.27v-20.93a1.27 1.27 0 0 1 1.27-1.271h20.358c.702 0 1.27.569 1.27 1.27v20.932a1.27 1.27 0 0 1-1.27 1.27z" fill="#3B4249"/><path fill="#FBE3D5" d="M224.976 232.392h20.357v-21.454h-20.357z"/><path fill="#D5B6A5" d="M224.976 214.834h20.357v-4.942h-20.357z"/><path d="M226.247 230.598h17.815v-18.39h-17.815v18.39zm19.086 2.54h-20.357a1.27 1.27 0 0 1-1.271-1.27v-20.93a1.27 1.27 0 0 1 1.27-1.271h20.358c.702 0 1.27.569 1.27 1.27v20.932a1.27 1.27 0 0 1-1.27 1.27z" fill="#3B4249"/><path d="M277.76 69.593s13.61 4.192 21.49 10.54c5.768 4.645 11.548 12.036 11.548 12.036h2.806l.524-23.9-18.332-9.584-15.466-7.493-10.023 13.418 7.452 4.983z" fill="#F2DE8B"/><path d="M226.284 117.498a1.088 1.088 0 0 1-1.087-1.05c-.74-21.94 18.581-30.792 33.179-35.542 21.383-6.958 21.998-19.515 22.002-19.642a1.083 1.083 0 0 1 1.114-1.057 1.085 1.085 0 0 1 1.061 1.105c-.011.576-.54 14.19-23.504 21.662-22.137 7.204-32.203 17.817-31.677 33.4.02.6-.45 1.103-1.051 1.124h-.037" fill="#3B4249"/><path d="M312.74 97.847c-.358 0-.709-.176-.916-.5-.077-.117-7.692-11.887-13.256-16.367-7.624-6.142-20.995-10.307-21.13-10.348a1.087 1.087 0 1 1 .642-2.078c.564.173 13.9 4.326 21.854 10.733 5.837 4.7 13.4 16.388 13.72 16.883a1.087 1.087 0 0 1-.915 1.677" fill="#3B4249"/><path d="M315.505 84.524v.001-.001zm-.949 1.115c-.188 0-.377-.043-.553-.132a1.196 1.196 0 0 1-.666-1.176c.028-.314.187-.585.418-.763-.043-.732-.355-2.614-1.956-6.993a1.087 1.087 0 0 1 2.045-.746c2.996 8.2 2.054 9.038 1.547 9.489a1.255 1.255 0 0 1-.835.321zM247.75 70.102a1.088 1.088 0 0 1-.372-2.11c.097-.035 9.82-3.674 17.78-14.924a1.089 1.089 0 0 1 1.778 1.256c-8.378 11.839-18.394 15.56-18.817 15.713a1.085 1.085 0 0 1-.37.065m9.661 0a1.087 1.087 0 0 1-.687-1.93c.054-.045 5.477-4.467 7.992-7.146a1.089 1.089 0 0 1 1.587 1.488c-2.615 2.785-7.977 7.159-8.205 7.343a1.084 1.084 0 0 1-.686.245m11.065-8.88a1.086 1.086 0 0 1-.706-1.915c.042-.037 2.269-1.997 3.527-5.941a1.088 1.088 0 0 1 2.073.66c-1.465 4.595-4.082 6.846-4.192 6.94a1.086 1.086 0 0 1-.702.256m-2.88 8.88a1.088 1.088 0 0 1-.487-2.06c.068-.035 6.888-3.514 8.924-9.678a1.088 1.088 0 0 1 2.066.682c-2.324 7.036-9.705 10.785-10.018 10.941a1.088 1.088 0 0 1-.485.115m-31.158 13.842a1.087 1.087 0 0 1-.766-1.86 18.539 18.539 0 0 1 3.756-2.892 1.089 1.089 0 0 1 1.091 1.882 16.393 16.393 0 0 0-3.314 2.554c-.212.211-.49.316-.767.316m-5.946 9.969a1.088 1.088 0 0 1-1.07-1.292c.026-.134.668-3.336 3.996-7.9a1.089 1.089 0 0 1 1.759 1.28c-3.045 4.176-3.612 7.001-3.617 7.03-.1.52-.556.882-1.068.882m71.749-32.171c-.27 0-.54-.1-.75-.3-.024-.023-2.177-2.023-7.019-3.656a1.087 1.087 0 1 1 .696-2.06c5.356 1.806 7.73 4.05 7.828 4.145a1.086 1.086 0 0 1-.755 1.87m-77.02 46.254h-.017c-.6-.01-1.08-.504-1.071-1.104.025-1.624.248-3.203.663-4.693a1.089 1.089 0 0 1 2.096.584 16.368 16.368 0 0 0-.583 4.142 1.088 1.088 0 0 1-1.088 1.07m2.718 11.284c-.353 0-.697-.17-.906-.486-.075-.113-1.856-2.852-2.669-8.442a1.087 1.087 0 1 1 2.154-.313c.735 5.058 2.316 7.534 2.332 7.559a1.09 1.09 0 0 1-.911 1.682m90.421-13.767a1.087 1.087 0 0 1-1.017-1.475 18.548 18.548 0 0 1 2.23-4.184 1.088 1.088 0 0 1 1.77 1.264 16.356 16.356 0 0 0-1.965 3.695 1.09 1.09 0 0 1-1.017.7m-1.303 11.534c-.491 0-.937-.335-1.057-.833-.032-.132-.77-3.313.377-8.846a1.087 1.087 0 1 1 2.13.442c-1.049 5.06-.398 7.867-.392 7.895a1.087 1.087 0 0 1-1.058 1.342m-4.124-43.274c-.382 0-.752-.2-.951-.557a16.355 16.355 0 0 0-2.478-3.367 1.087 1.087 0 1 1 1.568-1.507 18.527 18.527 0 0 1 2.81 3.814 1.087 1.087 0 0 1-.95 1.617" fill="#D3BC74"/><path d="M256.744 213.162a9.61 9.61 0 0 1-3.865-.816 1.045 1.045 0 1 1 .84-1.915c1.843.808 3.89.85 5.765.12a7.481 7.481 0 0 0 4.16-3.99 1.046 1.046 0 0 1 1.916.84 9.56 9.56 0 0 1-5.316 5.098 9.629 9.629 0 0 1-3.5.663m27.878 0a9.61 9.61 0 0 1-3.865-.816 1.045 1.045 0 1 1 .84-1.915c1.844.808 3.89.85 5.765.12a7.481 7.481 0 0 0 4.16-3.99 1.046 1.046 0 0 1 1.916.84 9.56 9.56 0 0 1-5.316 5.098 9.629 9.629 0 0 1-3.5.663" fill="#010202" opacity=".1"/><path d="M163.62 187.06v45.538H65.981V187.06c0-16.624 13.61-30.233 30.25-30.233h4.316a4.248 4.248 0 0 0 4.25-4.248v-15.194h19.453v15.194a4.25 4.25 0 0 0 4.256 4.248h4.862c16.64 0 30.25 13.609 30.25 30.233" fill="#C3B3A5"/><path d="M150.535 50.526c-3.166-4.075-16.007-13.928-34.54-14.32-16.427-.348-30.752 10.469-34.523 14.32-11.397 11.64-7.147 40.75-7.147 40.75l13.284-14.683 59.157 3.03 6.748 11.653c1.005.227 6.629-28.386-2.979-40.75" fill="#68574B"/><path d="M115.218 37.342c-15.676 0-29.329 10.31-32.927 13.984-8.97 9.16-7.816 30.105-7.116 37.304L86.76 75.825c.23-.255.563-.393.908-.376l59.158 3.031c.387.02.738.234.932.57l5.516 9.525c1.483-6.608 4.056-27.44-3.643-37.348-3.393-4.366-16.086-13.504-33.66-13.877-.25-.005-.502-.008-.752-.008m38.308 55.079a1.145 1.145 0 0 1-1.004-.571l-6.436-11.116-57.993-2.97-12.918 14.28a1.145 1.145 0 0 1-1.983-.603c-.177-1.211-4.199-29.807 7.462-41.716 3.836-3.917 18.573-15.016 35.365-14.664a54.629 54.629 0 0 1 23.53 5.905c6.124 3.124 10.233 6.724 11.89 8.857 9.558 12.301 4.782 39.445 3.192 41.944-.348.547-.803.654-1.105.654" fill="#3B4249"/><path d="M114.526 144.448c-7.25 0-9.727-3.944-9.727-3.944v-3.21h19.452v3.21s-2.475 3.944-9.725 3.944m18.844 12.929h-.197c.013.28.022.559.022.84 0 10.152-8.234 18.382-18.392 18.382-10.157 0-18.391-8.23-18.391-18.382 0-.281.008-.56.02-.84h-.2c-16.64 0-30.25 13.61-30.25 30.233v45.538h97.637V187.61c0-16.624-13.61-30.233-30.25-30.233" fill="#9A8A7D"/><path d="M67.358 231.222h94.885V187.06c0-15.912-12.953-28.857-28.874-28.857h-4.861c-3.106 0-5.633-2.523-5.633-5.624V138.76h-16.7v13.818a5.632 5.632 0 0 1-5.627 5.624h-4.317c-15.92 0-28.873 12.945-28.873 28.857v44.162zm96.261 2.752H65.982c-.76 0-1.377-.617-1.377-1.376V187.06c0-17.43 14.188-31.609 31.626-31.609h4.317a2.877 2.877 0 0 0 2.874-2.872v-15.194c0-.76.617-1.375 1.377-1.375h19.452c.76 0 1.377.616 1.377 1.375v15.194a2.88 2.88 0 0 0 2.88 2.872h4.861c17.44 0 31.627 14.18 31.627 31.609v45.538c0 .76-.617 1.376-1.377 1.376z" fill="#3B4249"/><path d="M163.62 187.06v45.538H65.981V187.06c0-14.952 11.011-27.46 25.332-29.82.133 12.855 10.594 23.239 23.489 23.239 12.89 0 23.357-10.384 23.483-23.24 14.321 2.361 25.333 14.87 25.333 29.821" fill="#E08484"/><path d="M154.215 80.37v23.618c0 19.58-16.028 35.598-35.618 35.598h-8.326c-19.59 0-35.617-16.018-35.617-35.598V79.605c0-3.335 1.684-9.31 4.2-14.462 2.517-5.15 4.964-6.242 8.295-6.242 0 0 14.577 2.115 28.849 2.115 13.352 0 26.464-2.115 26.464-2.115 6.668 0 11.753 14.805 11.753 21.469" fill="#C3B3A5"/><path d="M154.215 75.27l-7.901-10.412c-1.791-2.327-5.93-2.627-8.83-2.166 0 0-14.037 2.213-23.05 2.47-9.302.266-22.418-2.493-22.418-2.493-2.741-.45-8.442.232-10.266 2.325l-7.096 9.51c0-3.335 3.054-6.925 5.314-12.193 1.463-3.41 3.547-4.107 6.878-4.107 0 0 14.88 2.099 29.152 2.099 13.352 0 27.235-2.523 27.235-2.523 6.667 0 10.982 10.825 10.982 17.49m-39.69 57.025c33.771 0 39.69-28.307 39.69-28.307 0 19.58-16.028 35.598-35.618 35.598h-8.325c-19.59 0-35.619-16.018-35.619-35.598 0 0 5.997 28.307 39.872 28.307" fill="#9A8A7D"/><path d="M88.217 59.87c-3.508.044-6.242 2.021-8.126 5.877-2.353 4.817-4.06 10.646-4.06 13.858v24.383c0 18.87 15.36 34.223 34.24 34.223h8.326c18.88 0 34.242-15.352 34.242-34.223V80.37c0-6.79-3.918-20.315-9.082-20.5-1.486.255-15.123 2.522-27.76 2.522-13.476 0-26.334-2.26-27.78-2.523m30.38 81.093h-8.325c-20.4 0-36.995-16.586-36.995-36.974V79.605c0-3.639 1.785-9.834 4.34-15.065 2.998-6.135 7.484-7.423 10.72-7.423.086 0 .171.008.256.024.132.025 13.435 2.5 27.405 2.5 13.072 0 27.272-2.478 27.413-2.503.08-.014.16-.02.24-.02 7.878 0 11.94 16.298 11.94 23.252v23.618c0 20.388-16.595 36.974-36.994 36.974m-51.239 90.26h94.885V187.06a28.788 28.788 0 0 0-6.964-18.736c-4.102-4.776-9.625-8.086-15.687-9.431-.972 12.804-11.766 22.961-24.789 22.961-13.02 0-23.816-10.158-24.794-22.961-6.061 1.345-11.586 4.655-15.687 9.431a28.788 28.788 0 0 0-6.964 18.736v44.162zm96.261 2.752H65.982c-.76 0-1.377-.617-1.377-1.376V187.06c0-7.508 2.71-14.799 7.628-20.528 4.865-5.665 11.561-9.447 18.858-10.65a1.378 1.378 0 0 1 1.6 1.343c.124 12.064 10.044 21.878 22.112 21.878 12.071 0 21.988-9.814 22.107-21.877a1.378 1.378 0 0 1 1.6-1.343c7.296 1.202 13.993 4.984 18.858 10.65a31.54 31.54 0 0 1 7.628 20.527v45.538c0 .76-.617 1.376-1.377 1.376z" fill="#3B4249"/><path d="M94.004 84.832a6.422 6.422 0 0 1 5.564-3.21 6.423 6.423 0 0 1 5.565 3.21" fill="#C3B3A5"/><path d="M105.133 85.933a1.1 1.1 0 0 1-.954-.55 5.345 5.345 0 0 0-4.61-2.66 5.344 5.344 0 0 0-4.611 2.66 1.1 1.1 0 1 1-1.907-1.102 7.552 7.552 0 0 1 6.517-3.759 7.554 7.554 0 0 1 6.518 3.76 1.1 1.1 0 0 1-.953 1.651" fill="#3B4249"/><path d="M122.143 84.832a6.422 6.422 0 0 1 5.563-3.21 6.423 6.423 0 0 1 5.565 3.21" fill="#C3B3A5"/><path d="M133.272 85.933a1.1 1.1 0 0 1-.954-.55 5.345 5.345 0 0 0-4.612-2.66 5.344 5.344 0 0 0-4.61 2.66 1.1 1.1 0 1 1-1.906-1.102 7.552 7.552 0 0 1 6.516-3.759 7.553 7.553 0 0 1 6.518 3.76 1.1 1.1 0 0 1-.952 1.651m-19.939 20.292a1.101 1.101 0 1 1 0-2.202c1.27 0 2.797-.835 3.79-1.511-1.346-2.155-2.108-5.352-2.202-5.763a1.101 1.101 0 0 1 2.147-.492c.264 1.148 1.211 4.42 2.406 5.746a1.098 1.098 0 0 1-.107 1.577c-.129.108-3.165 2.645-6.034 2.645m-1.926 14.629c-.03 0-.06-.002-.09-.004-8.581-.698-10.272-7.07-10.34-7.342a1.1 1.1 0 0 1 2.136-.539c.058.22 1.435 5.122 8.382 5.687a1.1 1.1 0 0 1-.088 2.198" fill="#3B4249"/><path d="M115.032 168.018a1.1 1.1 0 0 1-.736-.282l-3.67-3.302a1.1 1.1 0 1 1 1.473-1.636l2.883 2.593 2.473-2.542a1.1 1.1 0 0 1 1.579 1.534l-3.212 3.302a1.097 1.097 0 0 1-.79.333" fill="#010202" opacity=".1"/><path d="M93.451 178.165a.824.824 0 0 1-.601-.26 30.403 30.403 0 0 1-2.93-3.63.825.825 0 1 1 1.362-.934 28.71 28.71 0 0 0 2.77 3.433.825.825 0 0 1-.6 1.391m17.911 9.015a.78.78 0 0 1-.097-.006 30.15 30.15 0 0 1-13.7-5.2.825.825 0 1 1 .945-1.353 28.488 28.488 0 0 0 12.947 4.913.826.826 0 0 1-.095 1.646m5.962.092a.826.826 0 0 1-.07-1.648c8.034-.685 15.44-4.783 20.317-11.243a.826.826 0 0 1 1.319.994c-5.16 6.834-12.994 11.17-21.494 11.894a.772.772 0 0 1-.072.003m22.342-13.652a.824.824 0 0 1-.699-1.265c.46-.732.89-1.494 1.28-2.264a.826.826 0 0 1 1.475.746c-.413.815-.87 1.622-1.356 2.396a.826.826 0 0 1-.7.387m2.523-5.04a.825.825 0 0 1-.77-1.122 28.724 28.724 0 0 0 1.012-3.184.825.825 0 1 1 1.601.407c-.29 1.14-.65 2.273-1.072 3.369a.826.826 0 0 1-.771.53m-53.827 2.194a.826.826 0 0 1-.745-.467 30.074 30.074 0 0 1-1.553-3.897.826.826 0 0 1 1.574-.502c.4 1.255.894 2.494 1.467 3.682a.825.825 0 0 1-.743 1.184" fill="#3B4249"/><path d="M117.187 96.774s2.13 2.675 3.627 5.095c.91 1.471.229 3.41-1.396 4.003-1.727.63-4.016 1.035-6.085.002l5.322-3.135-1.468-5.965z" fill="#010202" opacity=".1"/><path d="M143.233 103.818a6.64 6.64 0 0 1-6.642 6.638 6.64 6.64 0 0 1-6.642-6.638 6.64 6.64 0 0 1 6.642-6.638 6.64 6.64 0 0 1 6.642 6.638m-43.14 0a6.64 6.64 0 0 1-6.642 6.638 6.64 6.64 0 0 1-6.642-6.638 6.64 6.64 0 0 1 6.642-6.638 6.64 6.64 0 0 1 6.642 6.638" fill="#D1C0B4"/><path d="M141.565 83.019a7.794 7.794 0 0 1-.698-1.23 7.413 7.413 0 0 1-.181-.37 1.75 1.75 0 0 1-1.175-.159c.655.77 1.412 1.473 2.249 1.997a2.58 2.58 0 0 1-.195-.238" fill="#FEB"/><path d="M87.505 233.716c-.76 0-1.376-.616-1.376-1.376v-34.118a1.376 1.376 0 0 1 2.753 0v34.118c0 .76-.617 1.376-1.377 1.376" fill="#3B4249"/><path fill="#C3B3A5" d="M66.076 232.663h21.429V210.08h-21.43z"/><path fill="#010202" opacity=".1" d="M66.076 215.281h21.429v-5.202h-21.43z"/><path d="M67.414 231.326h18.753v-19.91H67.414v19.91zM87.505 234H66.076a1.337 1.337 0 0 1-1.338-1.337V210.08c0-.739.599-1.337 1.338-1.337h21.429c.739 0 1.338.598 1.338 1.337v22.584c0 .739-.599 1.337-1.338 1.337zm54.344-.284c-.76 0-1.377-.616-1.377-1.376v-34.118a1.376 1.376 0 0 1 2.753 0v34.118c0 .76-.616 1.376-1.376 1.376" fill="#3B4249"/><path fill="#C3B3A5" d="M141.848 232.663h21.43V210.08h-21.43z"/><path fill="#010202" d="M141.848 215.281h21.43v-5.202h-21.43z"/><path d="M143.186 231.326h18.754v-19.91h-18.754v19.91zM163.278 234h-21.43a1.337 1.337 0 0 1-1.337-1.337V210.08c0-.739.598-1.337 1.337-1.337h21.43c.739 0 1.338.598 1.338 1.337v22.584c0 .739-.6 1.337-1.338 1.337z" fill="#3B4249"/><path d="M123.062 53.462a.612.612 0 0 1-.091-1.216c3.38-.51 5.57-2.057 5.592-2.072a.61.61 0 1 1 .715.992c-.098.07-2.436 1.732-6.124 2.29a.654.654 0 0 1-.092.006m-22.37.155a.61.61 0 0 1-.31-1.139c1.362-.798 8.052-3.27 15.891-.778a.61.61 0 1 1-.37 1.165c-7.334-2.332-13.716-.027-14.902.668a.615.615 0 0 1-.31.084m5.119-6.741a.612.612 0 0 1-.326-1.13c.874-.546 5.185-2.284 10.318-.813 4.37 1.254 7.597-1.139 7.629-1.163a.613.613 0 0 1 .856.116.61.61 0 0 1-.113.856c-.15.115-3.73 2.794-8.71 1.367-4.65-1.335-8.602.218-9.33.673a.61.61 0 0 1-.324.094" fill="#75645A"/><g transform="translate(216.11 43.743)"><mask id="b" fill="#fff"><use xlink:href="#a"/></mask><path d="M102.666 149.309a27.803 27.803 0 0 0-.069-.994c-.006-.066-.016-.132-.023-.198-.012-.123-.029-.244-.043-.366-.037-.34-.08-.678-.13-1.014-.02-.141-.045-.281-.068-.421-.032-.192-.059-.385-.094-.576-.023-.123-.053-.244-.077-.366a29.205 29.205 0 0 0-.675-2.683c-.042-.138-.083-.275-.126-.412-.1-.31-.206-.617-.316-.923-.043-.12-.083-.24-.128-.358a28.37 28.37 0 0 0-.409-1.026l-.091-.225a28.848 28.848 0 0 0-1.184-2.434c-.057-.105-.119-.206-.177-.31a27.563 27.563 0 0 0-.485-.836c-.085-.14-.175-.278-.262-.417a27.342 27.342 0 0 0-.45-.696c-.103-.153-.209-.303-.314-.454a28.87 28.87 0 0 0-1.645-2.136c-.148-.175-.3-.347-.452-.519a29.287 29.287 0 0 0-.433-.48l-.021-.023c-.04-.043-.078-.087-.119-.13-.1-.107-.207-.21-.31-.316-.159-.163-.315-.327-.477-.486-.14-.136-.283-.268-.425-.402-.18-.17-.359-.342-.543-.508-.067-.06-.137-.117-.204-.176a29.244 29.244 0 0 0-1.632-1.337c-.038-.03-.074-.06-.112-.088a28.82 28.82 0 0 0-.778-.56c-.094-.065-.186-.134-.281-.199a28.282 28.282 0 0 0-.779-.51c-.103-.067-.205-.134-.31-.199a30.106 30.106 0 0 0-.804-.48l-.308-.176a29.488 29.488 0 0 0-2.037-1.04c-.074-.035-.15-.068-.224-.102-.33-.148-.661-.293-.997-.43l-.098-.038a28.835 28.835 0 0 0-10.806-2.099h-4.656c-2.251 0-4.076-1.807-4.076-4.045v-12.808c16.21-2.598 28.694-16.65 28.694-33.464V58.912c.82-6.898-.7 21.294 6.864 27.542 4.57-10.973 9.87-17.203 8.747-31.8-.769-9.979-.422-16.994-6.567-28.592C96.18 13.65 87.332 6.044 71.657 1.44c-8.92-2.62-25.096-1.445-34.95 3.668-7.994 4.148-21.739 13.69-29.25 32.291C.775 53.942-4.56 74.247 8.11 88.8c4.939-5.799 9.28-11.074 9.413-19.27v2.32c0 16.875 12.572 30.97 28.867 33.496v12.776c0 2.238-1.825 4.045-4.07 4.045h-4.135a28.579 28.579 0 0 0-16.67 5.34c-1.291.865-2.532 1.862-3.629 3.009-.28.293-.549.596-.813.904a28.76 28.76 0 0 0-7.05 13.663 37.528 37.528 0 0 0-.763 2.795v19.547l.158.002v21.46h.087v.307h20.52v-.307l72.691 1.047v-1.048h.002v-37.93c0-.484-.015-.964-.039-1.443l-.014-.203" fill="#010202" opacity=".1" mask="url(#b)"/></g><g transform="translate(125.664 36.548)"><mask id="d" fill="#fff"><use xlink:href="#c"/></mask><path d="M41.538 151.25v-.546c0-.494-.014-.985-.038-1.473-.008-.163-.023-.323-.033-.484a28.94 28.94 0 0 0-.075-.973c-.019-.19-.044-.38-.066-.57-.034-.29-.068-.58-.111-.866-.03-.202-.064-.4-.097-.6a28.88 28.88 0 0 0-.833-3.59c-.06-.198-.118-.397-.181-.594a27.23 27.23 0 0 0-.26-.761c-.067-.192-.132-.385-.203-.574-.097-.26-.202-.516-.306-.772-.072-.178-.14-.357-.216-.534a29.77 29.77 0 0 0-.421-.926 27.744 27.744 0 0 0-.376-.769c-.13-.257-.259-.516-.396-.769-.11-.202-.226-.4-.341-.6-.114-.2-.226-.4-.344-.596-.126-.21-.258-.416-.39-.622-.114-.18-.227-.36-.345-.538-.14-.21-.285-.418-.43-.625a30.503 30.503 0 0 0-1.697-2.2c-.113-.133-.229-.264-.344-.396-.19-.215-.379-.43-.574-.64-.102-.109-.206-.216-.31-.323-.215-.226-.43-.451-.653-.67-.064-.063-.13-.123-.195-.185a30.546 30.546 0 0 0-3.817-3.137l-.052-.037a33.625 33.625 0 0 0-.977-.645l-.151-.096a29.906 29.906 0 0 0-.978-.586l-.174-.1a31.7 31.7 0 0 0-1.01-.548l-.155-.079a29.735 29.735 0 0 0-1.073-.522l-.087-.04a29.947 29.947 0 0 0-12.502-2.73H6.471a4.242 4.242 0 0 1-4.25-4.24v-13.421c16.905-2.723 29.925-17.449 29.925-35.069V53.411c1.65-6.307 4.474-28.479-3.676-38.958C25.308 10.386 12.484.554-6.025.163c-16.406-.348-30.712 10.447-34.478 14.29-11.383 11.617-7.138 40.665-7.138 40.665l.328-.362v13.048c0 17.684 13.112 32.456 30.106 35.101v13.389a4.241 4.241 0 0 1-4.245 4.24h-4.31c-4.455 0-8.688.983-12.503 2.73l-.087.04c-.362.167-.72.341-1.073.522-.052.027-.103.052-.154.08-.341.176-.679.358-1.012.547l-.172.1a29.5 29.5 0 0 0-.98.586l-.148.096c-.33.21-.658.423-.98.645l-.049.036a30.541 30.541 0 0 0-3.819 3.138l-.195.185c-.222.22-.439.445-.654.67-.103.108-.207.214-.308.323-.196.21-.386.425-.575.64a29.137 29.137 0 0 0-1.215 1.474 29.401 29.401 0 0 0-1.256 1.747c-.118.178-.231.358-.346.538-.131.206-.263.412-.39.622-.117.196-.23.396-.343.595-.114.2-.231.399-.341.601-.137.253-.266.512-.396.77a30.384 30.384 0 0 0-.797 1.695c-.075.176-.144.355-.216.533-.104.256-.209.512-.306.772-.072.19-.136.383-.204.575-.089.252-.177.504-.259.76a24.01 24.01 0 0 0-.18.595 27.996 27.996 0 0 0-.687 2.77c-.053.272-.101.545-.147.818-.033.2-.067.4-.097.6a31.1 31.1 0 0 0-.111.867c-.022.19-.047.38-.066.57a30.17 30.17 0 0 0-.074.973c-.011.16-.026.321-.034.484-.024.488-.038.979-.038 1.473v45.993h97.512V151.25z" fill="#010202" opacity=".1" mask="url(#d)"/></g><path d="M247.326 182.315v50.086H140.07v-50.086c0-18.284 14.952-33.252 33.23-33.252h4.742a4.67 4.67 0 0 0 4.669-4.673v-16.71h21.368v16.71a4.671 4.671 0 0 0 4.676 4.673h5.34c18.278 0 33.23 14.968 33.23 33.252z" fill="#FBE3D5"/><path d="M234.82 26.044c-3.482-4.475-6.686-5.654-9.952-7.45-9.109-5.011-13.948-15.268-23.349-16.274-14.199-1.519-17.15 9.086-36.084 17.834-11.822 5.462-12.456 6.216-16.603 10.445-12.536 12.783.047 46.717.047 46.717l14.61-16.124 65.067 3.328 7.421 12.796c1.105.25 9.41-37.694-1.156-51.272" fill="#C3996B"/><path d="M199.27 3.082c-6.375 0-10.222 2.928-15.732 7.122-4.173 3.176-9.365 7.13-17.13 10.717-11.408 5.27-12.112 5.988-16.014 9.968l-.196.2c-10.134 10.332-2.749 36.006-.351 43.349l13.157-14.519c.253-.28.624-.437.997-.412l64.978 3.323a1.26 1.26 0 0 1 1.025.625l6.093 10.505c.908-3.474 2.307-10.698 2.872-19.002.638-9.386.324-21.953-4.79-28.525-2.767-3.553-5.31-4.88-8.002-6.286-.516-.27-1.033-.54-1.552-.825-3.85-2.118-6.902-5.075-9.852-7.936-4.04-3.916-7.856-7.615-12.992-8.165a23.712 23.712 0 0 0-2.51-.14m-49.925 75.036a1.265 1.265 0 0 1-1.18-.82c-.524-1.414-12.694-34.782.234-47.964l.195-.199c4.08-4.161 4.929-5.027 16.756-10.491 7.515-3.472 12.374-7.171 16.661-10.435 6.195-4.715 11.09-8.439 20.037-7.482 5.998.641 10.117 4.633 14.477 8.86 2.832 2.744 5.76 5.583 9.314 7.538.502.277 1.003.538 1.504.799 2.812 1.468 5.72 2.986 8.821 6.97 5.622 7.223 5.987 20.505 5.304 30.376-.707 10.224-2.87 20.477-3.928 22.137-.526.824-1.274.729-1.492.68a1.26 1.26 0 0 1-.811-.595l-7.07-12.189-63.699-3.257-14.19 15.658c-.24.266-.58.414-.933.414" fill="#3B4249"/><path d="M174.122 29.353a1.245 1.245 0 0 1-.42-2.41c.13-.049 11.14-4.21 20.157-17.05a1.228 1.228 0 0 1 1.72-.297c.556.397.688 1.172.294 1.732-9.498 13.524-20.853 17.777-21.332 17.951-.138.05-.28.074-.42.074m11.245 0a1.3 1.3 0 0 1-.987-.442 1.154 1.154 0 0 1 .183-1.687c.064-.05 6.4-4.929 9.34-7.884a1.325 1.325 0 0 1 1.796-.054c.513.453.538 1.212.058 1.696-3.056 3.072-9.322 7.898-9.588 8.102-.236.18-.52.27-.802.27M198.2 18.961c-.37 0-.736-.146-.993-.429a1.155 1.155 0 0 1 .15-1.703c.044-.036 2.707-2.219 4.21-6.617.218-.637.949-.99 1.632-.786.684.203 1.061.884.843 1.521-1.749 5.117-4.872 7.623-5.004 7.728a1.35 1.35 0 0 1-.838.286m-3.23 10.392a1.27 1.27 0 0 1-1.137-.694 1.246 1.246 0 0 1 .568-1.68c.08-.04 8.047-4.05 10.426-11.154a1.274 1.274 0 0 1 1.606-.797 1.25 1.25 0 0 1 .808 1.583c-2.716 8.11-11.338 12.43-11.703 12.61a1.28 1.28 0 0 1-.567.132m-40.836 5.597c-.298 0-.597-.1-.837-.303a1.148 1.148 0 0 1-.101-1.681 21.154 21.154 0 0 1 4.13-3.414c.579-.364 1.36-.214 1.744.334.384.548.226 1.287-.352 1.65a18.664 18.664 0 0 0-3.645 3.015 1.287 1.287 0 0 1-.939.398m-6.464 14.389a1.06 1.06 0 0 1-.176-.014c-.652-.102-1.103-.75-1.008-1.446.034-.24.85-5.966 4.189-11.54.355-.595 1.095-.768 1.65-.389.556.38.719 1.169.364 1.762-3.052 5.096-3.83 10.485-3.838 10.538-.088.634-.598 1.09-1.18 1.09m78.424-21.585c-.31 0-.622-.12-.86-.36a18.398 18.398 0 0 0-3.715-2.918 1.255 1.255 0 0 1-.444-1.698 1.207 1.207 0 0 1 1.667-.451 20.844 20.844 0 0 1 4.211 3.304c.478.483.481 1.27.007 1.756a1.205 1.205 0 0 1-.866.367m7.912 11.192c-.614 0-1.162-.418-1.284-1.02-.01-.048-.74-3.382-4.357-8.166a1.233 1.233 0 0 1 .287-1.763 1.342 1.342 0 0 1 1.831.277c4.008 5.3 4.78 9.017 4.811 9.173.136.684-.33 1.345-1.04 1.476a1.37 1.37 0 0 1-.248.023" fill="#E4C09D"/><path d="M193.3 135.674c-8.054 0-10.807-4.407-10.807-4.407v-3.587h21.61v3.587s-2.75 4.407-10.803 4.407" fill="#D5B6A5"/><path d="M214.096 149.263h-.215c.014.306.024.613.024.923 0 11.138-9.045 20.168-20.203 20.168s-20.204-9.03-20.204-20.168c0-.31.01-.617.024-.923h-.221c-18.278 0-33.23 14.932-33.23 33.173V232.4h107.255v-49.965c0-18.24-14.952-33.173-33.23-33.173" fill="#EDD3C5"/><path d="M141.5 230.969h104.398v-48.65c0-17.529-14.252-31.79-31.769-31.79h-5.35a6.203 6.203 0 0 1-6.196-6.195v-15.222h-18.375v15.222a6.2 6.2 0 0 1-6.191 6.195h-4.75c-17.516 0-31.768 14.261-31.768 31.79v48.65zM247.411 234H139.985a1.515 1.515 0 0 1-1.515-1.516V182.32c0-19.2 15.61-34.82 34.797-34.82h4.75a3.167 3.167 0 0 0 3.162-3.165v-16.738c0-.837.679-1.515 1.515-1.515h21.403c.836 0 1.515.678 1.515 1.515v16.738a3.17 3.17 0 0 0 3.168 3.164h5.35c19.186 0 34.797 15.62 34.797 34.821v50.165c0 .837-.679 1.516-1.515 1.516z" fill="#3B4249"/><path d="M247.326 182.162v50.24H140.07v-50.24c0-16.495 12.097-30.294 27.829-32.899.145 14.182 11.636 25.638 25.802 25.638 14.159 0 25.656-11.456 25.796-25.638 15.731 2.605 27.828 16.404 27.828 32.9" fill="#84BDE1"/><path d="M236.12 65.199v25.877c0 21.451-17.575 39.002-39.058 39.002h-9.129c-21.482 0-39.057-17.55-39.057-39.002V64.36c0-3.653 1.847-10.201 4.607-15.844 2.759-5.643 6.436-10.37 10.089-10.37 0 0 14.99 5.848 30.64 5.848 14.642 0 30.014-5.848 30.014-5.848 7.311 0 11.894 19.751 11.894 27.052" fill="#FBE3D5"/><path d="M236.12 59.73l-10-12.798c-1.964-2.512-5.166-3.766-8.346-3.27l-13.467 3.695a24.51 24.51 0 0 1-3.328.691 64.74 64.74 0 0 1-16.252.046 27.424 27.424 0 0 1-4.157-.845l-12.655-3.611c-3.006-.486-6.053.594-8.053 2.854l-10.986 12.413c0-3.601 3.068-7.605 5.828-13.167 2.759-5.563 5.215-7.933 8.868-7.933 0 0 14.99 5.764 30.64 5.764 14.642 0 31.191-6.222 31.191-6.222 7.312 0 10.717 15.187 10.717 22.384m-43.522 62.324c37.032 0 43.522-31.148 43.522-31.148 0 21.544-17.575 39.17-39.058 39.17h-9.129c-21.481 0-39.057-17.626-39.057-39.17 0 0 6.575 31.148 43.722 31.148" fill="#D5B6A5"/><path d="M164.063 39.58c-2.518.221-5.673 3.748-8.5 9.53-2.586 5.289-4.463 11.687-4.463 15.213V91.09c0 20.715 16.878 37.567 37.625 37.567h9.147c20.746 0 37.624-16.852 37.624-37.567V65.163c0-8.089-4.778-25.083-10.163-25.584-2.278.839-16.479 5.849-30.316 5.849-14.755 0-28.687-4.997-30.954-5.849m33.81 92.098h-9.148c-22.415 0-40.65-18.208-40.65-40.588V64.323c0-3.994 1.961-10.795 4.77-16.538 4.78-9.777 9.238-11.237 11.468-11.237.188 0 .375.035.55.103.148.058 14.954 5.756 30.154 5.756 14.21 0 29.384-5.702 29.535-5.76.172-.066.355-.1.539-.1 3.907 0 7.41 4.088 10.133 11.82 2.165 6.148 3.297 13.103 3.297 16.796v25.926c0 22.38-18.235 40.588-40.649 40.588" fill="#3B4249"/><path d="M168.399 149.263a31.313 31.313 0 0 0-6.717 1.912c0 16.604 13.976 30.065 31.216 30.065 17.24 0 31.216-13.461 31.216-30.066 0-.076-.005-.15-.006-.227a31.327 31.327 0 0 0-6.13-1.684c-.133 13.72-11.181 24.802-24.787 24.802-13.61 0-24.652-11.082-24.792-24.802" fill="#B5DEF2"/><path d="M141.5 230.987h104.398v-48.36c0-7.504-2.722-14.79-7.663-20.518-4.512-5.23-10.59-8.855-17.259-10.328-1.07 14.022-12.946 25.145-27.275 25.145-14.325 0-26.203-11.124-27.28-25.145-6.669 1.473-12.747 5.098-17.26 10.328-4.94 5.728-7.662 13.014-7.662 20.517v48.36zM247.411 234H139.985a1.51 1.51 0 0 1-1.515-1.507v-49.867c0-8.222 2.981-16.206 8.393-22.479 5.352-6.204 12.72-10.345 20.748-11.663a1.52 1.52 0 0 1 1.221.333c.338.283.536.699.54 1.138.137 13.21 11.05 23.957 24.33 23.957 13.28 0 24.192-10.747 24.322-23.956.005-.44.202-.856.54-1.139a1.516 1.516 0 0 1 1.222-.333c8.027 1.318 15.396 5.46 20.747 11.663 5.413 6.273 8.394 14.257 8.394 22.48v49.866a1.51 1.51 0 0 1-1.515 1.507z" fill="#3B4249"/><path d="M170.487 69.323c1.198-1.912 3.437-3.197 6.003-3.197 2.565 0 4.805 1.286 6.003 3.197" fill="#FBE4D6"/><path d="M183.042 70.922c-.364 0-.717-.186-.912-.52a6.086 6.086 0 0 0-10.48 0 1.06 1.06 0 0 1-1.438.38 1.036 1.036 0 0 1-.384-1.424c1.455-2.487 4.16-4.032 7.062-4.032 2.901 0 5.607 1.545 7.062 4.033a1.036 1.036 0 0 1-.384 1.423 1.06 1.06 0 0 1-.526.14" fill="#3B4249"/><path d="M201.703 69.323c1.198-1.912 3.438-3.197 6.003-3.197s4.805 1.286 6.003 3.197" fill="#FBE4D6"/><path d="M213.457 70.922c-.363 0-.717-.186-.911-.52a6.086 6.086 0 0 0-10.48 0 1.06 1.06 0 0 1-1.439.38 1.036 1.036 0 0 1-.383-1.424c1.454-2.487 4.16-4.032 7.061-4.032 2.902 0 5.608 1.545 7.062 4.033a1.036 1.036 0 0 1-.384 1.423 1.06 1.06 0 0 1-.526.14m-21.672 22.383c-.711 0-1.288-.546-1.288-1.22 0-.672.577-1.219 1.288-1.219 1.486 0 3.273-.926 4.436-1.674-1.577-2.388-2.467-5.93-2.578-6.386-.159-.656.275-1.31.968-1.46.693-.15 1.385.259 1.544.915.309 1.273 1.417 4.897 2.816 6.367.233.245.35.57.328.899-.024.33-.188.635-.455.848-.15.12-3.701 2.93-7.059 2.93m-1.706 15.988c-.033 0-.066 0-.1-.004-9.504-.768-11.376-7.785-11.451-8.083a1.21 1.21 0 0 1 .887-1.469 1.22 1.22 0 0 1 1.477.875c.065.242 1.59 5.64 9.285 6.262.67.054 1.17.64 1.116 1.306a1.216 1.216 0 0 1-1.214 1.113" fill="#3B4249"/><path d="M193.14 161.254a1.1 1.1 0 0 1-.778-.328l-3.881-3.837c-.478-.473-.517-1.281-.086-1.806.43-.525 1.166-.568 1.644-.095l3.048 3.013 2.614-2.954a1.092 1.092 0 0 1 1.647-.026 1.37 1.37 0 0 1 .023 1.809l-3.395 3.837a1.114 1.114 0 0 1-.835.387" fill="#010202" opacity=".1"/><path d="M170.406 172.446a.873.873 0 0 1-.64-.28 32.725 32.725 0 0 1-3.127-3.92.897.897 0 0 1 .228-1.24.875.875 0 0 1 1.225.231 30.983 30.983 0 0 0 2.955 3.706.899.899 0 0 1-.037 1.26.873.873 0 0 1-.604.243m19.209 9.593a.916.916 0 0 1-.103-.006 32.16 32.16 0 0 1-14.645-5.577.887.887 0 0 1-.22-1.233c.28-.4.83-.5 1.23-.22a30.39 30.39 0 0 0 13.84 5.27.885.885 0 0 1-.102 1.766m6.592 0a.904.904 0 0 1-.904-.822.901.901 0 0 1 .828-.972c8.836-.745 16.982-5.205 22.347-12.238a.915.915 0 0 1 1.273-.176c.4.299.48.862.178 1.258-5.676 7.44-14.294 12.158-23.644 12.947a.918.918 0 0 1-.078.003m23.994-15.189a.933.933 0 0 1-.472-.127c-.416-.243-.543-.754-.281-1.142.495-.735.96-1.5 1.38-2.273.223-.409.758-.572 1.197-.365.438.207.614.705.392 1.114a30.083 30.083 0 0 1-1.461 2.405.906.906 0 0 1-.755.388m3.294-4.796c-.118 0-.236-.02-.352-.063-.506-.185-.759-.728-.564-1.21a31.277 31.277 0 0 0 1.203-3.616c.134-.502.668-.806 1.193-.677.525.127.843.637.71 1.139a33.048 33.048 0 0 1-1.274 3.826.982.982 0 0 1-.916.6m-59.447 1.6a.835.835 0 0 1-.754-.48 31.177 31.177 0 0 1-1.572-4.01.851.851 0 0 1 .543-1.066.834.834 0 0 1 1.05.55 29.46 29.46 0 0 0 1.486 3.788c.2.422.026.93-.39 1.133a.82.82 0 0 1-.363.085" fill="#3B4249"/><path d="M196.4 82.913s2.377 2.856 4.048 5.441c1.015 1.57.256 3.642-1.558 4.275-1.928.673-4.484 1.105-6.792.001l5.94-3.347-1.638-6.37z" fill="#010202" opacity=".1"/><path d="M225.715 91.307c0 4.194-3.405 7.594-7.604 7.594-4.2 0-7.604-3.4-7.604-7.594 0-4.194 3.404-7.594 7.604-7.594s7.604 3.4 7.604 7.594m-48.025 0c0 4.194-3.404 7.594-7.604 7.594s-7.603-3.4-7.603-7.594c0-4.194 3.404-7.594 7.603-7.594 4.2 0 7.604 3.4 7.604 7.594" fill="#F5D0C0"/><path d="M222.305 67.439a9.728 9.728 0 0 1-.746-1.477 8.927 8.927 0 0 1-.193-.444c-.42.094-.854.045-1.254-.192.7.925 1.508 1.769 2.401 2.399a3.041 3.041 0 0 1-.208-.286" fill="#FEB"/><path d="M163.283 194.03v37.572" fill="#85BEE1"/><path d="M163.283 233.2c-.884 0-1.6-.68-1.6-1.52v-37.728c0-.84.716-1.52 1.6-1.52.884 0 1.6.68 1.6 1.52v37.727c0 .84-.716 1.522-1.6 1.522" fill="#3B4249"/><path fill="#FBE3D5" d="M140.071 231.602h23.212V206.82h-23.212z"/><path fill="#010202" opacity=".1" d="M140.071 212.416h23.212v-5.596h-23.212z"/><path d="M141.403 230.238h20.55v-22.054h-20.55v22.054zm22.015 2.963h-23.482a1.475 1.475 0 0 1-1.466-1.481v-25.017c0-.819.657-1.481 1.466-1.481h23.482c.81 0 1.466.662 1.466 1.48v25.018c0 .817-.657 1.48-1.466 1.48z" fill="#3B4249"/><path d="M223.314 194.03v37.572" fill="#85BEE1"/><path d="M223.314 233.2c-.884 0-1.601-.68-1.601-1.52v-37.728c0-.84.717-1.52 1.6-1.52.885 0 1.601.68 1.601 1.52v37.727c0 .84-.716 1.522-1.6 1.522" fill="#3B4249"/><path fill="#FBE3D5" d="M223.314 231.602h23.211V206.82h-23.211z"/><path fill="#010202" opacity=".1" d="M223.314 212.416h23.211v-5.596h-23.211z"/><path d="M224.645 230.238h20.55v-22.054h-20.55v22.054zm22.015 2.963h-23.48c-.81 0-1.466-.664-1.466-1.481v-25.017c0-.819.656-1.481 1.466-1.481h23.481c.81 0 1.466.662 1.466 1.48v25.018c0 .817-.656 1.48-1.466 1.48zm124.386-.001h-17.724c-.63 0-1.143-.536-1.143-1.199 0-.662.512-1.199 1.143-1.199h17.724c.632 0 1.143.537 1.143 1.2 0 .662-.511 1.199-1.143 1.199M22.069 234H4.345c-.631 0-1.143-.537-1.143-1.2 0-.661.512-1.198 1.143-1.198h17.724c.631 0 1.143.537 1.143 1.199S22.7 234 22.069 234m324.981-.8h-32.163c-.623 0-1.127-.536-1.127-1.199 0-.662.504-1.199 1.127-1.199h32.163c.623 0 1.127.537 1.127 1.2 0 .662-.504 1.199-1.127 1.199m-48.018-.001H255.65c-.619 0-1.12-.536-1.12-1.199 0-.662.501-1.199 1.12-1.199h43.382c.62 0 1.12.537 1.12 1.2 0 .662-.5 1.199-1.12 1.199m-82.464-.001h-17.724c-.631 0-1.143-.536-1.143-1.199 0-.662.512-1.199 1.143-1.199h17.724c.631 0 1.143.537 1.143 1.2 0 .662-.512 1.199-1.143 1.199m-25.598-.001h-32.163c-.622 0-1.127-.536-1.127-1.199 0-.662.505-1.199 1.127-1.199h32.164c.622 0 1.127.537 1.127 1.2 0 .662-.505 1.199-1.127 1.199M82.913 234H38.75c-.624 0-1.13-.537-1.13-1.199s.506-1.2 1.13-1.2h44.164c.624 0 1.13.538 1.13 1.2 0 .662-.506 1.199-1.13 1.199" fill="#3B4249"/></g></svg>