<?xml version="1.0" encoding="utf-8"?>
<!-- Generator: Adobe Illustrator 16.0.0, SVG Export Plug-In . SVG Version: 6.00 Build 0)  -->
<!DOCTYPE svg PUBLIC "-//W3C//DTD SVG 1.1//EN" "http://www.w3.org/Graphics/SVG/1.1/DTD/svg11.dtd">
<svg version="1.1" id="Layer_1" xmlns="http://www.w3.org/2000/svg" xmlns:xlink="http://www.w3.org/1999/xlink" x="0px" y="0px"
	 width="1170px" height="1170px" viewBox="0 0 1170 1170" enable-background="new 0 0 1170 1170" xml:space="preserve">
<path fill="#D2E9F7" d="M429.767,474.311L429.767,474.311c0,6.06,4.913,10.972,10.972,10.972h53.431c5.008,0,9.068,4.06,9.068,9.068
	l0,0c0,5.008-4.06,9.068-9.068,9.068h-92.701c-7.707,0-13.955,6.248-13.955,13.955l0,0c0,7.707,6.248,13.955,13.955,13.955h44.358
	c6.104,0,11.054,4.949,11.054,11.054v0c0,6.104-4.949,11.054-11.054,11.054h-3.078c-10.553,0-19.108,8.555-19.108,19.108l0,0
	c0,10.554,8.555,19.109,19.108,19.109h233.768c6.963,0,12.607-5.645,12.607-12.607l0,0c0-6.963-5.645-12.607-12.607-12.607h-6.741
	c-5.336,0-9.662-4.326-9.662-9.662l0,0c0-5.336,4.326-9.662,9.662-9.662h52.641c7.398,0,13.397-5.998,13.397-13.397l0,0
	c0-7.399-5.999-13.397-13.397-13.397h-39.407c-6.583,0-11.92-5.336-11.92-11.92l0,0c0-6.583,5.337-11.919,11.92-11.919h84.688
	c9.152,0,16.571-7.419,16.571-16.572l0,0c0-9.152-7.419-16.572-16.571-16.572H440.739
	C434.679,463.339,429.767,468.251,429.767,474.311z"/>
<circle id="XMLID_584_" fill="#5FB0E5" cx="417.963" cy="492.031" r="1.003"/>
<circle id="XMLID_6_" fill="#5FB0E5" cx="614.823" cy="513.811" r="1.15"/>
<circle id="XMLID_21_" fill="#5FB0E5" cx="551.225" cy="488.229" r="1.003"/>
<circle id="XMLID_25_" fill="#5FB0E5" cx="675.025" cy="475.511" r="1.003"/>
<circle id="XMLID_32_" fill="#5FB0E5" cx="408.575" cy="552.033" r="1.003"/>
<circle id="XMLID_13_" fill="#5FB0E5" cx="460.993" cy="523.534" r="0.957"/>
<circle id="XMLID_22_" fill="#5FB0E5" cx="395.66" cy="535.433" r="1.397"/>
<circle id="XMLID_276_" fill="#5FB0E5" cx="378.447" cy="551.029" r="1.397"/>
<circle id="XMLID_7_" fill="#5FB0E5" cx="627.389" cy="508.97" r="1.397"/>
<circle id="XMLID_24_" fill="#5FB0E5" cx="781.756" cy="511.065" r="1.668"/>
<path id="XMLID_17_" fill="#5FB0E5" d="M466.829,469.291c-1.753,0.465-2.131,0.842-2.596,2.596
	c-0.465-1.753-0.842-2.131-2.596-2.596c1.753-0.465,2.13-0.843,2.596-2.596C464.698,468.448,465.075,468.825,466.829,469.291z"/>
<path id="XMLID_3_" fill="#5FB0E5" d="M761.9,540.852c-1.753,0.465-2.131,0.842-2.596,2.596c-0.466-1.754-0.843-2.131-2.596-2.596
	c1.753-0.465,2.13-0.842,2.596-2.596C759.77,540.009,760.147,540.386,761.9,540.852z"/>
<path id="XMLID_123_" fill="#5FB0E5" d="M675.025,449.197c-1.754,0.465-2.131,0.843-2.597,2.596
	c-0.465-1.753-0.843-2.131-2.596-2.596c1.753-0.465,2.131-0.842,2.596-2.596C672.895,448.354,673.271,448.731,675.025,449.197z"/>
<path id="XMLID_23_" fill="#5FB0E5" d="M557.361,506.463c-1.623,0.43-1.971,0.779-2.402,2.401c-0.43-1.622-0.779-1.971-2.401-2.401
	c1.622-0.431,1.971-0.779,2.401-2.402C555.39,505.684,555.738,506.032,557.361,506.463z"/>
<path id="XMLID_1_" fill="#5FB0E5" d="M571.131,486.101c-2.339,0.62-2.842,1.123-3.462,3.461c-0.62-2.338-1.123-2.841-3.461-3.461
	c2.338-0.621,2.841-1.124,3.461-3.461C568.289,484.978,568.792,485.48,571.131,486.101z"/>
<path id="XMLID_4_" fill="#5FB0E5" d="M744.117,514.527c-2.338,0.62-2.841,1.123-3.462,3.461c-0.62-2.338-1.123-2.841-3.461-3.461
	c2.338-0.621,2.841-1.124,3.461-3.461C741.276,513.403,741.779,513.906,744.117,514.527z"/>
<path id="XMLID_18_" fill="#5FB0E5" d="M458.232,493.16c-1.421,0.377-1.726,0.683-2.104,2.104c-0.376-1.421-0.682-1.727-2.103-2.104
	c1.421-0.377,1.727-0.683,2.103-2.103C456.506,492.477,456.811,492.783,458.232,493.16z"/>
<path id="XMLID_16_" fill="#5FB0E5" d="M681.002,530.202c-1.421,0.377-1.727,0.683-2.104,2.104
	c-0.377-1.421-0.683-1.727-2.104-2.104c1.421-0.377,1.727-0.683,2.104-2.104C679.275,529.52,679.581,529.825,681.002,530.202z"/>
<path id="XMLID_8_" fill="#5FB0E5" d="M714.524,476.687c-1.421,0.377-1.727,0.682-2.104,2.103c-0.377-1.421-0.682-1.726-2.103-2.103
	c1.421-0.377,1.726-0.683,2.103-2.104C712.798,476.004,713.104,476.31,714.524,476.687z"/>
<path id="XMLID_2_" fill="#5FB0E5" d="M737.194,555.032c-1.421,0.377-1.727,0.683-2.104,2.104c-0.377-1.421-0.683-1.727-2.103-2.104
	c1.42-0.377,1.726-0.683,2.103-2.103C735.468,554.349,735.773,554.655,737.194,555.032z"/>
<path id="XMLID_29_" fill="#5FB0E5" d="M544.397,469.349c-2.675,0.709-3.25,1.285-3.96,3.96c-0.709-2.675-1.285-3.25-3.96-3.96
	c2.675-0.71,3.25-1.285,3.96-3.96C541.147,468.063,541.723,468.639,544.397,469.349z"/>
<path id="XMLID_28_" fill="#5FB0E5" d="M435.965,456.825c-2.126,0.564-2.583,1.021-3.147,3.147
	c-0.564-2.126-1.021-2.583-3.147-3.147c2.126-0.564,2.583-1.021,3.147-3.147C433.382,455.804,433.839,456.261,435.965,456.825z"/>
<path id="XMLID_19_" fill="#5FB0E5" d="M636.804,471.886c-2.209,0.586-2.684,1.062-3.27,3.271c-0.587-2.209-1.062-2.684-3.271-3.271
	c2.209-0.586,2.684-1.061,3.271-3.271C634.12,470.825,634.595,471.3,636.804,471.886z"/>
<path fill="#D2E9F7" d="M413.536,486.101h-23.708c-6.285,0-11.381-5.096-11.381-11.381l0,0c0-6.286,5.096-11.381,11.381-11.381
	h23.708c6.286,0,11.381,5.095,11.381,11.381l0,0C424.917,481.005,419.822,486.101,413.536,486.101z"/>
<path fill="#D2E9F7" d="M745.328,586.127H721.62c-6.286,0-11.381-5.096-11.381-11.381l0,0c0-6.285,5.095-11.381,11.381-11.381
	h23.708c6.285,0,11.381,5.096,11.381,11.381l0,0C756.709,581.031,751.613,586.127,745.328,586.127z"/>
<path fill="#D2E9F7" d="M406.203,580.882h-41.89c-6.285,0-11.381-5.095-11.381-11.38l0,0c0-6.286,5.096-11.381,11.381-11.381h41.89
	c6.286,0,11.381,5.095,11.381,11.381l0,0C417.583,575.787,412.488,580.882,406.203,580.882z"/>
<g>
	<g id="XMLID_36_">
		<g id="XMLID_784_">
			<polygon id="XMLID_796_" fill="#D2E9F7" points="604.295,456.825 598.044,456.825 591.793,456.825 585.542,456.825 
				582.417,462.239 594.918,476.458 607.42,462.239 			"/>
			<polygon id="XMLID_58_" fill="#9ECFEF" points="588.668,462.239 585.542,456.825 582.685,462.277 			"/>
			<polygon id="XMLID_57_" fill="#9ECFEF" points="594.822,462.071 591.793,456.825 588.77,462.062 			"/>
			<polygon id="XMLID_56_" fill="#9ECFEF" points="601.218,462.239 597.972,457.009 595.211,462.277 			"/>
			<polygon id="XMLID_55_" fill="#9ECFEF" points="594.918,462.239 594.918,475.51 601.026,462.239 			"/>
			<polygon id="XMLID_54_" fill="#5FB0E5" points="582.685,462.239 582.685,462.371 594.634,475.81 588.391,462.239 			"/>
			<polygon id="XMLID_53_" fill="#5FB0E5" points="606.924,462.239 606.924,462.371 594.976,475.81 601.218,462.239 			"/>
			<polyline id="XMLID_52_" fill="none" stroke="#0686D8" stroke-width="1.5" stroke-miterlimit="10" points="599.192,456.825 
				591.793,456.825 585.542,456.825 582.417,462.239 594.918,476.458 607.42,462.239 604.295,456.825 603.062,456.825 			"/>
			
				<line id="XMLID_51_" fill="none" stroke="#0686D8" stroke-width="1.5" stroke-miterlimit="10" x1="602.044" y1="456.825" x2="600.008" y2="456.825"/>
			
				<line id="XMLID_794_" fill="none" stroke="#0686D8" stroke-width="1.5" stroke-miterlimit="10" x1="582.417" y1="462.239" x2="607.42" y2="462.239"/>
			
				<line id="XMLID_50_" fill="none" stroke="#0686D8" stroke-width="1.5" stroke-miterlimit="10" x1="594.918" y1="476.458" x2="588.668" y2="462.239"/>
			
				<line id="XMLID_49_" fill="none" stroke="#0686D8" stroke-width="1.5" stroke-miterlimit="10" x1="594.919" y1="476.133" x2="601.169" y2="461.914"/>
			
				<line id="XMLID_791_" fill="none" stroke="#0686D8" stroke-width="1.5" stroke-miterlimit="10" x1="594.918" y1="462.239" x2="594.918" y2="476.133"/>
			
				<line id="XMLID_477_" fill="none" stroke="#0686D8" stroke-width="1.5" stroke-miterlimit="10" x1="585.542" y1="456.825" x2="588.668" y2="462.239"/>
			
				<line id="XMLID_48_" fill="none" stroke="#0686D8" stroke-width="1.5" stroke-miterlimit="10" x1="591.793" y1="456.825" x2="594.919" y2="462.239"/>
			
				<line id="XMLID_788_" fill="none" stroke="#0686D8" stroke-width="1.5" stroke-miterlimit="10" x1="598.044" y1="456.825" x2="601.17" y2="462.239"/>
			
				<line id="XMLID_787_" fill="none" stroke="#0686D8" stroke-width="1.5" stroke-miterlimit="10" x1="604.295" y1="456.825" x2="601.169" y2="462.239"/>
			
				<line id="XMLID_786_" fill="none" stroke="#0686D8" stroke-width="1.5" stroke-miterlimit="10" x1="598.044" y1="456.825" x2="594.918" y2="462.239"/>
			
				<line id="XMLID_785_" fill="none" stroke="#0686D8" stroke-width="1.5" stroke-miterlimit="10" x1="591.794" y1="456.825" x2="588.668" y2="462.239"/>
		</g>
		<path id="XMLID_979_" fill="#FFFFFF" d="M599.677,477.961l4.581-4.89c1.1-1.437,3.437,0.05,2.198,1.404l-3.651,5.067l1.772-0.008
			l4.222-4.51c0,0,0.403-2.824,0.509-3.22l0.101-3.607c-0.279-0.62-0.006-1.348,0.613-1.629c0.619-0.282,1.348-0.007,1.629,0.613
			l0.029,4.068c0.145,0.322,0.108,5.179,0.108,5.179l-5.072,10.489h-7.71l-0.013-7.511
			C599.054,478.946,599.36,478.299,599.677,477.961z"/>
		<path id="XMLID_978_" fill="none" stroke="#0686D8" stroke-width="1.5" stroke-miterlimit="10" d="M599.677,477.961l4.581-4.89
			c1.1-1.437,3.437,0.05,2.198,1.404l-3.651,5.067l1.772-0.008l4.402-4.703c0,0,0.263-2.844,0.367-3.241l-0.07-3.559
			c0.087-0.725-0.006-1.348,0.613-1.629s1.348-0.007,1.63,0.613l0.16,4.232c0.145,0.322,0.108,5.179,0.108,5.179l-5.072,10.489
			h-7.71l-0.013-7.511C599.054,478.946,599.36,478.299,599.677,477.961z"/>
		<path id="XMLID_977_" fill="#C5E2F5" d="M608.434,591.236V488.269c0-0.494-0.4-0.895-0.895-0.895h-10.312
			c-0.494,0-0.895,0.401-0.895,0.895v102.967H608.434z"/>
		<path id="XMLID_40_" fill="#FFFFFF" d="M589.879,477.961l-4.581-4.89c-1.1-1.437-3.437,0.05-2.197,1.404l3.65,5.067l-1.772-0.008
			l-4.222-4.51c0,0-0.403-2.824-0.509-3.22l-0.101-3.607c0.279-0.62,0.006-1.348-0.613-1.629c-0.619-0.282-1.348-0.007-1.629,0.613
			l-0.028,4.068c-0.146,0.322-0.109,5.179-0.109,5.179l5.072,10.489h7.71l0.013-7.511
			C590.502,478.946,590.195,478.299,589.879,477.961z"/>
		<path id="XMLID_39_" fill="none" stroke="#0686D8" stroke-width="1.5" stroke-miterlimit="10" d="M589.879,477.961l-4.581-4.89
			c-1.1-1.437-3.437,0.05-2.197,1.404l3.65,5.067l-1.772-0.008l-4.402-4.703c0,0-0.263-2.844-0.367-3.241l0.07-3.559
			c-0.087-0.725,0.006-1.348-0.613-1.629s-1.348-0.007-1.63,0.613l-0.159,4.232c-0.146,0.322-0.109,5.179-0.109,5.179l5.072,10.489
			h7.71l0.013-7.511C590.502,478.946,590.195,478.299,589.879,477.961z"/>
		<path id="XMLID_38_" fill="#C5E2F5" d="M581.122,591.236V488.269c0-0.494,0.4-0.895,0.895-0.895h10.312
			c0.494,0,0.895,0.401,0.895,0.895v102.967H581.122z"/>
		<path id="XMLID_37_" fill="none" stroke="#0686D8" stroke-width="1.5" stroke-miterlimit="10" d="M608.434,539.236v-50.967
			c0-0.494-0.4-0.895-0.895-0.895h-10.312c-0.494,0-0.895,0.401-0.895,0.895v79.967"/>
		<path id="XMLID_467_" fill="none" stroke="#0686D8" stroke-width="1.5" stroke-miterlimit="10" d="M581.122,514.236v-25.967
			c0-0.494,0.4-0.895,0.895-0.895h10.312c0.494,0,0.895,0.401,0.895,0.895v79.967"/>
	</g>
	<path opacity="0.3" fill="#03436C" d="M596.479,591.236h11.954v-51.319h-7.319c-1.348,0-2.443,1.096-2.443,2.443v28.583h0.75
		v15.041h-3.089v5.003C596.378,591.073,596.428,591.154,596.479,591.236z"/>
	<g id="XMLID_9_">
		<g id="XMLID_10_">
			<path id="XMLID_336_" fill="#5FB0E5" d="M668.548,589.636h-66.127c-0.55,0-1-0.45-1-1v-46.968c0-0.55,0.45-1,1-1h66.127
				c0.55,0,1,0.45,1,1v46.968C669.548,589.186,669.098,589.636,668.548,589.636z"/>
			
				<line id="XMLID_335_" fill="none" stroke="#0686D8" stroke-width="1.5" stroke-miterlimit="10" x1="634.703" y1="540.667" x2="641.408" y2="540.667"/>
			<path id="XMLID_294_" fill="none" stroke="#0686D8" stroke-width="1.5" stroke-miterlimit="10" d="M601.421,570.943V542.36
				c0-0.931,0.762-1.692,1.693-1.692h28.881"/>
			
				<line id="XMLID_297_" fill="none" stroke="#0686D8" stroke-width="1.5" stroke-miterlimit="10" x1="669.548" y1="578.356" x2="669.548" y2="587.943"/>
			<path id="XMLID_292_" fill="none" stroke="#0686D8" stroke-width="1.5" stroke-miterlimit="10" d="M644.778,540.667h23.077
				c0.931,0,1.692,0.761,1.692,1.692v10.59"/>
			<rect id="XMLID_333_" x="604.729" y="544.52" fill="#FFFFFF" width="61.141" height="39.737"/>
			<path id="XMLID_332_" fill="#FFFFFF" d="M668.357,592.354H601.86c-1.596,0-2.958-1.156-3.216-2.731l-0.474-2.889h30.82
				l1.179,1.692h8.517l1.274-1.692h32.468l-0.412,2.512C671.723,591.039,670.174,592.354,668.357,592.354z"/>
			<path id="XMLID_105_" fill="none" stroke="#0686D8" stroke-width="1.5" stroke-miterlimit="10" d="M668.357,592.354H601.86
				c-1.596,0-2.958-1.156-3.216-2.731l-0.474-2.889h30.82l1.179,1.692h8.517l1.274-1.692h32.468l-0.412,2.512
				C671.723,591.039,670.174,592.354,668.357,592.354z"/>
			<polyline id="XMLID_20_" fill="none" stroke="#0686D8" stroke-width="1.5" stroke-miterlimit="10" points="609.22,548.882 
				609.182,580.86 657.72,580.86 			"/>
			<polyline id="XMLID_15_" fill="none" stroke="#0686D8" stroke-width="1.5" stroke-miterlimit="10" points="609.22,570.209 
				613.301,570.209 618.001,565.126 623.084,570.209 633.782,561.178 642.508,570.209 659.407,556.067 			"/>
			<polyline id="XMLID_14_" fill="none" stroke="#0686D8" stroke-width="1.5" stroke-miterlimit="10" points="654.972,555.412 
				660.052,555.412 660.052,560.757 			"/>
			
				<line id="XMLID_12_" fill="none" stroke="#0686D8" stroke-width="1.5" stroke-miterlimit="10" x1="614.366" y1="550.648" x2="627.39" y2="550.648"/>
			
				<line id="XMLID_11_" fill="none" stroke="#0686D8" stroke-width="1.5" stroke-miterlimit="10" x1="614.366" y1="556.067" x2="620.878" y2="556.067"/>
		</g>
	</g>
	<g id="XMLID_358_">
		<g id="XMLID_315_">
			<path id="XMLID_348_" fill="#D2E9F7" d="M454.533,547.555v42.396c0,1.072-0.869,1.94-1.94,1.94h-20.471
				c-1.072,0-1.94-0.868-1.94-1.94v-42.396c0-1.072,0.869-1.941,1.94-1.941h20.471C453.664,545.615,454.533,546.484,454.533,547.555
				z"/>
			<path id="XMLID_318_" fill="none" stroke="#0686D8" stroke-width="1.5" stroke-miterlimit="10" d="M432.818,545.615
				c-1.457,0-2.637,1.181-2.637,2.637v24.946v12.367v3.689c0,1.457,1.181,2.638,2.637,2.638"/>
		</g>
		<g id="XMLID_325_">
			<path id="XMLID_344_" fill="#D2E9F7" d="M458.448,547.555v42.396c0,1.072-0.869,1.94-1.941,1.94h-20.471
				c-1.071,0-1.94-0.868-1.94-1.94v-42.396c0-1.072,0.869-1.941,1.941-1.941h20.471
				C457.579,545.615,458.448,546.484,458.448,547.555z"/>
			<path id="XMLID_319_" fill="none" stroke="#0686D8" stroke-width="1.5" stroke-miterlimit="10" d="M443.72,545.615h-6.987
				c-1.456,0-2.637,1.181-2.637,2.637v24.946v12.367v3.689c0,1.457,1.181,2.638,2.637,2.638h6.987"/>
			<circle id="XMLID_342_" fill="#FFFFFF" cx="446.161" cy="568.669" r="8.199"/>
			<circle id="XMLID_341_" fill="#FFFFFF" cx="445.929" cy="555.878" r="2.209"/>
			<circle id="XMLID_340_" fill="#FFFFFF" cx="445.929" cy="581.955" r="2.209"/>
			<path id="XMLID_320_" fill="none" stroke="#0686D8" stroke-width="1.5" stroke-miterlimit="10" d="M440.253,574.354
				c-1.457-1.513-2.335-3.583-2.29-5.848c0.054-2.702,1.409-5.072,3.455-6.525"/>
			<g id="XMLID_328_">
				<path id="XMLID_330_" fill="none" stroke="#0686D8" stroke-width="1.5" stroke-miterlimit="10" d="M443.056,565.385v4.06
					c0,0.857,0.695,1.552,1.552,1.552l0,0c0.857,0,1.552-0.695,1.552-1.552v-1.672c0-0.857,0.695-1.552,1.552-1.552l0,0
					c0.857,0,1.552,0.695,1.552,1.552v4.179"/>
				
					<line id="XMLID_329_" fill="none" stroke="#0686D8" stroke-width="1.5" stroke-miterlimit="10" x1="440.489" y1="568.669" x2="451.833" y2="568.669"/>
			</g>
			<path id="XMLID_322_" fill="none" stroke="#0686D8" stroke-width="1.5" stroke-miterlimit="10" d="M443.964,549.141
				c0,0-1.305,0-2.629,0c-0.205,0-0.36,0.162-0.377,0.365c-0.176,2.146-1.892,3.855-4.04,4.021
				c-0.192,0.015-0.345,0.164-0.345,0.357v3.534"/>
			<path id="XMLID_326_" fill="none" stroke="#0686D8" stroke-width="1.5" stroke-miterlimit="10" d="M443.872,588.699
				c-1.324,0-1.305,0-2.629,0c-0.205,0-0.36-0.162-0.376-0.365c-0.176-2.146-1.892-3.855-4.04-4.021
				c-0.192-0.015-0.345-0.164-0.345-0.357v-3.534"/>
		</g>
		<path id="XMLID_306_" fill="#FFFFFF" d="M480.8,545.641v44.806c0,1.053-0.854,1.907-1.907,1.907h-31.481
			c-1.053,0-1.907-0.854-1.907-1.907v-44.806c0-1.053,0.854-1.907,1.907-1.907h31.481C479.946,543.734,480.8,544.588,480.8,545.641z
			"/>
		<path id="XMLID_293_" fill="none" stroke="#0686D8" stroke-width="1.5" stroke-miterlimit="10" d="M478.893,592.354h-31.481
			c-1.053,0-1.907-0.854-1.907-1.907v-44.806c0-1.053,0.854-1.907,1.907-1.907h25.481"/>
		<path id="XMLID_309_" fill="#D2E9F7" d="M467.596,558.881v-15.147h-8.886v15.146c0,1.338,1.085,2.423,2.423,2.423h4.04
			C466.511,561.304,467.596,560.219,467.596,558.881z"/>
		<path id="XMLID_304_" fill="none" stroke="#0686D8" stroke-width="1.5" stroke-miterlimit="10" d="M467.596,558.881v-15.147
			h-8.886v15.146c0,1.338,1.085,2.423,2.423,2.423h4.04C466.511,561.304,467.596,560.219,467.596,558.881z"/>
		<circle id="XMLID_313_" fill="#5FB0E5" cx="463.152" cy="556.119" r="2.159"/>
		
			<circle id="XMLID_305_" fill="none" stroke="#0686D8" stroke-width="1.5" stroke-miterlimit="10" cx="463.152" cy="556.119" r="2.159"/>
		
			<line id="XMLID_323_" fill="none" stroke="#0686D8" stroke-width="1.5" stroke-miterlimit="10" x1="449.265" y1="546.625" x2="449.265" y2="549.141"/>
		
			<line id="XMLID_321_" fill="none" stroke="#0686D8" stroke-width="1.5" stroke-miterlimit="10" x1="449.265" y1="552.516" x2="449.265" y2="555.032"/>
		
			<line id="XMLID_324_" fill="none" stroke="#0686D8" stroke-width="1.5" stroke-miterlimit="10" x1="449.265" y1="558.406" x2="449.265" y2="560.922"/>
		
			<line id="XMLID_327_" fill="none" stroke="#0686D8" stroke-width="1.5" stroke-miterlimit="10" x1="449.265" y1="564.297" x2="449.265" y2="566.813"/>
		
			<line id="XMLID_331_" fill="none" stroke="#0686D8" stroke-width="1.5" stroke-miterlimit="10" x1="449.265" y1="570.188" x2="449.265" y2="572.704"/>
		
			<line id="XMLID_343_" fill="none" stroke="#0686D8" stroke-width="1.5" stroke-miterlimit="10" x1="449.265" y1="576.078" x2="449.265" y2="578.594"/>
		
			<line id="XMLID_345_" fill="none" stroke="#0686D8" stroke-width="1.5" stroke-miterlimit="10" x1="449.265" y1="581.969" x2="449.265" y2="584.485"/>
		
			<line id="XMLID_346_" fill="none" stroke="#0686D8" stroke-width="1.5" stroke-miterlimit="10" x1="449.265" y1="587.859" x2="449.265" y2="590.375"/>
		
			<line id="XMLID_357_" fill="none" stroke="#0686D8" stroke-width="1.5" stroke-miterlimit="10" x1="476.671" y1="546.625" x2="476.671" y2="549.141"/>
		
			<line id="XMLID_356_" fill="none" stroke="#0686D8" stroke-width="1.5" stroke-miterlimit="10" x1="476.671" y1="552.516" x2="476.671" y2="555.032"/>
		
			<line id="XMLID_355_" fill="none" stroke="#0686D8" stroke-width="1.5" stroke-miterlimit="10" x1="476.671" y1="558.406" x2="476.671" y2="560.922"/>
		
			<line id="XMLID_352_" fill="none" stroke="#0686D8" stroke-width="1.5" stroke-miterlimit="10" x1="476.671" y1="564.297" x2="476.671" y2="566.813"/>
		
			<line id="XMLID_351_" fill="none" stroke="#0686D8" stroke-width="1.5" stroke-miterlimit="10" x1="476.671" y1="570.188" x2="476.671" y2="572.704"/>
		
			<line id="XMLID_350_" fill="none" stroke="#0686D8" stroke-width="1.5" stroke-miterlimit="10" x1="476.671" y1="576.078" x2="476.671" y2="578.594"/>
		
			<line id="XMLID_349_" fill="none" stroke="#0686D8" stroke-width="1.5" stroke-miterlimit="10" x1="476.671" y1="581.969" x2="476.671" y2="584.485"/>
		
			<line id="XMLID_347_" fill="none" stroke="#0686D8" stroke-width="1.5" stroke-miterlimit="10" x1="476.671" y1="587.859" x2="476.671" y2="590.375"/>
	</g>
	<path opacity="0.3" fill="#03436C" d="M480.8,590.447v-44.806c0-1.053-0.854-1.907-1.907-1.907h-6v-0.75h-1.059v49.371h1.5l0,0
		h5.559C479.946,592.354,480.8,591.5,480.8,590.447z"/>
	<g>
		<path id="XMLID_110_" fill="#9ECFEF" d="M538.545,592.354h-23.37V484.73h21.392c1.092,0,1.978,0.886,1.978,1.979V592.354z"/>
		<path id="XMLID_109_" fill="none" stroke="#0686D8" stroke-width="1.5" stroke-miterlimit="10" d="M520.297,484.73h15.371
			c1.59,0,2.878,1.289,2.878,2.878v25.747"/>
		<path id="XMLID_108_" fill="#5FB0E5" d="M474.584,592.354h18.032V469.271h-15.792c-1.238,0-2.241,1.003-2.241,2.241V592.354z"/>
		<path id="XMLID_104_" fill="none" stroke="#0686D8" stroke-width="1.5" stroke-miterlimit="10" d="M483.6,469.271h-6.023
			c-1.653,0-2.993,1.34-2.993,2.993v120.09"/>
		<rect id="XMLID_103_" x="493.287" y="454.076" fill="#FFFFFF" width="16.808" height="10.291"/>
		
			<rect id="XMLID_102_" x="493.287" y="454.076" fill="none" stroke="#0686D8" stroke-width="1.5" stroke-miterlimit="10" width="16.808" height="10.291"/>
		<path id="XMLID_101_" fill="#FFFFFF" d="M515.176,592.354h-26.682V461.296c0-0.768,0.623-1.391,1.391-1.391h23.899
			c0.769,0,1.392,0.623,1.392,1.391V592.354z"/>
		<path id="XMLID_100_" fill="none" stroke="#0686D8" stroke-width="1.5" stroke-miterlimit="10" d="M488.494,592.354V461.805
			c0-1.049,0.85-1.9,1.899-1.9h22.883c1.049,0,1.9,0.851,1.9,1.9v51.549"/>
		
			<line id="XMLID_99_" fill="none" stroke="#0686D8" stroke-width="1.5" stroke-miterlimit="10" x1="501.835" y1="444.989" x2="501.835" y2="453.404"/>
		
			<line id="XMLID_98_" fill="none" stroke="#0686D8" stroke-width="1.5" stroke-miterlimit="10" x1="494.723" y1="466.787" x2="494.723" y2="580.897"/>
		
			<line id="XMLID_97_" fill="none" stroke="#0686D8" stroke-width="1.5" stroke-miterlimit="10" x1="501.835" y1="466.787" x2="501.835" y2="580.897"/>
		
			<line id="XMLID_96_" fill="none" stroke="#0686D8" stroke-width="1.5" stroke-miterlimit="10" x1="508.947" y1="466.787" x2="508.947" y2="580.897"/>
		
			<line id="XMLID_95_" fill="none" stroke="#0686D8" stroke-width="1.5" stroke-miterlimit="10" x1="479.092" y1="477.643" x2="484.824" y2="477.643"/>
		
			<line id="XMLID_94_" fill="none" stroke="#0686D8" stroke-width="1.5" stroke-miterlimit="10" x1="479.092" y1="482.545" x2="484.824" y2="482.545"/>
		
			<line id="XMLID_93_" fill="none" stroke="#0686D8" stroke-width="1.5" stroke-miterlimit="10" x1="479.092" y1="487.448" x2="484.824" y2="487.448"/>
		
			<line id="XMLID_92_" fill="none" stroke="#0686D8" stroke-width="1.5" stroke-miterlimit="10" x1="479.092" y1="492.35" x2="484.824" y2="492.35"/>
		
			<line id="XMLID_90_" fill="none" stroke="#0686D8" stroke-width="1.5" stroke-miterlimit="10" x1="479.092" y1="497.252" x2="484.824" y2="497.252"/>
		
			<line id="XMLID_89_" fill="none" stroke="#0686D8" stroke-width="1.5" stroke-miterlimit="10" x1="479.092" y1="502.154" x2="484.824" y2="502.154"/>
		
			<line id="XMLID_87_" fill="none" stroke="#0686D8" stroke-width="1.5" stroke-miterlimit="10" x1="479.092" y1="507.057" x2="484.824" y2="507.057"/>
		
			<line id="XMLID_84_" fill="none" stroke="#0686D8" stroke-width="1.5" stroke-miterlimit="10" x1="479.092" y1="511.959" x2="484.824" y2="511.959"/>
		
			<line id="XMLID_41_" fill="none" stroke="#0686D8" stroke-width="1.5" stroke-miterlimit="10" x1="479.092" y1="517.138" x2="484.824" y2="517.138"/>
		
			<line id="XMLID_106_" fill="none" stroke="#0686D8" stroke-width="1.5" stroke-miterlimit="10" x1="479.092" y1="522.318" x2="484.824" y2="522.318"/>
		
			<line id="XMLID_107_" fill="none" stroke="#0686D8" stroke-width="1.5" stroke-miterlimit="10" x1="479.092" y1="527.497" x2="484.824" y2="527.497"/>
		
			<line id="XMLID_111_" fill="none" stroke="#0686D8" stroke-width="1.5" stroke-miterlimit="10" x1="479.092" y1="532.677" x2="484.824" y2="532.677"/>
		
			<line id="XMLID_112_" fill="none" stroke="#0686D8" stroke-width="1.5" stroke-miterlimit="10" x1="479.092" y1="537.856" x2="484.824" y2="537.856"/>
		
			<line id="XMLID_113_" fill="none" stroke="#0686D8" stroke-width="1.5" stroke-miterlimit="10" x1="479.092" y1="543.036" x2="484.824" y2="543.036"/>
		
			<line id="XMLID_114_" fill="none" stroke="#0686D8" stroke-width="1.5" stroke-miterlimit="10" x1="479.092" y1="548.215" x2="484.824" y2="548.215"/>
		
			<line id="XMLID_115_" fill="none" stroke="#0686D8" stroke-width="1.5" stroke-miterlimit="10" x1="479.092" y1="553.394" x2="484.824" y2="553.394"/>
		
			<line id="XMLID_116_" fill="none" stroke="#0686D8" stroke-width="1.5" stroke-miterlimit="10" x1="479.092" y1="558.574" x2="484.824" y2="558.574"/>
		
			<line id="XMLID_117_" fill="none" stroke="#0686D8" stroke-width="1.5" stroke-miterlimit="10" x1="479.092" y1="563.753" x2="484.824" y2="563.753"/>
		
			<line id="XMLID_118_" fill="none" stroke="#0686D8" stroke-width="1.5" stroke-miterlimit="10" x1="479.092" y1="568.933" x2="484.824" y2="568.933"/>
		
			<line id="XMLID_119_" fill="none" stroke="#0686D8" stroke-width="1.5" stroke-miterlimit="10" x1="479.092" y1="574.112" x2="484.824" y2="574.112"/>
		
			<line id="XMLID_120_" fill="none" stroke="#0686D8" stroke-width="1.5" stroke-miterlimit="10" x1="479.092" y1="579.292" x2="484.824" y2="579.292"/>
		
			<line id="XMLID_121_" fill="none" stroke="#0686D8" stroke-width="1.5" stroke-miterlimit="10" x1="479.092" y1="584.471" x2="484.824" y2="584.471"/>
		<g id="XMLID_79_">
			
				<line id="XMLID_82_" fill="none" stroke="#0686D8" stroke-width="1.5" stroke-miterlimit="10" x1="518.499" y1="492.35" x2="522.095" y2="492.35"/>
			
				<line id="XMLID_81_" fill="none" stroke="#0686D8" stroke-width="1.5" stroke-miterlimit="10" x1="525.063" y1="492.35" x2="528.659" y2="492.35"/>
			
				<line id="XMLID_80_" fill="none" stroke="#0686D8" stroke-width="1.5" stroke-miterlimit="10" x1="531.626" y1="492.35" x2="535.222" y2="492.35"/>
		</g>
		<g id="XMLID_74_">
			
				<line id="XMLID_78_" fill="none" stroke="#0686D8" stroke-width="1.5" stroke-miterlimit="10" x1="518.499" y1="497.89" x2="522.095" y2="497.89"/>
			
				<line id="XMLID_77_" fill="none" stroke="#0686D8" stroke-width="1.5" stroke-miterlimit="10" x1="525.063" y1="497.89" x2="528.659" y2="497.89"/>
			
				<line id="XMLID_76_" fill="none" stroke="#0686D8" stroke-width="1.5" stroke-miterlimit="10" x1="531.626" y1="497.89" x2="535.222" y2="497.89"/>
		</g>
		<g id="XMLID_67_">
			
				<line id="XMLID_73_" fill="none" stroke="#0686D8" stroke-width="1.5" stroke-miterlimit="10" x1="518.499" y1="503.43" x2="522.095" y2="503.43"/>
			
				<line id="XMLID_72_" fill="none" stroke="#0686D8" stroke-width="1.5" stroke-miterlimit="10" x1="525.063" y1="503.43" x2="528.659" y2="503.43"/>
			
				<line id="XMLID_69_" fill="none" stroke="#0686D8" stroke-width="1.5" stroke-miterlimit="10" x1="531.626" y1="503.43" x2="535.222" y2="503.43"/>
		</g>
		<g id="XMLID_61_">
			
				<line id="XMLID_64_" fill="none" stroke="#0686D8" stroke-width="1.5" stroke-miterlimit="10" x1="518.499" y1="508.97" x2="522.095" y2="508.97"/>
			
				<line id="XMLID_63_" fill="none" stroke="#0686D8" stroke-width="1.5" stroke-miterlimit="10" x1="525.063" y1="508.97" x2="528.659" y2="508.97"/>
			
				<line id="XMLID_62_" fill="none" stroke="#0686D8" stroke-width="1.5" stroke-miterlimit="10" x1="531.626" y1="508.97" x2="535.222" y2="508.97"/>
		</g>
		<g id="XMLID_42_">
			
				<line id="XMLID_60_" fill="none" stroke="#0686D8" stroke-width="1.5" stroke-miterlimit="10" x1="518.499" y1="514.51" x2="522.095" y2="514.51"/>
			
				<line id="XMLID_59_" fill="none" stroke="#0686D8" stroke-width="1.5" stroke-miterlimit="10" x1="525.063" y1="514.51" x2="528.659" y2="514.51"/>
			
				<line id="XMLID_44_" fill="none" stroke="#0686D8" stroke-width="1.5" stroke-miterlimit="10" x1="531.626" y1="514.51" x2="535.222" y2="514.51"/>
		</g>
		<g id="XMLID_124_">
			
				<line id="XMLID_138_" fill="none" stroke="#0686D8" stroke-width="1.5" stroke-miterlimit="10" x1="518.499" y1="519.741" x2="522.095" y2="519.741"/>
			
				<line id="XMLID_137_" fill="none" stroke="#0686D8" stroke-width="1.5" stroke-miterlimit="10" x1="525.063" y1="519.741" x2="528.659" y2="519.741"/>
			
				<line id="XMLID_136_" fill="none" stroke="#0686D8" stroke-width="1.5" stroke-miterlimit="10" x1="531.626" y1="519.741" x2="535.222" y2="519.741"/>
		</g>
		<g id="XMLID_140_">
			
				<line id="XMLID_145_" fill="none" stroke="#0686D8" stroke-width="1.5" stroke-miterlimit="10" x1="518.499" y1="524.972" x2="522.095" y2="524.972"/>
			
				<line id="XMLID_142_" fill="none" stroke="#0686D8" stroke-width="1.5" stroke-miterlimit="10" x1="525.063" y1="524.972" x2="528.659" y2="524.972"/>
			
				<line id="XMLID_141_" fill="none" stroke="#0686D8" stroke-width="1.5" stroke-miterlimit="10" x1="531.626" y1="524.972" x2="535.222" y2="524.972"/>
		</g>
		<g id="XMLID_146_">
			
				<line id="XMLID_151_" fill="none" stroke="#0686D8" stroke-width="1.5" stroke-miterlimit="10" x1="518.499" y1="530.202" x2="522.095" y2="530.202"/>
			
				<line id="XMLID_150_" fill="none" stroke="#0686D8" stroke-width="1.5" stroke-miterlimit="10" x1="525.063" y1="530.202" x2="528.659" y2="530.202"/>
			
				<line id="XMLID_147_" fill="none" stroke="#0686D8" stroke-width="1.5" stroke-miterlimit="10" x1="531.626" y1="530.202" x2="535.222" y2="530.202"/>
		</g>
		<g id="XMLID_152_">
			
				<line id="XMLID_159_" fill="none" stroke="#0686D8" stroke-width="1.5" stroke-miterlimit="10" x1="518.499" y1="535.433" x2="522.095" y2="535.433"/>
			
				<line id="XMLID_156_" fill="none" stroke="#0686D8" stroke-width="1.5" stroke-miterlimit="10" x1="525.063" y1="535.433" x2="528.659" y2="535.433"/>
			
				<line id="XMLID_155_" fill="none" stroke="#0686D8" stroke-width="1.5" stroke-miterlimit="10" x1="531.626" y1="535.433" x2="535.222" y2="535.433"/>
		</g>
		<g id="XMLID_178_">
			
				<line id="XMLID_186_" fill="none" stroke="#0686D8" stroke-width="1.5" stroke-miterlimit="10" x1="518.499" y1="540.664" x2="522.095" y2="540.664"/>
			
				<line id="XMLID_182_" fill="none" stroke="#0686D8" stroke-width="1.5" stroke-miterlimit="10" x1="525.063" y1="540.664" x2="528.659" y2="540.664"/>
			
				<line id="XMLID_180_" fill="none" stroke="#0686D8" stroke-width="1.5" stroke-miterlimit="10" x1="531.626" y1="540.664" x2="535.222" y2="540.664"/>
		</g>
		<g id="XMLID_203_">
			
				<line id="XMLID_242_" fill="none" stroke="#0686D8" stroke-width="1.5" stroke-miterlimit="10" x1="518.499" y1="545.894" x2="522.095" y2="545.894"/>
			
				<line id="XMLID_241_" fill="none" stroke="#0686D8" stroke-width="1.5" stroke-miterlimit="10" x1="525.063" y1="545.894" x2="528.659" y2="545.894"/>
			
				<line id="XMLID_216_" fill="none" stroke="#0686D8" stroke-width="1.5" stroke-miterlimit="10" x1="531.626" y1="545.894" x2="535.222" y2="545.894"/>
		</g>
	</g>
	<path opacity="0.3" fill="#03436C" d="M538.545,515.524h-23.49c-0.984,0-1.895,0.291-2.68,0.767
		c-0.931,0.083-1.667,0.818-1.75,1.75c-0.477,0.785-0.768,1.697-0.768,2.681v63.378c0,0.984,0.291,1.895,0.768,2.68
		c0.083,0.932,0.818,1.666,1.75,1.75c0.785,0.477,1.696,0.767,2.68,0.767h3.931v3.059h10.873v-3.059h8.687V515.524z
		 M528.359,591.604h-7.873v-2.309h7.873V591.604z"/>
	<g opacity="0.3">
		<path fill="#03436C" d="M597.355,591.236h11.078v-10.798h-4.188l-1.975-9.756c-0.165-0.817-0.89-1.41-1.724-1.41h-4.215v12.667
			h2.905L597.355,591.236z"/>
		<path fill="#03436C" d="M593.224,568.236h0.354l-1.766-8.721c-0.165-0.817-0.89-1.411-1.724-1.411h-3.209v-3.215h0.75v-34.168
			c0-0.984-0.29-1.895-0.767-2.68c-0.083-0.932-0.818-1.667-1.75-1.75c-0.785-0.477-1.696-0.767-2.68-0.767h-1.312v75.712h12.102
			v-2.416l-1.394-6.882h1.394V568.236z M586.88,580.157v-9.385h1.899L586.88,580.157z"/>
	</g>
	<g id="XMLID_295_">
		
			<rect id="XMLID_394_" x="563.062" y="585.154" fill="none" stroke="#0686D8" stroke-width="1.5" stroke-miterlimit="10" width="9.372" height="7.2"/>
		
			<rect id="XMLID_392_" x="521.736" y="585.154" fill="none" stroke="#0686D8" stroke-width="1.5" stroke-miterlimit="10" width="9.373" height="7.2"/>
		<path id="XMLID_391_" fill="#7FC0EA" d="M582.941,588.546h-68.395c-1.071,0-1.939-0.868-1.939-1.938v-68.395
			c0-1.071,0.868-1.938,1.939-1.938h68.395c1.07,0,1.938,0.868,1.938,1.938v68.395C584.88,587.678,584.012,588.546,582.941,588.546z
			"/>
		<path id="XMLID_390_" fill="#BFDFF5" d="M577.094,582.379h-56.699c-0.895,0-1.62-0.725-1.62-1.62v-56.7
			c0-0.895,0.726-1.62,1.62-1.62h56.699c0.895,0,1.62,0.725,1.62,1.62v56.7C578.714,581.654,577.988,582.379,577.094,582.379z"/>
		<path id="XMLID_389_" fill="none" stroke="#0686D8" stroke-width="1.5" stroke-miterlimit="10" d="M553.224,582.379h-32.101
			c-1.297,0-2.349-1.051-2.349-2.348v-55.243c0-1.297,1.051-2.348,2.349-2.348h55.242c1.297,0,2.349,1.051,2.349,2.348v32.102"/>
		<path id="XMLID_388_" fill="none" stroke="#0686D8" stroke-width="1.5" stroke-miterlimit="10" d="M551.607,588.546h-34.552
			c-2.456,0-4.447-1.991-4.447-4.447v-63.378c0-2.456,1.991-4.447,4.447-4.447h63.378c2.455,0,4.446,1.991,4.446,4.447v36.169"/>
		<g id="XMLID_381_">
			<path id="XMLID_387_" fill="#5FB0E5" d="M520.036,540.852h-2.396c-0.475,0-0.86-0.385-0.86-0.859v-8.11
				c0-0.475,0.385-0.859,0.86-0.859h2.396c0.475,0,0.86,0.385,0.86,0.859v8.11C520.896,540.467,520.511,540.852,520.036,540.852z"/>
			<path id="XMLID_382_" fill="none" stroke="#0686D8" stroke-width="1.5" stroke-miterlimit="10" d="M520.036,540.852h-2.396
				c-0.475,0-0.86-0.385-0.86-0.859v-8.11c0-0.475,0.385-0.859,0.86-0.859h2.396c0.475,0,0.86,0.385,0.86,0.859v8.11
				C520.896,540.467,520.511,540.852,520.036,540.852z"/>
		</g>
		<g id="XMLID_362_">
			<path id="XMLID_380_" fill="#5FB0E5" d="M520.036,570.698h-2.396c-0.475,0-0.86-0.385-0.86-0.859v-8.11
				c0-0.475,0.385-0.859,0.86-0.859h2.396c0.475,0,0.86,0.385,0.86,0.859v8.11C520.896,570.313,520.511,570.698,520.036,570.698z"/>
			<path id="XMLID_367_" fill="none" stroke="#0686D8" stroke-width="1.5" stroke-miterlimit="10" d="M520.036,570.698h-2.396
				c-0.475,0-0.86-0.385-0.86-0.859v-8.11c0-0.475,0.385-0.859,0.86-0.859h2.396c0.475,0,0.86,0.385,0.86,0.859v8.11
				C520.896,570.313,520.511,570.698,520.036,570.698z"/>
		</g>
		<circle id="XMLID_354_" fill="#5FB0E5" cx="548.744" cy="552.41" r="8.459"/>
		
			<circle id="XMLID_353_" fill="none" stroke="#0686D8" stroke-width="1.5" stroke-miterlimit="10" cx="548.744" cy="552.41" r="8.459"/>
		
			<circle id="XMLID_339_" fill="none" stroke="#0686D8" stroke-width="1.5" stroke-miterlimit="10" cx="548.744" cy="552.41" r="2.481"/>
		<g id="XMLID_298_">
			<path id="XMLID_338_" fill="#FFFFFF" d="M570.258,592.354h-16.195l2.096-10.358c0.095-0.471,0.509-0.809,0.989-0.809h10.026
				c0.479,0,0.893,0.338,0.988,0.809L570.258,592.354z"/>
			<path id="XMLID_337_" fill="#FFFFFF" d="M591.173,592.354h-16.194l2.096-10.358c0.096-0.471,0.509-0.809,0.989-0.809h10.025
				c0.479,0,0.894,0.338,0.988,0.809L591.173,592.354z"/>
			<path id="XMLID_334_" fill="#FFFFFF" d="M612.09,592.354h-16.195l2.097-10.358c0.095-0.471,0.508-0.809,0.988-0.809h10.025
				c0.479,0,0.894,0.338,0.988,0.809L612.09,592.354z"/>
			<path id="XMLID_317_" fill="#FFFFFF" d="M580.715,581.188h-16.194l2.096-10.358c0.096-0.47,0.509-0.808,0.989-0.808h10.025
				c0.479,0,0.894,0.338,0.988,0.808L580.715,581.188z"/>
			<path id="XMLID_316_" fill="#FFFFFF" d="M601.632,581.188h-16.195l2.097-10.358c0.095-0.47,0.508-0.808,0.988-0.808h10.025
				c0.479,0,0.894,0.338,0.988,0.808L601.632,581.188z"/>
			<path id="XMLID_314_" fill="#FFFFFF" d="M591.173,570.021h-16.194l2.096-10.358c0.096-0.47,0.509-0.809,0.989-0.809h10.025
				c0.479,0,0.894,0.338,0.988,0.809L591.173,570.021z"/>
			<path id="XMLID_312_" fill="none" stroke="#0686D8" stroke-width="1.5" stroke-miterlimit="10" d="M570.258,592.354h-16.195
				l2.096-10.358c0.095-0.471,0.509-0.809,0.989-0.809h10.026c0.479,0,0.893,0.338,0.988,0.809L570.258,592.354z"/>
			<path id="XMLID_311_" fill="none" stroke="#0686D8" stroke-width="1.5" stroke-miterlimit="10" d="M591.173,592.354h-16.194
				l2.096-10.358c0.096-0.471,0.509-0.809,0.989-0.809h10.025c0.479,0,0.894,0.338,0.988,0.809L591.173,592.354z"/>
			<path id="XMLID_310_" fill="none" stroke="#0686D8" stroke-width="1.5" stroke-miterlimit="10" d="M612.09,592.354h-16.195
				l2.097-10.358c0.095-0.471,0.508-0.809,0.988-0.809h10.025c0.479,0,0.894,0.338,0.988,0.809L612.09,592.354z"/>
			<path id="XMLID_308_" fill="none" stroke="#0686D8" stroke-width="1.5" stroke-miterlimit="10" d="M580.715,581.188h-16.194
				l2.096-10.358c0.096-0.47,0.509-0.808,0.989-0.808h10.025c0.479,0,0.894,0.338,0.988,0.808L580.715,581.188z"/>
			<path id="XMLID_307_" fill="none" stroke="#0686D8" stroke-width="1.5" stroke-miterlimit="10" d="M601.632,581.188h-16.195
				l2.097-10.358c0.095-0.47,0.508-0.808,0.988-0.808h10.025c0.479,0,0.894,0.338,0.988,0.808L601.632,581.188z"/>
			<path id="XMLID_303_" fill="none" stroke="#0686D8" stroke-width="1.5" stroke-miterlimit="10" d="M591.173,570.021h-16.194
				l2.096-10.358c0.096-0.47,0.509-0.809,0.989-0.809h10.025c0.479,0,0.894,0.338,0.988,0.809L591.173,570.021z"/>
		</g>
	</g>
	<g id="XMLID_650_">
		
			<line id="XMLID_671_" fill="none" stroke="#0686D8" stroke-width="1.5" stroke-miterlimit="10" x1="683.417" y1="580.808" x2="683.421" y2="587.405"/>
		<path id="XMLID_668_" fill="#9ECFEF" d="M683.41,549.432c-8.795,0-15.924,7.129-15.924,15.924s7.129,15.925,15.924,15.925
			s15.925-7.13,15.925-15.925S692.205,549.432,683.41,549.432z M683.41,577.454c-6.682,0-12.098-5.416-12.098-12.098
			c0-6.682,5.416-12.098,12.098-12.098s12.099,5.417,12.099,12.098C695.509,572.038,690.092,577.455,683.41,577.454z"/>
		<rect id="XMLID_666_" x="680.277" y="585.461" fill="#9ECFEF" width="6.291" height="6.917"/>
		<polyline id="XMLID_665_" fill="none" stroke="#0686D8" stroke-width="1.5" stroke-miterlimit="10" points="686.57,592.293 
			686.565,585.459 680.274,585.464 680.279,592.298 		"/>
		
			<line id="XMLID_664_" fill="none" stroke="#0686D8" stroke-width="1.5" stroke-miterlimit="10" x1="680.124" y1="589.992" x2="686.722" y2="589.987"/>
		<polygon id="XMLID_675_" fill="#FFFFFF" points="676.637,576.765 672.112,574.021 672.112,553.258 676.637,553.258 		"/>
		<rect id="XMLID_674_" x="676.637" y="546.214" fill="#5FB0E5" width="4.524" height="32.143"/>
		<rect id="XMLID_672_" x="681.161" y="549.035" fill="#FFFFFF" width="4.523" height="29.322"/>
		<rect id="XMLID_667_" x="685.685" y="545.72" fill="#5FB0E5" width="4.524" height="32.636"/>
		<polygon id="XMLID_655_" fill="#FFFFFF" points="694.733,575.266 690.209,577.473 690.209,541.611 694.733,541.611 		"/>
		<polygon id="XMLID_244_" fill="none" stroke="#0686D8" stroke-width="1.5" stroke-miterlimit="10" points="676.637,576.765 
			672.112,574.021 672.112,553.258 676.637,553.258 		"/>
		
			<rect id="XMLID_243_" x="676.637" y="546.214" fill="none" stroke="#0686D8" stroke-width="1.5" stroke-miterlimit="10" width="4.524" height="32.143"/>
		
			<rect id="XMLID_644_" x="681.161" y="549.035" fill="none" stroke="#0686D8" stroke-width="1.5" stroke-miterlimit="10" width="4.523" height="29.322"/>
		
			<rect id="XMLID_646_" x="685.685" y="545.72" fill="none" stroke="#0686D8" stroke-width="1.5" stroke-miterlimit="10" width="4.524" height="32.636"/>
		<polygon id="XMLID_647_" fill="none" stroke="#0686D8" stroke-width="1.5" stroke-miterlimit="10" points="694.733,574.163 
			690.209,577.473 690.209,541.611 694.733,541.611 		"/>
		<path id="XMLID_649_" fill="#9ECFEF" d="M695.509,565.356c0,6.682-5.417,12.099-12.099,12.098
			c-6.682,0-12.098-5.416-12.098-12.098h-3.826c0,8.795,7.129,15.925,15.924,15.925s15.925-7.13,15.925-15.925H695.509z"/>
		<path id="XMLID_627_" fill="none" stroke="#0686D8" stroke-width="1.5" stroke-miterlimit="10" d="M669.229,572.608
			c2.639,5.148,7.998,8.672,14.181,8.672c8.795,0,15.925-7.13,15.925-15.925c0-3.127-0.901-6.043-2.458-8.504 M667.553,566.819
			c0.123,1.35,0.414,2.652,0.853,3.883 M670.006,556.755c-1.595,2.48-2.52,5.433-2.52,8.601"/>
	</g>
	<g id="XMLID_245_">
		<g id="XMLID_246_">
			<path id="XMLID_264_" fill="#FFFFFF" d="M425.486,592.016h-4.085v-81.908c0-1.128,0.915-2.042,2.043-2.042l0,0
				c1.128,0,2.042,0.915,2.042,2.042V592.016z"/>
			<path id="XMLID_263_" fill="none" stroke="#0686D8" stroke-width="1.5" stroke-miterlimit="10" d="M421.401,592.016v-82.08
				c0-1.033,0.837-1.87,1.871-1.87h0.345c1.033,0,1.87,0.837,1.87,1.87v82.08"/>
			
				<line id="XMLID_262_" fill="none" stroke="#0686D8" stroke-width="1.5" stroke-miterlimit="10" x1="409.131" y1="517.189" x2="437.757" y2="517.189"/>
			<circle id="XMLID_261_" fill="#5FB0E5" cx="423.468" cy="516.935" r="4.291"/>
			
				<circle id="XMLID_260_" fill="none" stroke="#0686D8" stroke-width="1.5" stroke-miterlimit="10" cx="423.468" cy="516.935" r="4.291"/>
			
				<line id="XMLID_259_" fill="none" stroke="#0686D8" stroke-width="1.5" stroke-miterlimit="10" x1="440.784" y1="531.235" x2="435.266" y2="515.833"/>
			
				<line id="XMLID_258_" fill="none" stroke="#0686D8" stroke-width="1.5" stroke-miterlimit="10" x1="430.78" y1="531.235" x2="436.765" y2="515.833"/>
			<path id="XMLID_257_" fill="#9ECFEF" d="M442.683,530.626c0,3.787-3.07,6.857-6.857,6.857c-3.788,0-6.858-3.07-6.858-6.857
				H442.683z"/>
			
				<line id="XMLID_256_" fill="none" stroke="#0686D8" stroke-width="1.5" stroke-miterlimit="10" x1="406.147" y1="531.235" x2="411.665" y2="515.833"/>
			
				<line id="XMLID_255_" fill="none" stroke="#0686D8" stroke-width="1.5" stroke-miterlimit="10" x1="416.15" y1="531.235" x2="410.166" y2="515.833"/>
			<path id="XMLID_254_" fill="#9ECFEF" d="M404.248,530.626c0,3.787,3.07,6.857,6.857,6.857s6.857-3.07,6.857-6.857H404.248z"/>
			<path id="XMLID_253_" fill="none" stroke="#0686D8" stroke-width="1.5" stroke-miterlimit="10" d="M442.003,533.606
				c-0.264,0.545-0.597,1.049-0.988,1.502"/>
			<path id="XMLID_252_" fill="none" stroke="#0686D8" stroke-width="1.5" stroke-miterlimit="10" d="M439.724,536.268
				c-0.638,0.442-1.355,0.778-2.125,0.984c-0.566,0.151-1.16,0.231-1.773,0.231c-3.788,0-6.858-3.07-6.858-6.857h13.715
				c0,0.856-0.157,1.677-0.444,2.433"/>
			<path id="XMLID_251_" fill="none" stroke="#0686D8" stroke-width="1.5" stroke-miterlimit="10" d="M404.248,530.626
				c0,3.787,3.07,6.857,6.857,6.857s6.857-3.07,6.857-6.857H404.248z"/>
			<circle id="XMLID_250_" fill="#5FB0E5" cx="435.842" cy="517.189" r="1.802"/>
			
				<circle id="XMLID_249_" fill="none" stroke="#0686D8" stroke-width="1.5" stroke-miterlimit="10" cx="435.842" cy="517.189" r="1.802"/>
			<circle id="XMLID_248_" fill="#5FB0E5" cx="411.105" cy="517.189" r="1.802"/>
			
				<circle id="XMLID_247_" fill="none" stroke="#0686D8" stroke-width="1.5" stroke-miterlimit="10" cx="411.105" cy="517.189" r="1.802"/>
		</g>
	</g>
	<g id="XMLID_384_">
		<g id="XMLID_383_">
			<circle id="XMLID_385_" fill="#FFFFFF" cx="403.716" cy="575.826" r="11.302"/>
			<path id="XMLID_370_" fill="none" stroke="#0686D8" stroke-width="1.5" stroke-miterlimit="10" d="M414.848,573.873
				c-0.941-5.402-5.707-9.459-11.358-9.346c-0.959,0.02-1.889,0.158-2.774,0.4"/>
			<path id="XMLID_371_" fill="none" stroke="#0686D8" stroke-width="1.5" stroke-miterlimit="10" d="M394.349,569.501
				c-0.946,1.399-1.587,3.021-1.828,4.766"/>
			<path id="XMLID_369_" fill="none" stroke="#0686D8" stroke-width="1.5" stroke-miterlimit="10" d="M399.026,565.54
				c-1.265,0.578-2.404,1.382-3.366,2.359"/>
			<g id="XMLID_377_">
				<path id="XMLID_268_" fill="none" stroke="#0686D8" stroke-width="1.5" stroke-miterlimit="10" d="M406.647,571.48h-3.624
					c-0.766,0-1.386,0.621-1.386,1.386l0,0c0,0.766,0.62,1.386,1.386,1.386h1.492c0.766,0,1.386,0.621,1.386,1.386l0,0
					c0,0.765-0.62,1.385-1.386,1.385h-3.731"/>
				
					<line id="XMLID_378_" fill="none" stroke="#0686D8" stroke-width="1.5" stroke-miterlimit="10" x1="403.716" y1="569.189" x2="403.716" y2="579.315"/>
			</g>
			<path id="XMLID_366_" fill="#5FB0E5" d="M408.778,575.932c0,2.798-2.262,5.06-5.053,5.06c-2.795,0-5.059-2.261-5.059-5.06
				l-10.092,0.118v0.747c-0.005,0.877,0.706,1.594,1.587,1.601l2.458,0.007c0.289,1.284,0.787,2.479,1.465,3.55l-1.752,1.747
				c-0.621,0.616-0.625,1.624-0.004,2.249l1.294,1.306c0.625,0.63,1.635,0.63,2.255,0.01l1.749-1.735
				c1.074,0.68,2.267,1.193,3.551,1.486l-0.01,2.459c-0.004,0.879,0.708,1.599,1.588,1.599l1.844,0.007
				c0.88,0,1.596-0.707,1.596-1.584l0.007-2.466c1.281-0.288,2.479-0.793,3.556-1.468l1.739,1.751c0.619,0.621,1.632,0.621,2.26,0
				l1.3-1.301c0.625-0.618,0.629-1.631,0.001-2.249l-1.73-1.749c0.679-1.077,1.187-2.269,1.477-3.553l2.461,0.007
				c0.88,0,1.592-0.712,1.596-1.591v-1.042L408.778,575.932z"/>
			<path id="XMLID_364_" fill="none" stroke="#0686D8" stroke-width="1.5" stroke-miterlimit="10" d="M408.778,575.932
				c0,2.798-2.262,5.06-5.053,5.06c-2.795,0-5.059-2.261-5.059-5.06l-10.092,0.118v0.747c-0.005,0.877,0.706,1.594,1.587,1.601
				l2.458,0.007c0.289,1.284,0.787,2.479,1.465,3.55l-1.752,1.747c-0.621,0.616-0.625,1.624-0.004,2.249l1.294,1.306
				c0.625,0.63,1.635,0.63,2.255,0.01l1.749-1.735c1.074,0.68,2.267,1.193,3.551,1.486l-0.01,2.459
				c-0.004,0.879,0.708,1.599,1.588,1.599l1.844,0.007c0.88,0,1.596-0.707,1.596-1.584l0.007-2.466
				c1.281-0.288,2.479-0.793,3.556-1.468l1.739,1.751c0.619,0.621,1.632,0.621,2.26,0l1.3-1.301
				c0.625-0.618,0.629-1.631,0.001-2.249l-1.73-1.749c0.679-1.077,1.187-2.269,1.477-3.553l2.461,0.007
				c0.88,0,1.592-0.712,1.596-1.591v-1.042L408.778,575.932z"/>
			
				<line id="XMLID_373_" fill="none" stroke="#0686D8" stroke-width="1.5" stroke-miterlimit="10" x1="403.421" y1="561.124" x2="403.421" y2="562.731"/>
			
				<line id="XMLID_372_" fill="none" stroke="#0686D8" stroke-width="1.5" stroke-miterlimit="10" x1="409.228" y1="559.843" x2="407.923" y2="563.422"/>
			
				<line id="XMLID_374_" fill="none" stroke="#0686D8" stroke-width="1.5" stroke-miterlimit="10" x1="413.141" y1="564.154" x2="411.916" y2="565.612"/>
			
				<line id="XMLID_375_" fill="none" stroke="#0686D8" stroke-width="1.5" stroke-miterlimit="10" x1="418.219" y1="567.136" x2="414.917" y2="569.037"/>
			
				<line id="XMLID_376_" fill="none" stroke="#0686D8" stroke-width="1.5" stroke-miterlimit="10" x1="418.449" y1="572.954" x2="416.564" y2="573.283"/>
			
				<line id="XMLID_267_" fill="none" stroke="#0686D8" stroke-width="1.5" stroke-miterlimit="10" x1="388.907" y1="573.414" x2="390.78" y2="573.768"/>
			
				<line id="XMLID_266_" fill="none" stroke="#0686D8" stroke-width="1.5" stroke-miterlimit="10" x1="388.979" y1="567.538" x2="392.267" y2="569.463"/>
			
				<line id="XMLID_406_" fill="none" stroke="#0686D8" stroke-width="1.5" stroke-miterlimit="10" x1="393.991" y1="564.543" x2="395.138" y2="565.928"/>
			
				<line id="XMLID_265_" fill="none" stroke="#0686D8" stroke-width="1.5" stroke-miterlimit="10" x1="397.767" y1="560" x2="399.045" y2="563.589"/>
		</g>
	</g>
	<g>
		<circle id="XMLID_272_" fill="#FFFFFF" cx="641.783" cy="522.38" r="7.853"/>
		<path id="XMLID_423_" fill="none" stroke="#0686D8" stroke-width="1.5" stroke-miterlimit="10" d="M645.832,529.111
			c-1.227,0.739-2.669,1.152-4.206,1.121c-4.336-0.086-7.781-3.672-7.695-8.008c0.087-4.336,3.672-7.782,8.009-7.695
			c4.336,0.086,7.781,3.672,7.695,8.008c-0.017,0.842-0.165,1.65-0.426,2.405"/>
		<path id="XMLID_422_" fill="none" stroke="#0686D8" stroke-width="1.5" stroke-miterlimit="10" d="M648.571,526.332
			c-0.312,0.536-0.687,1.031-1.112,1.477"/>
		<g id="XMLID_419_">
			<path id="XMLID_421_" fill="none" stroke="#0686D8" stroke-width="1.5" stroke-miterlimit="10" d="M644.928,519.406h-3.889
				c-0.821,0-1.486,0.666-1.486,1.487l0,0c0,0.821,0.665,1.487,1.486,1.487h1.602c0.821,0,1.486,0.666,1.486,1.487l0,0
				c0,0.821-0.665,1.487-1.486,1.487h-4.003"/>
			
				<line id="XMLID_420_" fill="none" stroke="#0686D8" stroke-width="1.5" stroke-miterlimit="10" x1="641.783" y1="516.948" x2="641.783" y2="527.813"/>
		</g>
		<path id="XMLID_1000_" fill="#D2E9F7" d="M646.584,490.524c-0.057,1.137-1.023,2.014-2.159,1.958l-8.282-0.403
			c-1.138-0.056-2.013-1.021-1.958-2.158l0,0c0.055-1.137,1.021-2.013,2.157-1.959l8.283,0.404
			C645.761,488.42,646.638,489.386,646.584,490.524L646.584,490.524z"/>
		<path id="XMLID_999_" fill="#D2E9F7" d="M637.087,488.764c0.678,0.696,0.658,1.81-0.037,2.487l-4.174,4.086
			c-0.701,0.676-1.812,0.656-2.489-0.039l0,0c-0.673-0.697-0.658-1.811,0.039-2.488l4.177-4.084
			C635.297,488.049,636.409,488.066,637.087,488.764L637.087,488.764z"/>
		<path id="XMLID_998_" fill="#D2E9F7" d="M629.387,502.092l0.596-8.519l2.783,1.33c0,0,0.573,3.866-0.02,4.792
			C632.283,500.42,629.387,502.092,629.387,502.092z"/>
		<path id="XMLID_1008_" fill="none" stroke="#0686D8" stroke-width="1.5" stroke-miterlimit="10" d="M634.767,488.596
			c-0.056,0.042-0.113,0.081-0.164,0.13l-4.177,4.084c-0.44,0.428-0.606,1.029-0.502,1.59l-0.506,7.242
			c-0.014,0.191,0.188,0.321,0.353,0.223c0.804-0.482,2.617-1.609,2.976-2.17c0.465-0.728,0.212-3.263,0.082-4.319
			c0.015-0.014,0.032-0.023,0.048-0.038l3.324-3.255l8.121,0.395c1.024,0.05,2.007-0.605,2.219-1.609
			c0.27-1.281-0.666-2.442-1.915-2.502l-8.283-0.404C635.726,487.933,635.164,488.184,634.767,488.596z"/>
		<path id="XMLID_1002_" fill="#FFFFFF" d="M659.279,501.881l-6.539,4.046l-7.226,0.535c0,0-0.506-2.639,1.531-3.36l3.993-0.751
			c0,0,0.291-4.318,0.297-4.648c0.031-0.856-5.999-4.306-6.861-4.222c-0.509,0.05-7.267,0.61-7.267,0.61l-1.377,5.132
			c0,0-0.003,2.491,0.436,3.482c1.477,3.317-1.933,3.15-1.933,3.15l-2.225-7.136l1.688-7.698l10.188-3.503l15.295,3.189V501.881z"/>
		<path id="XMLID_997_" fill="none" stroke="#0686D8" stroke-width="1.5" stroke-miterlimit="10" d="M659.279,501.881l-6.539,4.046
			l-7.226,0.535c0,0-0.506-2.639,1.531-3.36l3.993-0.751c0,0,0.291-4.318,0.297-4.648c0.031-0.856-5.999-4.306-6.861-4.222
			c-0.509,0.05-7.267,0.61-7.267,0.61l-1.377,5.132c0,0-0.003,2.491,0.436,3.482c1.477,3.317-1.933,3.15-1.933,3.15l-2.225-7.136
			l1.688-7.698l10.188-3.503l15.295,3.189V501.881z"/>
		<path id="XMLID_269_" fill="#5FB0E5" d="M721.554,592.298v-80.584c0-12.645-10.25-22.895-22.895-22.895h-28.39h-10.584
			c-0.77,0-1.394,0.625-1.394,1.394v12.78c0,0.77,0.624,1.394,1.394,1.394h10.584l24.577,0.12c4.938,0.024,8.928,4.034,8.928,8.972
			v78.818"/>
		<path id="XMLID_273_" fill="none" stroke="#0686D8" stroke-width="1.5" stroke-miterlimit="10" d="M721.554,546.298v-34.584
			c0-12.645-10.25-22.895-22.895-22.895h-28.39h-10.584c-0.77,0-1.394,0.625-1.394,1.394v12.78c0,0.77,0.624,1.394,1.394,1.394
			h10.584l24.577,0.12c4.938,0.024,8.928,4.034,8.928,8.972v78.818"/>
		
			<line id="XMLID_398_" fill="none" stroke="#0686D8" stroke-width="1.5" stroke-miterlimit="10" x1="639.188" y1="504.551" x2="639.188" y2="512.417"/>
		
			<line id="XMLID_271_" fill="none" stroke="#0686D8" stroke-width="1.5" stroke-miterlimit="10" x1="643.324" y1="502.185" x2="643.324" y2="510.05"/>
		
			<line id="XMLID_400_" fill="none" stroke="#0686D8" stroke-width="1.5" stroke-miterlimit="10" x1="647.459" y1="508.842" x2="647.459" y2="513.865"/>
		
			<line id="XMLID_270_" fill="none" stroke="#0686D8" stroke-width="1.5" stroke-miterlimit="10" x1="635.054" y1="509.905" x2="635.054" y2="514.928"/>
	</g>
	
		<line id="XMLID_5_" fill="none" stroke="#0686D8" stroke-width="1.5" stroke-miterlimit="10" x1="342.739" y1="592.355" x2="780.088" y2="592.355"/>
	<g opacity="0.3">
		<path fill="#03436C" d="M721.554,564.988c-0.552-0.062-1.114-0.095-1.685-0.095c-2.492,0-4.829,0.607-6.857,1.659l-3.048-2.073
			c-1.211-0.824-2.722-0.936-4.041-0.299c-1.319,0.637-2.171,1.89-2.279,3.351l-0.352,4.762c-0.031,0.426,0.169,0.84,0.522,1.081
			c0.202,0.137,0.438,0.208,0.675,0.208c0.179,0,0.356-0.04,0.521-0.119l2.13-1.029c-0.792,1.603-1.244,3.376-1.244,5.247
			c0,4.151,2.183,7.835,5.542,10.173l0.312,4.444h5.832v-2.017c0.746,0.112,1.506,0.186,2.286,0.186
			c0.572,0,1.132-0.049,1.685-0.114V564.988z"/>
		<path fill="#03436C" d="M711.608,555.906c0.088,4.425,3.716,7.964,8.122,7.964c0.055,0,0.109,0,0.164-0.001
			c0.565-0.011,1.12-0.083,1.659-0.206v-15.825c-0.64-0.146-1.3-0.23-1.982-0.218c-2.171,0.043-4.194,0.929-5.698,2.494
			C712.369,551.679,711.564,553.736,711.608,555.906z"/>
	</g>
	<g id="XMLID_274_">
		<path id="XMLID_302_" fill="#D2E9F7" d="M736.372,567.586l0.352,4.762c0.025,0.346-0.332,0.589-0.645,0.438l-8.854-4.276
			c-0.265-0.128-0.292-0.495-0.049-0.661l4.045-2.751C733.323,563.669,736.185,565.051,736.372,567.586z"/>
		<path id="XMLID_301_" fill="none" stroke="#0686D8" stroke-width="1.5" stroke-miterlimit="10" d="M736.372,567.586l0.352,4.762
			c0.025,0.346-0.332,0.589-0.645,0.438l-8.854-4.276c-0.265-0.128-0.292-0.495-0.049-0.661l4.045-2.751
			C733.323,563.669,736.185,565.051,736.372,567.586z"/>
		<path id="XMLID_300_" fill="#D2E9F7" d="M706.392,567.586l-0.352,4.762c-0.025,0.346,0.333,0.589,0.645,0.438l8.854-4.276
			c0.266-0.128,0.293-0.495,0.049-0.661l-4.045-2.751C709.44,563.669,706.579,565.051,706.392,567.586z"/>
		<path id="XMLID_299_" fill="none" stroke="#0686D8" stroke-width="1.5" stroke-miterlimit="10" d="M706.392,567.586l-0.352,4.762
			c-0.025,0.346,0.333,0.589,0.645,0.438l8.854-4.276c0.266-0.128,0.293-0.495,0.049-0.661l-4.045-2.751
			C709.44,563.669,706.579,565.051,706.392,567.586z"/>
		<circle id="XMLID_291_" fill="#FFFFFF" cx="721.733" cy="555.744" r="7.376"/>
		<path id="XMLID_290_" fill="none" stroke="#0686D8" stroke-width="1.5" stroke-miterlimit="10" d="M725.535,549.422
			c-1.151-0.694-2.506-1.082-3.949-1.053c-4.073,0.081-7.31,3.449-7.228,7.521c0.081,4.073,3.448,7.309,7.521,7.228
			c4.072-0.082,7.309-3.449,7.227-7.521c-0.016-0.791-0.154-1.55-0.399-2.259"/>
		<path id="XMLID_289_" fill="none" stroke="#0686D8" stroke-width="1.5" stroke-miterlimit="10" d="M728.108,552.033
			c-0.294-0.503-0.646-0.969-1.045-1.387"/>
		<g id="XMLID_286_">
			<path id="XMLID_288_" fill="none" stroke="#0686D8" stroke-width="1.5" stroke-miterlimit="10" d="M724.687,552.951h-3.652
				c-0.771,0-1.396,0.625-1.396,1.396l0,0c0,0.771,0.625,1.396,1.396,1.396h1.504c0.771,0,1.396,0.625,1.396,1.396l0,0
				c0,0.771-0.625,1.396-1.396,1.396h-3.76"/>
			
				<line id="XMLID_287_" fill="none" stroke="#0686D8" stroke-width="1.5" stroke-miterlimit="10" x1="721.732" y1="550.641" x2="721.732" y2="560.846"/>
		</g>
		<polygon id="XMLID_632_" fill="#9ECFEF" points="718.833,592.354 714.507,592.354 714.06,586 718.833,586 		"/>
		<polygon id="XMLID_606_" fill="#9ECFEF" points="724.793,592.354 729.118,592.354 729.565,586 724.793,586 		"/>
		<polygon id="XMLID_575_" fill="none" stroke="#0686D8" stroke-width="1.5" stroke-miterlimit="10" points="718.833,592.354 
			714.507,592.354 714.06,586 718.833,586 		"/>
		<polygon id="XMLID_524_" fill="none" stroke="#0686D8" stroke-width="1.5" stroke-miterlimit="10" points="724.793,592.354 
			729.118,592.354 729.565,586 724.793,586 		"/>
		<ellipse id="XMLID_285_" fill="#FFFFFF" cx="721.869" cy="577.68" rx="13.222" ry="12.037"/>
		<circle id="XMLID_284_" fill="#D2E9F7" cx="721.732" cy="580.364" r="3.887"/>
		
			<ellipse id="XMLID_283_" fill="none" stroke="#0686D8" stroke-width="1.5" stroke-miterlimit="10" cx="721.869" cy="577.68" rx="13.222" ry="12.037"/>
		<path id="XMLID_282_" fill="none" stroke="#0686D8" stroke-width="1.5" stroke-miterlimit="10" d="M725.622,585.319
			c-0.995,0.996-2.37,1.611-3.89,1.611c-1.519,0-2.895-0.615-3.89-1.611"/>
		
			<circle id="XMLID_281_" fill="none" stroke="#0686D8" stroke-width="1.5" stroke-miterlimit="10" cx="721.732" cy="580.364" r="3.887"/>
		<g id="XMLID_278_">
			<path id="XMLID_280_" fill="none" stroke="#0686D8" stroke-width="1.5" stroke-miterlimit="10" d="M715.647,574.961
				c0-1.018,0.825-1.844,1.844-1.844s1.844,0.826,1.844,1.844"/>
			<path id="XMLID_279_" fill="none" stroke="#0686D8" stroke-width="1.5" stroke-miterlimit="10" d="M724.13,574.961
				c0-1.018,0.826-1.844,1.844-1.844c1.019,0,1.844,0.826,1.844,1.844"/>
		</g>
		
			<line id="XMLID_277_" fill="none" stroke="#0686D8" stroke-width="1.5" stroke-miterlimit="10" x1="719.656" y1="580.548" x2="720.85" y2="580.548"/>
		
			<line id="XMLID_275_" fill="none" stroke="#0686D8" stroke-width="1.5" stroke-miterlimit="10" x1="722.802" y1="580.548" x2="723.995" y2="580.548"/>
	</g>
</g>
</svg>
