<?xml version="1.0" encoding="utf-8"?>
<!-- Generator: Adobe Illustrator 16.0.0, SVG Export Plug-In . SVG Version: 6.00 Build 0)  -->
<!DOCTYPE svg PUBLIC "-//W3C//DTD SVG 1.1//EN" "http://www.w3.org/Graphics/SVG/1.1/DTD/svg11.dtd">
<svg version="1.1" id="Layer_1" xmlns="http://www.w3.org/2000/svg" xmlns:xlink="http://www.w3.org/1999/xlink" x="0px" y="0px"
	 width="2260px" height="1252px" viewBox="0 0 2260 1252" enable-background="new 0 0 2260 1252" xml:space="preserve">
<path fill="#D2E9F7" d="M338.168,330.897L338.168,330.897c0,34.618,20.637,62.679,46.095,62.679h285.099
	c18.963,0,34.332,20.893,34.332,46.671l0,0c0,25.78-15.369,46.676-34.332,46.676H189.528c-33.235,0-60.178,36.632-60.178,81.825l0,0
	c0,45.193,26.942,81.825,60.178,81.825h665.983c21.309,0,38.578,23.482,38.578,52.451l0,0c0,28.844-17.129,52.277-38.34,52.453
	l-505.06,4.197c-34.395,0.283-62.167,38.271-62.167,85.035l0,0c0,46.971,28.003,85.045,62.549,85.045h414.58v251.998h1088.533
	v-146.816l346.928,0.354c32.521,0.035,58.887-35.797,58.887-80.014l0,0c0-44.184-26.342-80.008-58.844-80.008h-215.084
	c-26.594,0-48.155-29.311-48.155-65.475l0,0c0-36.156,21.562-65.467,48.155-65.467h26.262c33.568,0,60.782-36.998,60.782-82.637l0,0
	c0-45.642-27.214-82.639-60.782-82.639h-404.118c-23.719,0-42.947-26.144-42.947-58.39l0,0c0-32.245,19.229-58.384,42.947-58.384
	h207.391c39.41,0,71.362-43.437,71.362-97.028l0,0c0-53.585-31.952-97.029-71.362-97.029H384.263
	C358.805,268.221,338.168,296.284,338.168,330.897z"/>
<path id="XMLID_91_" fill="#5FB0E5" d="M917.154,352.256c0,4.412-3.581,7.984-7.985,7.984c-4.413,0-7.993-3.572-7.993-7.984
	c0-4.414,3.581-7.993,7.993-7.993C913.573,344.263,917.154,347.842,917.154,352.256z"/>
<path id="XMLID_196_" fill="#5FB0E5" d="M1449.032,498.95c0,5.701-4.623,10.324-10.33,10.324c-5.701,0-10.33-4.623-10.33-10.324
	c0-5.708,4.629-10.331,10.33-10.331C1444.409,488.619,1449.032,493.242,1449.032,498.95z"/>
<path id="XMLID_240_" fill="#5FB0E5" d="M1064.702,416.813c0,7.145-5.796,12.94-12.939,12.94c-7.146,0-12.941-5.795-12.941-12.94
	c0-7.144,5.795-12.939,12.941-12.939C1058.906,403.874,1064.702,409.669,1064.702,416.813z"/>
<path id="XMLID_85_" fill="#5FB0E5" d="M1115.384,535.445c0,3.485-2.819,6.305-6.301,6.305c-3.485,0-6.306-2.82-6.306-6.305
	c0-3.484,2.82-6.304,6.306-6.304C1112.565,529.141,1115.384,531.961,1115.384,535.445z"/>
<path id="XMLID_161_" fill="#5FB0E5" d="M840.759,56.771c0,6.027-4.88,10.907-10.902,10.907c-6.032,0-10.912-4.88-10.912-10.907
	c0-6.025,4.88-10.906,10.912-10.906C835.879,45.864,840.759,50.746,840.759,56.771z"/>
<path id="XMLID_86_" fill="#5FB0E5" d="M497.616,360.24c0,4.073-3.309,7.375-7.375,7.375c-4.073,0-7.375-3.302-7.375-7.375
	c0-4.068,3.302-7.375,7.375-7.375C494.307,352.866,497.616,356.172,497.616,360.24z"/>
<path id="XMLID_70_" fill="#5FB0E5" d="M1018.657,233c0,5.369-4.346,9.715-9.708,9.715c-5.369,0-9.713-4.346-9.713-9.715
	c0-5.362,4.344-9.706,9.713-9.706C1014.311,223.293,1018.657,227.638,1018.657,233z"/>
<path id="XMLID_71_" fill="#5FB0E5" d="M2210.866,596.534c0,5.979-4.846,10.825-10.83,10.825c-5.979,0-10.825-4.846-10.825-10.825
	c0-5.979,4.846-10.825,10.825-10.825C2206.021,585.708,2210.866,590.555,2210.866,596.534z"/>
<path id="XMLID_68_" fill="#5FB0E5" d="M1595.049,794.184c-12.75,3.383-15.495,6.121-18.876,18.871
	c-3.384-12.75-6.125-15.488-18.873-18.871c12.748-3.383,15.489-6.129,18.873-18.879
	C1579.554,788.055,1582.299,790.801,1595.049,794.184z"/>
<path id="XMLID_65_" fill="#5FB0E5" d="M2013.341,178.737c-14.384,3.816-17.477,6.907-21.3,21.292
	c-3.81-14.384-6.906-17.475-21.29-21.292c14.384-3.817,17.48-6.907,21.29-21.291C1995.864,171.83,1998.957,174.92,2013.341,178.737z
	"/>
<path id="XMLID_35_" fill="#5FB0E5" d="M1266.302,301.09c-19.806,5.254-24.069,9.518-29.323,29.323
	c-5.254-19.806-9.518-24.069-29.324-29.323c19.807-5.253,24.07-9.517,29.324-29.324
	C1242.232,291.573,1246.496,295.837,1266.302,301.09z"/>
<path id="XMLID_46_" fill="#5FB0E5" d="M1476.112,142.065c-10.39,2.751-12.621,4.99-15.377,15.381
	c-2.762-10.391-4.992-12.629-15.385-15.381c10.393-2.758,12.623-4.995,15.385-15.388
	C1463.491,137.071,1465.723,139.307,1476.112,142.065z"/>
<path id="XMLID_43_" fill="#5FB0E5" d="M1932.981,397.719c-10.394,2.758-12.629,4.995-15.387,15.38
	c-2.753-10.386-4.99-12.622-15.383-15.38c10.393-2.759,12.63-4.99,15.383-15.381C1920.353,392.729,1922.588,394.96,1932.981,397.719
	z"/>
<path id="XMLID_238_" fill="#5FB0E5" d="M2113.175,382.338c-10.391,2.758-12.621,4.989-15.382,15.381
	c-2.758-10.392-4.987-12.623-15.38-15.381c10.393-2.759,12.622-4.99,15.38-15.38
	C2100.554,377.349,2102.784,379.579,2113.175,382.338z"/>
<g>
	<g id="XMLID_232_">
		<rect id="XMLID_190_" x="602.14" y="287.269" fill="#FFFFFF" width="169.913" height="155.276"/>
		
			<rect id="XMLID_175_" x="602.14" y="287.269" fill="none" stroke="#0686D8" stroke-width="1.5" stroke-miterlimit="10" width="169.913" height="155.276"/>
		<polygon id="XMLID_173_" fill="#FFFFFF" points="797.945,786.436 776.24,452.036 597.964,452.036 576.24,786.617 		"/>
		<polygon id="XMLID_172_" fill="#5FB0E5" points="776.24,452.036 606.519,452.036 597.625,457.167 590.46,567.556 776.755,460 		
			"/>
		<polygon id="XMLID_207_" fill="#5FB0E5" points="576.24,786.617 789.948,663.229 783.305,560.818 583.406,676.225 		"/>
		<polygon id="XMLID_236_" fill="none" stroke="#0686D8" stroke-width="1.5" stroke-miterlimit="10" points="776.24,452.036 
			606.519,452.036 597.625,457.167 590.46,567.556 776.755,460 		"/>
		
			<line id="XMLID_191_" fill="none" stroke="#0686D8" stroke-width="1.5" stroke-miterlimit="10" x1="783.305" y1="560.818" x2="583.406" y2="676.225"/>
		<polyline id="XMLID_237_" fill="none" stroke="#0686D8" stroke-width="1.5" stroke-miterlimit="10" points="580.45,741.033 
			597.964,452.036 776.24,452.036 786.036,602.946 		"/>
		<path id="XMLID_170_" fill="#9ECFEF" d="M794.693,470.446H579.5c-1.803,0-3.26-1.464-3.26-3.261v-49.273
			c0-1.796,1.458-3.261,3.26-3.261h215.192c1.795,0,3.252,1.464,3.252,3.261v49.273
			C797.945,468.982,796.488,470.446,794.693,470.446z"/>
		<path id="XMLID_31_" fill="none" stroke="#0686D8" stroke-width="1.5" stroke-miterlimit="10" d="M794.693,470.446H579.5
			c-1.803,0-3.26-1.464-3.26-3.261v-49.273c0-1.796,1.458-3.261,3.26-3.261h215.192c1.795,0,3.252,1.464,3.252,3.261v49.273
			C797.945,468.982,796.488,470.446,794.693,470.446z"/>
		<path id="XMLID_174_" fill="#9ECFEF" d="M685.753,179.287L558.746,283.975c-1.228,1.2-0.381,3.294,1.342,3.294h254.018
			c1.716,0,2.562-2.095,1.335-3.294L688.433,179.287C687.686,178.555,686.5,178.555,685.753,179.287z"/>
		<path id="XMLID_208_" fill="none" stroke="#0686D8" stroke-width="1.5" stroke-miterlimit="10" d="M685.753,179.287
			L558.746,283.975c-1.228,1.2-0.381,3.294,1.342,3.294h254.018c1.716,0,2.562-2.095,1.335-3.294L688.433,179.287
			C687.686,178.555,686.5,178.555,685.753,179.287z"/>
		<path id="XMLID_209_" fill="none" stroke="#0686D8" stroke-width="1.5" stroke-miterlimit="10" d="M708.929,352.256
			c0,12.058-9.773,21.84-21.834,21.84c-12.058,0-21.839-9.782-21.839-21.84c0-12.066,9.782-21.842,21.839-21.842
			C699.156,330.414,708.929,340.189,708.929,352.256z"/>
		
			<line id="XMLID_213_" fill="none" stroke="#0686D8" stroke-width="1.5" stroke-miterlimit="10" x1="429.966" y1="451.615" x2="550.51" y2="382.013"/>
		
			<line id="XMLID_223_" fill="none" stroke="#0686D8" stroke-width="1.5" stroke-miterlimit="10" x1="550.51" y1="323.074" x2="429.966" y2="253.479"/>
		
			<line id="XMLID_224_" fill="none" stroke="#0686D8" stroke-width="1.5" stroke-miterlimit="10" x1="950.397" y1="451.615" x2="829.857" y2="382.013"/>
		
			<line id="XMLID_222_" fill="none" stroke="#0686D8" stroke-width="1.5" stroke-miterlimit="10" x1="829.857" y1="323.074" x2="950.397" y2="253.479"/>
	</g>
	<polyline id="XMLID_177_" fill="none" stroke="#0686D8" stroke-width="3" stroke-miterlimit="10" points="1786.368,320.83 
		1844.832,320.83 1844.832,382.338 	"/>
	<g id="XMLID_176_">
		<path id="XMLID_189_" fill="#D2E9F7" d="M2257.966,1174.814h-263.711c-1.575,0-2.856-2.463-2.856-5.5v-83.172
			c0-3.037,1.281-5.498,2.856-5.498h263.711c1.579,0,2.86,2.461,2.86,5.498v83.172
			C2260.826,1172.352,2259.545,1174.814,2257.966,1174.814z"/>
		<path id="XMLID_144_" fill="none" stroke="#0686D8" stroke-width="1.5" stroke-miterlimit="10" d="M2078.571,1080.645h179.225
			c1.675,0,3.03,2.609,3.03,5.822v82.523c0,3.213-1.355,5.824-3.03,5.824h-263.37c-1.673,0-3.027-2.611-3.027-5.824"/>
		
			<line id="XMLID_572_" fill="none" stroke="#0686D8" stroke-width="1.5" stroke-miterlimit="10" x1="2103.331" y1="1080.645" x2="2103.331" y2="1118.049"/>
		
			<line id="XMLID_184_" fill="none" stroke="#0686D8" stroke-width="1.5" stroke-miterlimit="10" x1="2131.613" y1="1080.645" x2="2131.613" y2="1118.049"/>
		
			<line id="XMLID_183_" fill="none" stroke="#0686D8" stroke-width="1.5" stroke-miterlimit="10" x1="2159.898" y1="1080.645" x2="2159.898" y2="1118.049"/>
		
			<line id="XMLID_181_" fill="none" stroke="#0686D8" stroke-width="1.5" stroke-miterlimit="10" x1="2188.18" y1="1080.645" x2="2188.18" y2="1118.049"/>
		
			<line id="XMLID_179_" fill="none" stroke="#0686D8" stroke-width="1.5" stroke-miterlimit="10" x1="2216.461" y1="1080.645" x2="2216.461" y2="1118.049"/>
		
			<line id="XMLID_534_" fill="none" stroke="#0686D8" stroke-width="1.5" stroke-miterlimit="10" x1="2244.334" y1="1080.645" x2="2244.334" y2="1118.049"/>
	</g>
	<g>
		<path id="XMLID_852_" fill="#FFFFFF" d="M1988.586,744.484l90.08,90.078v314.477c0,14.23-11.539,25.775-25.766,25.775h-268.939
			c-14.229,0-25.773-11.545-25.773-25.775V770.254c0-14.232,11.545-25.77,25.773-25.77H1988.586z"/>
		<polygon id="XMLID_878_" fill="#5FB0E5" points="1988.586,834.562 1988.586,744.484 2078.666,834.562 		"/>
		<path id="XMLID_853_" fill="none" stroke="#0686D8" stroke-width="1.5" stroke-miterlimit="10" d="M2078.666,834.562h-81.08
			c-4.975,0-9-4.025-9-8.994v-81.084"/>
		<g id="XMLID_914_">
			<path id="XMLID_916_" fill="none" stroke="#0686D8" stroke-width="1.5" stroke-miterlimit="10" d="M1953.798,827.113h-52.073
				c-11.002,0-19.916,8.914-19.916,19.91l0,0c0,11.002,8.914,19.914,19.916,19.914h21.441c10.994,0,19.906,8.914,19.906,19.908l0,0
				c0,10.996-8.912,19.916-19.906,19.916h-53.612"/>
			
				<line id="XMLID_915_" fill="none" stroke="#0686D8" stroke-width="1.5" stroke-miterlimit="10" x1="1911.674" y1="794.184" x2="1911.674" y2="939.693"/>
		</g>
		
			<line id="XMLID_923_" fill="none" stroke="#0686D8" stroke-width="1.5" stroke-miterlimit="10" x1="1794.69" y1="966.609" x2="2033.628" y2="966.609"/>
		
			<line id="XMLID_856_" fill="none" stroke="#0686D8" stroke-width="1.5" stroke-miterlimit="10" x1="1794.69" y1="1017.713" x2="2033.628" y2="1017.713"/>
		
			<line id="XMLID_924_" fill="none" stroke="#0686D8" stroke-width="1.5" stroke-miterlimit="10" x1="1794.69" y1="1068.811" x2="2033.628" y2="1068.811"/>
		
			<line id="XMLID_925_" fill="none" stroke="#0686D8" stroke-width="1.5" stroke-miterlimit="10" x1="1794.69" y1="1119.912" x2="2033.628" y2="1119.912"/>
		<path id="XMLID_171_" fill="none" stroke="#0686D8" stroke-width="1.5" stroke-miterlimit="10" d="M1813.36,744.484h175.226
			l90.08,90.078v314.477c0,14.23-11.539,25.775-25.766,25.775h-268.939c-14.229,0-25.773-11.545-25.773-25.775"/>
	</g>
	<g>
		<path id="XMLID_122_" fill="#5FB0E5" d="M1427.022,1145.623H709.555c-3.817,0-6.943-3.123-6.943-6.939V626.888
			c0-3.823,3.126-6.94,6.943-6.94h717.468c3.816,0,6.939,3.117,6.939,6.94v511.795
			C1433.962,1142.5,1430.839,1145.623,1427.022,1145.623z"/>
		
			<line id="XMLID_75_" fill="none" stroke="#0686D8" stroke-width="1.5" stroke-miterlimit="10" x1="763.612" y1="619.948" x2="777.373" y2="619.948"/>
		<path id="XMLID_169_" fill="none" stroke="#0686D8" stroke-width="1.5" stroke-miterlimit="10" d="M702.611,737.93v-99.816
			c0-9.992,8.183-18.166,18.181-18.166h36.374"/>
		
			<line id="XMLID_185_" fill="none" stroke="#0686D8" stroke-width="1.5" stroke-miterlimit="10" x1="1433.962" y1="833.668" x2="1433.962" y2="936.363"/>
		<path id="XMLID_168_" fill="none" stroke="#0686D8" stroke-width="1.5" stroke-miterlimit="10" d="M783.568,619.948h632.224
			c9.998,0,18.17,8.173,18.17,18.166v136.881"/>
		<rect id="XMLID_30_" x="738.131" y="661.305" fill="#FFFFFF" width="656.349" height="426.586"/>
		<path id="XMLID_27_" fill="#FFFFFF" d="M1421.188,1174.814H707.336c-17.142,0-31.757-12.412-34.529-29.324l-5.083-31.021h330.854
			l12.663,18.174h91.422l13.687-18.174h348.539l-4.42,26.979C1457.31,1160.686,1440.681,1174.814,1421.188,1174.814z"/>
		
			<line id="XMLID_192_" fill="none" stroke="#0686D8" stroke-width="1.5" stroke-miterlimit="10" x1="1421.188" y1="1174.814" x2="707.336" y2="1174.814"/>
		<polyline id="XMLID_188_" fill="none" stroke="#0686D8" stroke-width="1.5" stroke-miterlimit="10" points="755.919,1114.469 
			998.577,1114.469 1011.24,1132.643 1102.662,1132.643 1116.349,1114.469 1207.654,1114.469 		"/>
	</g>
	<polygon opacity="0.3" fill="#03436C" points="1433.962,833.668 1433.962,813.809 1358.029,901.955 1196.668,710.746 
		1002.984,997.254 905.466,896.182 809.761,996.191 734.92,993.467 734.92,1014.291 818.864,1017.348 906.057,926.242 
		1006.305,1030.158 1198.957,745.168 1358.357,934.059 1439.169,840.244 1439.169,833.668 	"/>
	<polyline id="XMLID_130_" fill="none" stroke="#0686D8" stroke-width="3" stroke-miterlimit="10" points="734.92,1003.877 
		814.308,1003.877 905.765,904.984 1004.652,1003.877 1197.812,711.086 1358.193,895.293 1624.439,576.503 	"/>
	<path opacity="0.3" fill="#03436C" d="M1825.27,1174.814v-351.09h-25.365l-0.725-27.291l10.775-51.949h-25.994
		c-14.229,0-25.773,11.537-25.773,25.77v378.785l0,0h-5.205c0,10.746,5.504,20.213,13.834,25.775h48.041l0,0H1825.27z"/>
	<g>
		<path fill="#FFFFFF" d="M1709.951,681.896c9.349-2.705,14.731-12.418,12.034-21.725l0,0c-2.677-9.369-12.435-14.709-21.721-12.047
			l-61.146,17.625c-9.337,2.65-14.731,12.418-12.048,21.725l0,0c2.726,9.355,12.413,14.711,21.781,12.025L1709.951,681.896z"/>
		<path fill="#FFFFFF" d="M1728.438,719.674c9.35-2.691,14.737-12.426,12.025-21.76l0,0c-2.691-9.34-12.411-14.695-21.73-12.02
			l-61.145,17.613c-9.301,2.684-14.724,12.43-12.03,21.773l0,0c2.703,9.311,12.45,14.68,21.765,11.982L1728.438,719.674z"/>
		<path fill="#FFFFFF" d="M1738.232,756.697c9.294-2.684,14.709-12.424,12.012-21.738l0,0c-2.712-9.34-12.424-14.723-21.727-12.045
			l-61.126,17.65c-9.343,2.664-14.738,12.412-12.066,21.738l0,0c2.704,9.328,12.443,14.678,21.759,12.006L1738.232,756.697z"/>
		<path fill="none" stroke="#0686D8" stroke-width="1.5" stroke-miterlimit="10" d="M1649.312,662.809l-10.193,2.941
			c-9.337,2.65-14.731,12.418-12.048,21.725l0,0c2.726,9.355,12.413,14.711,21.781,12.025l11.564-3.328"/>
		<path fill="none" stroke="#0686D8" stroke-width="1.5" stroke-miterlimit="10" d="M1657.588,703.508
			c-9.301,2.684-14.724,12.43-12.03,21.773l0,0c2.703,9.311,12.45,14.68,21.765,11.982"/>
		<path fill="none" stroke="#0686D8" stroke-width="1.5" stroke-miterlimit="10" d="M1667.392,740.564
			c-9.343,2.664-14.738,12.412-12.066,21.738l0,0c2.704,9.328,12.443,14.678,21.759,12.006"/>
		<g id="XMLID_125_">
			
				<line id="XMLID_767_" fill="none" stroke="#0686D8" stroke-width="1.5" stroke-miterlimit="10" x1="1699.404" y1="577.004" x2="1699.404" y2="629.885"/>
			<path id="XMLID_764_" fill="#5FB0E5" d="M1699.404,328.259c-70.496,0-127.647,57.148-127.647,127.647
				c0,70.497,57.151,127.64,127.647,127.64c70.49,0,127.641-57.143,127.641-127.647
				C1827.045,385.408,1769.895,328.259,1699.404,328.259z M1699.404,552.88c-53.557,0-96.973-43.417-96.973-96.974
				c0-53.558,43.416-96.975,96.973-96.975c53.56,0,96.977,43.417,96.977,96.975C1796.381,509.463,1752.964,552.88,1699.404,552.88z"
				/>
			<path id="XMLID_128_" fill="none" stroke="#0686D8" stroke-width="1.5" stroke-miterlimit="10" d="M1780.6,357.407
				c-22.066-18.207-50.352-29.147-81.195-29.147c-70.496,0-127.647,57.148-127.647,127.647c0,70.497,57.151,127.64,127.647,127.64
				c70.49,0,127.641-57.143,127.641-127.647c0-23.617-6.413-45.741-17.597-64.714"/>
			<path id="XMLID_761_" fill="#5FB0E5" d="M1674.189,614.308v154.286c0,8.148,6.603,14.744,14.75,14.752l20.932-0.008
				c8.142,0,14.741-6.602,14.741-14.744V614.299L1674.189,614.308z"/>
			<path id="XMLID_127_" fill="none" stroke="#0686D8" stroke-width="1.5" stroke-miterlimit="10" d="M1674.189,614.308v154.286
				c0,8.148,6.603,14.744,14.75,14.752l20.932-0.008c8.142,0,14.741-6.602,14.741-14.744V614.299L1674.189,614.308z"/>
			
				<line id="XMLID_758_" fill="none" stroke="#0686D8" stroke-width="1.5" stroke-miterlimit="10" x1="1672.963" y1="650.602" x2="1725.842" y2="650.602"/>
			
				<line id="XMLID_126_" fill="none" stroke="#0686D8" stroke-width="1.5" stroke-miterlimit="10" x1="1672.963" y1="677.043" x2="1725.842" y2="677.043"/>
		</g>
		<polygon fill="#FFFFFF" points="1781.188,837.742 1780.076,795.965 1799.463,702.496 1751.362,637.801 1711.552,647.441 
			1687.624,783.182 1690.798,838.238 		"/>
		<path fill="none" stroke="#0686D8" stroke-width="1.5" stroke-miterlimit="10" d="M1687.624,741.535l3.174,96.703l90.391-0.496
			l-1.112-41.777l18.222-87.855c0.745-3.572-0.075-7.287-2.25-10.209l-44.686-60.1l-37.319,9.037"/>
		<path fill="#FFFFFF" d="M1743.987,763.131c4.348,12.561-1.51,26.822-13.042,31.867l0,0c-11.568,5.076-24.457-0.963-28.788-13.518
			l-40.287-115.939c-4.383-12.568,1.46-26.816,13.002-31.889l0,0c11.559-5.076,24.424,1.006,28.817,13.537L1743.987,763.131z"/>
		<path fill="#FFFFFF" d="M1760.086,790.334c-0.094,24.775-4.67,44.744-25.683,44.656h-24.56
			c-21.053-0.068-25.975-20.188-25.861-44.961l0.085-20.398c0.094-24.775,17.217-44.73,38.262-44.643l0,0
			c21.014,0.074,37.947,20.18,37.846,44.941L1760.086,790.334z"/>
		<path fill="none" stroke="#0686D8" stroke-width="1.5" stroke-miterlimit="10" d="M1702.157,781.48l-40.287-115.939
			c-4.383-12.568,1.46-26.816,13.002-31.889l0,0c11.559-5.076,24.424,1.006,28.817,13.537l27.459,79.039"/>
		<polyline fill="none" stroke="#0686D8" stroke-width="1.5" stroke-miterlimit="10" points="1687.624,741.535 1690.798,838.238 
			1781.188,837.742 		"/>
		<rect x="1673.708" y="828.93" fill="#9ECFEF" width="132.474" height="345.885"/>
		<polyline fill="none" stroke="#0686D8" stroke-width="1.5" stroke-miterlimit="10" points="1673.708,954.326 1673.708,828.93 
			1806.182,828.93 1806.182,1174.814 		"/>
	</g>
	
		<line id="XMLID_131_" fill="none" stroke="#0686D8" stroke-width="3" stroke-miterlimit="10" x1="1660.416" y1="535.445" x2="1835.999" y2="327.758"/>
	<g opacity="0.3">
		<path fill="#03436C" d="M1679.075,1010.684c1.695,0.977,3.546,1.441,5.369,1.441c3.735,0,7.371-1.93,9.354-5.387l9.213-15.943
			c1.445-2.494,1.83-5.402,1.084-8.188c-0.743-2.779-2.527-5.113-5.022-6.549l-25.364-14.648v46.174l5.362,3.1H1679.075z"/>
		<path fill="#03436C" d="M1746.995,1174.814c0-61.875-28.644-117.113-73.287-153.389v153.389h33.363h10.41h19.104H1746.995z"/>
	</g>
	<g>
		<path id="XMLID_840_" fill="#5FB0E5" d="M1727.907,1174.814c0-106.316-86.188-192.5-192.495-192.5
			c-106.316,0-192.499,86.184-192.499,192.5H1727.907z"/>
		<path id="XMLID_26_" fill="none" stroke="#0686D8" stroke-width="1.5" stroke-miterlimit="10" d="M1727.907,1174.814
			c0-106.316-86.188-192.5-192.495-192.5c-64.404,0-121.425,31.631-156.368,80.205"/>
		<path id="XMLID_835_" fill="#D2E9F7" d="M1698.389,1174.814c0-90.014-72.965-162.986-162.977-162.986
			c-90.014,0-162.983,72.973-162.983,162.986H1698.389z"/>
		<path id="XMLID_834_" fill="#FFFFFF" d="M1624.122,1174.814c0-48.996-39.714-88.721-88.71-88.721s-88.718,39.725-88.718,88.721
			H1624.122z"/>
		<path id="XMLID_833_" fill="#5FB0E5" d="M1555.64,1174.814c0-11.174-9.058-20.227-20.228-20.227
			c-11.172,0-20.229,9.053-20.229,20.227H1555.64z"/>
		<path id="XMLID_828_" fill="none" stroke="#0686D8" stroke-width="1.5" stroke-miterlimit="10" d="M1698.389,1174.814
			c0-90.014-72.965-162.986-162.977-162.986c-90.014,0-162.983,72.973-162.983,162.986"/>
		
			<line id="XMLID_827_" fill="none" stroke="#0686D8" stroke-width="1.5" stroke-miterlimit="10" x1="1535.412" y1="1009.316" x2="1535.02" y2="1040.496"/>
		
			<line id="XMLID_826_" fill="none" stroke="#0686D8" stroke-width="1.5" stroke-miterlimit="10" x1="1610.301" y1="1031.908" x2="1594.948" y2="1057.738"/>
		
			<line id="XMLID_825_" fill="none" stroke="#0686D8" stroke-width="1.5" stroke-miterlimit="10" x1="1676.574" y1="1093.363" x2="1648.043" y2="1109.359"/>
		
			<line id="XMLID_824_" fill="none" stroke="#0686D8" stroke-width="1.5" stroke-miterlimit="10" x1="1394.376" y1="1093.119" x2="1422.474" y2="1109.865"/>
		
			<line id="XMLID_816_" fill="none" stroke="#0686D8" stroke-width="1.5" stroke-miterlimit="10" x1="1460.735" y1="1031.779" x2="1475.396" y2="1058.01"/>
		<g id="XMLID_691_">
			<g id="XMLID_194_">
				<polygon fill="#5FB0E5" points="1537.162,1161.031 1610.057,1091.939 1612.932,1094.785 1544.556,1168.361 				"/>
			</g>
		</g>
		<g id="XMLID_453_">
			
				<line id="XMLID_465_" fill="none" stroke="#0686D8" stroke-width="1.5" stroke-miterlimit="10" x1="1535.412" y1="946.594" x2="1535.412" y2="982.314"/>
			<path id="XMLID_456_" fill="#5FB0E5" d="M1568.403,961.695h-66.818c-3.076,0-5.57-2.494-5.57-5.572v-27.352
				c0-3.084,2.494-5.58,5.57-5.58h66.818c3.084,0,5.579,2.496,5.579,5.574v27.357
				C1573.982,959.201,1571.487,961.695,1568.403,961.695z"/>
			<path id="XMLID_454_" fill="none" stroke="#0686D8" stroke-width="1.5" stroke-miterlimit="10" d="M1568.403,961.695h-66.818
				c-3.076,0-5.57-2.494-5.57-5.572v-27.352c0-3.084,2.494-5.58,5.57-5.58h66.818c3.084,0,5.579,2.496,5.579,5.574v27.357
				C1573.982,959.201,1571.487,961.695,1568.403,961.695z"/>
		</g>
		<g id="XMLID_363_">
			
				<line id="XMLID_452_" fill="none" stroke="#0686D8" stroke-width="1.5" stroke-miterlimit="10" x1="1652.769" y1="984.098" x2="1639.048" y2="1007.863"/>
			<path id="XMLID_451_" fill="#5FB0E5" d="M1667.791,1006.178l-42.203-24.379c-2.666-1.537-3.581-4.945-2.041-7.609l9.219-15.957
				c1.539-2.664,4.947-3.58,7.62-2.041l42.202,24.375c2.664,1.539,3.579,4.947,2.032,7.619l-9.21,15.951
				C1673.869,1006.805,1670.462,1007.715,1667.791,1006.178z"/>
			<path id="XMLID_143_" fill="none" stroke="#0686D8" stroke-width="1.5" stroke-miterlimit="10" d="M1667.791,1006.178
				l-42.203-24.379c-2.666-1.537-3.581-4.945-2.041-7.609l9.219-15.957c1.539-2.664,4.947-3.58,7.62-2.041l42.202,24.375
				c2.664,1.539,3.579,4.947,2.032,7.619l-9.21,15.951C1673.869,1006.805,1670.462,1007.715,1667.791,1006.178z"/>
		</g>
		<g id="XMLID_133_">
			
				<line id="XMLID_139_" fill="none" stroke="#0686D8" stroke-width="1.5" stroke-miterlimit="10" x1="1415.113" y1="984.098" x2="1428.834" y2="1007.863"/>
			<path id="XMLID_135_" fill="#5FB0E5" d="M1400.091,1006.178l42.203-24.379c2.665-1.537,3.58-4.945,2.041-7.609l-9.218-15.957
				c-1.54-2.664-4.949-3.58-7.612-2.041l-42.211,24.375c-2.662,1.539-3.58,4.947-2.032,7.619l9.209,15.951
				C1394.011,1006.805,1397.42,1007.715,1400.091,1006.178z"/>
			<path id="XMLID_134_" fill="none" stroke="#0686D8" stroke-width="1.5" stroke-miterlimit="10" d="M1400.091,1006.178
				l42.203-24.379c2.665-1.537,3.58-4.945,2.041-7.609l-9.218-15.957c-1.54-2.664-4.949-3.58-7.612-2.041l-42.211,24.375
				c-2.662,1.539-3.58,4.947-2.032,7.619l9.209,15.951C1394.011,1006.805,1397.42,1007.715,1400.091,1006.178z"/>
		</g>
	</g>
	<path opacity="0.3" fill="#03436C" d="M660.266,1167.873v-13.605h21.943l21.744-34.713h16.541v-10.412h-14.223v-18.885h14.223
		v-10.412h-14.223v-18.885h14.223v-10.412h-14.223v-18.885h14.223v-10.414h-14.223v-31.33c13.042-7.924,24.423-17.928,33.895-29.398
		V809.787c0-16.764-13.64-30.4-30.411-30.4H585.301v5.205h-40.745c-2.325,2.332-4.576,4.738-6.696,7.254l-4.026-3.391
		c-20.371,24.174-31.596,54.92-31.596,86.582c0,46.814,24.754,90.557,64.809,114.883v31.33h-14.228v10.414h14.228v18.885h-14.228
		v10.412h14.228v18.885h-14.228v10.412h14.228v18.885h-14.228v10.412h16.298l18.314,34.713h23.752v13.605
		c0,6.695,5.45,12.145,12.146,12.145h24.789C654.816,1180.018,660.266,1174.568,660.266,1167.873z"/>
	<g id="XMLID_132_">
		<g id="XMLID_148_">
			<path id="XMLID_579_" fill="#5FB0E5" d="M662.003,1174.814h-24.789c-3.825,0-6.941-3.125-6.941-6.941v-45.342
				c0-3.826,3.116-6.943,6.941-6.943h24.789c3.816,0,6.941,3.117,6.941,6.943v45.342
				C668.944,1171.689,665.819,1174.814,662.003,1174.814z"/>
			<path id="XMLID_577_" fill="none" stroke="#0686D8" stroke-width="1.5" stroke-miterlimit="10" d="M662.003,1174.814h-24.789
				c-3.825,0-6.941-3.125-6.941-6.941v-45.342c0-3.826,3.116-6.943,6.941-6.943h24.789c3.816,0,6.941,3.117,6.941,6.943v45.342
				C668.944,1171.689,665.819,1174.814,662.003,1174.814z"/>
			<path id="XMLID_569_" fill="#FFFFFF" d="M779.752,875.037c0-71.363-57.847-129.211-129.213-129.211
				c-71.362,0-129.212,57.848-129.212,129.211c0,47.885,26.109,89.586,64.81,111.91v127.4l18.308,34.715h88.774l21.732-34.715
				v-127.4C753.649,964.623,779.752,922.922,779.752,875.037z"/>
			<polygon id="XMLID_580_" fill="#D2E9F7" points="586.136,1031.691 586.136,1123.926 604.444,1149.062 693.218,1149.062 
				714.951,1123.926 714.951,1031.691 			"/>
			<polygon id="XMLID_571_" fill="#5FB0E5" points="714.951,1114.348 693.218,1149.062 604.444,1149.062 586.136,1114.348 			"/>
			<path id="XMLID_574_" fill="none" stroke="#0686D8" stroke-width="1.5" stroke-miterlimit="10" d="M551.695,791.812
				c-18.945,22.482-30.368,51.523-30.368,83.225c0,47.885,26.109,89.586,64.81,111.91v127.4l18.308,34.715h88.774l21.732-34.715
				v-127.4c38.699-22.324,64.801-64.025,64.801-111.91c0-71.363-57.847-129.211-129.213-129.211c-17.162,0-33.539,3.348-48.524,9.42
				"/>
			<path id="XMLID_568_" fill="none" stroke="#0686D8" stroke-width="1.5" stroke-miterlimit="10" d="M586.129,763.002
				c-10.072,5.795-13.461,7.402-21.583,15.605"/>
			
				<line id="XMLID_566_" fill="none" stroke="#0686D8" stroke-width="1.5" stroke-miterlimit="10" x1="566.711" y1="1026.457" x2="734.375" y2="1026.457"/>
			
				<line id="XMLID_564_" fill="none" stroke="#0686D8" stroke-width="1.5" stroke-miterlimit="10" x1="566.711" y1="1055.754" x2="734.375" y2="1055.754"/>
			
				<line id="XMLID_567_" fill="none" stroke="#0686D8" stroke-width="1.5" stroke-miterlimit="10" x1="566.711" y1="1085.051" x2="734.375" y2="1085.051"/>
			
				<line id="XMLID_573_" fill="none" stroke="#0686D8" stroke-width="1.5" stroke-miterlimit="10" x1="566.711" y1="1114.348" x2="734.375" y2="1114.348"/>
			<g id="XMLID_149_">
				<path id="XMLID_160_" fill="#5FB0E5" d="M656.844,791.66v83.975l0.046,0.047l59.252,59.406
					c15.183-15.143,24.6-36.074,24.661-59.201c0-0.09,0.013-0.172,0.013-0.252C740.816,829.262,703.222,791.66,656.844,791.66z"/>
				<path id="XMLID_158_" fill="#9ECFEF" d="M593.477,816.18c-15.211,15.172-24.633,36.131-24.673,59.301l83.964,0.201v-0.047
					V791.66C629.622,791.66,608.661,801.037,593.477,816.18z"/>
				<path id="XMLID_157_" fill="#D2E9F7" d="M652.817,879.764l-0.049-0.008l-83.964-0.205c0,0.057-0.007,0.109-0.007,0.164
					c0,46.379,37.6,83.973,83.972,83.973c23.149,0,44.102-9.367,59.292-24.518L652.817,879.764z"/>
				<path id="XMLID_570_" fill="none" stroke="#0686D8" stroke-width="1.5" stroke-miterlimit="10" d="M742.836,874.238
					c0,49.402-40.047,89.449-89.451,89.449c-49.4,0-89.457-40.047-89.457-89.449c0-49.408,40.057-89.457,89.457-89.457
					C702.79,784.781,742.836,824.83,742.836,874.238z"/>
				<polyline id="XMLID_154_" fill="none" stroke="#0686D8" stroke-width="1.5" stroke-miterlimit="10" points="563.997,877.371 
					653.386,877.371 712.061,935.088 				"/>
				
					<line id="XMLID_153_" fill="none" stroke="#0686D8" stroke-width="1.5" stroke-miterlimit="10" x1="649.847" y1="783.088" x2="649.847" y2="875.682"/>
			</g>
		</g>
	</g>
	<g id="XMLID_547_">
		<path id="XMLID_551_" fill="#FFFFFF" d="M2137.834,1174.814h-26.009c-1.956,0-3.55-1.596-3.55-3.553V796.604
			c0-0.516,0.114-1.023,0.33-1.492l13-28.172c1.27-2.75,5.175-2.75,6.447,0l13.001,28.172c0.219,0.469,0.327,0.977,0.327,1.492
			v374.658C2141.381,1173.219,2139.795,1174.814,2137.834,1174.814z"/>
		<rect id="XMLID_550_" x="2108.275" y="808.555" fill="#5FB0E5" width="33.105" height="330.395"/>
		<path id="XMLID_549_" fill="none" stroke="#0686D8" stroke-width="1.5" stroke-miterlimit="10" d="M2141.381,1174.814h-33.105
			v-378.99l14.635-31.711c0.759-1.633,3.084-1.633,3.836,0l14.635,31.711V1174.814z"/>
		
			<line id="XMLID_548_" fill="none" stroke="#0686D8" stroke-width="1.5" stroke-miterlimit="10" x1="2107.135" y1="808.555" x2="2141.381" y2="808.555"/>
	</g>
	<g>
		<g id="XMLID_499_">
			<path id="XMLID_518_" fill="#FFFFFF" d="M1259.004,1042.887c-32.988,22.41-41.554,67.311-19.15,100.293
				c22.402,32.975,67.304,41.551,100.288,19.148c32.978-22.406,41.547-67.307,19.144-100.285
				C1336.88,1029.061,1291.98,1020.484,1259.004,1042.887z"/>
			<path id="XMLID_507_" fill="none" stroke="#0686D8" stroke-width="1.5" stroke-miterlimit="10" d="M1259.004,1042.887
				c-32.988,22.41-41.554,67.311-19.15,100.293c22.402,32.975,67.304,41.551,100.288,19.148
				c32.978-22.406,41.547-67.307,19.144-100.285C1336.88,1029.061,1291.98,1020.484,1259.004,1042.887z"/>
			<g id="XMLID_513_">
				<path id="XMLID_515_" fill="none" stroke="#0686D8" stroke-width="1.5" stroke-miterlimit="10" d="M1308.899,1063.928
					l-29.968,19.496c-6.325,4.115-8.114,12.582-4,18.912l0,0c4.114,6.324,12.582,8.115,18.913,4l12.336-8.027
					c6.324-4.115,14.792-2.324,18.912,4.006l0,0c4.116,6.328,2.319,14.793-4.006,18.906l-30.85,20.074"/>
				
					<line id="XMLID_514_" fill="none" stroke="#0686D8" stroke-width="1.5" stroke-miterlimit="10" x1="1272.335" y1="1060.752" x2="1326.804" y2="1144.471"/>
			</g>
		</g>
	</g>
	
		<line fill="none" stroke="#0686D8" stroke-width="1.5" stroke-miterlimit="10" x1="502.238" y1="1181.752" x2="2250.777" y2="1181.752"/>
</g>
</svg>
