<?xml version="1.0" encoding="utf-8"?>
<!-- Generator: Adobe Illustrator 16.0.0, SVG Export Plug-In . SVG Version: 6.00 Build 0)  -->
<!DOCTYPE svg PUBLIC "-//W3C//DTD SVG 1.1//EN" "http://www.w3.org/Graphics/SVG/1.1/DTD/svg11.dtd">
<svg version="1.1" id="Layer_1" xmlns="http://www.w3.org/2000/svg" xmlns:xlink="http://www.w3.org/1999/xlink" x="0px" y="0px"
	 width="1498px" height="1142px" viewBox="0 0 1498 1142" enable-background="new 0 0 1498 1142" xml:space="preserve">
<path fill="#D2E9F7" d="M1455.839,684.316h-166.972c-14.653,0-27.433-15.029-27.871-34.527
	c-0.454-20.173,11.695-36.715,26.749-36.715h92.061c17.974,0,33.672-18.059,34.831-41.937c1.275-26.166-14.295-47.916-33.676-47.916
	h-303.295c-11.897,0-22.27-12.203-22.625-28.029c-0.369-16.377,9.492-29.811,21.713-29.811h111.784
	c14.566,0,27.269-14.938,27.703-34.318c0.451-20.05-11.626-36.496-26.584-36.496H994.428c-17.083,0-30.93-18.433-30.93-41.172l0,0
	c0-22.738,13.847-41.17,30.93-41.17h305.248c18.073,0,32.722-19.5,32.722-43.551v-0.004c0-24.051-14.648-43.55-32.722-43.55H178.304
	c-21.565,0-39.049,23.272-39.049,51.98l0,0c0,28.709,17.483,51.985,39.049,51.985H334.45c13.779,0,24.871,15.064,24.591,33.407l0,0
	c-0.271,17.817-11.201,32.076-24.591,32.076h-73.852c-20.273,0-37.663,21.112-38.035,48.093
	c-0.377,27.487,16.249,49.929,36.812,49.929h86.152c12.108,0,22.668,12.422,23.032,28.531c0.377,16.674-9.664,30.349-22.104,30.349
	H37.177c-18.127,0-32.824,19.558-32.824,43.692l0,0c0,24.133,14.697,43.694,32.824,43.694h381.376
	c14.217,0,26.609,14.597,27.021,33.517c0.426,19.562-11.359,35.57-25.938,35.57H191.873c-14.691,0-26.599,15.854-26.599,35.407
	v4.748c0,19.558,11.908,35.407,26.599,35.407h1263.966c20.574,0,37.259-22.202,37.259-49.592l0,0
	C1493.098,706.521,1476.413,684.316,1455.839,684.316z"/>
<circle id="XMLID_88_" fill="#5FB0E5" cx="1214.648" cy="462.729" r="5.592"/>
<path id="XMLID_86_" fill="#5FB0E5" d="M113.166,439.097c0,2.588-2.095,4.685-4.682,4.685c-2.586,0-4.682-2.096-4.682-4.685
	c0-2.583,2.096-4.68,4.682-4.68C111.071,434.417,113.166,436.514,113.166,439.097z"/>
<path id="XMLID_34_" fill="#5FB0E5" d="M1329.076,354.827c0,3.409-2.758,6.166-6.166,6.166c-3.402,0-6.165-2.757-6.165-6.166
	c0-3.403,2.763-6.165,6.165-6.165C1326.318,348.662,1329.076,351.423,1329.076,354.827z"/>
<circle id="XMLID_70_" fill="#5FB0E5" cx="521.869" cy="372.203" r="6.518"/>
<path id="XMLID_47_" fill="#5FB0E5" d="M325.979,377.306c-9.126,2.42-11.087,4.384-13.507,13.507
	c-2.422-9.123-4.384-11.087-13.507-13.507c9.123-2.419,11.085-4.384,13.507-13.506C314.892,372.922,316.854,374.887,325.979,377.306
	z"/>
<circle id="XMLID_83_" fill="#5FB0E5" cx="81.611" cy="254.494" r="7.489"/>
<circle id="XMLID_71_" fill="#5FB0E5" cx="1102.239" cy="277.328" r="9.073"/>
<path id="XMLID_66_" fill="#5FB0E5" d="M787.839,458.537c-6.107,1.618-7.419,2.935-9.041,9.036
	c-1.618-6.101-2.931-7.418-9.037-9.036c6.106-1.622,7.419-2.934,9.037-9.037C780.42,455.603,781.731,456.915,787.839,458.537z"/>
<path id="XMLID_59_" fill="#5FB0E5" d="M891.389,329.938c-8.249,2.188-10.02,3.96-12.209,12.208
	c-2.188-8.248-3.96-10.02-12.202-12.208c8.242-2.187,10.015-3.959,12.202-12.204C881.369,325.978,883.14,327.75,891.389,329.938z"/>
<path id="XMLID_46_" fill="#5FB0E5" d="M553.25,236.681c-14.869,3.942-18.068,7.141-22.014,22.009
	c-3.944-14.869-7.14-18.067-22.013-22.009c14.873-3.946,18.069-7.145,22.013-22.014C535.183,229.536,538.381,232.735,553.25,236.681
	z"/>
<g>
	<g id="XMLID_110_">
		<g id="XMLID_117_">
			<path id="XMLID_132_" fill="#9ECFEF" d="M1345.033,882.217V517.18c0-9.916-8.039-17.955-17.947-17.955h-265.335
				c-9.913,0-17.954,8.039-17.954,17.955v365.037H1345.033z"/>
			<path id="XMLID_131_" fill="#FFFFFF" d="M1320.438,882.217V517.18c0-9.916-6.818-17.955-15.223-17.955h-224.962
				c-8.407,0-15.225,8.039-15.225,17.955v365.037H1320.438z"/>
			<path id="XMLID_130_" fill="#9ECFEF" d="M1043.797,545.76v-31.438c0-8.339,6.759-15.097,15.1-15.097h271.039
				c8.34,0,15.098,6.758,15.098,15.097v31.438H1043.797z"/>
			<path id="XMLID_129_" fill="none" stroke="#0686D8" stroke-width="1.5" stroke-miterlimit="10" d="M1043.797,619.312V514.322
				c0-8.339,6.759-15.097,15.1-15.097h31.553h8.446"/>
			<path id="XMLID_128_" fill="none" stroke="#0686D8" stroke-width="1.5" stroke-miterlimit="10" d="M1151.227,499.225h178.709
				c8.34,0,15.098,6.758,15.098,15.097v207.055"/>
			
				<line id="XMLID_127_" fill="none" stroke="#0686D8" stroke-width="1.5" stroke-miterlimit="10" x1="1113.503" y1="499.225" x2="1134.196" y2="499.225"/>
			
				<line id="XMLID_126_" fill="none" stroke="#0686D8" stroke-width="1.5" stroke-miterlimit="10" x1="1043.797" y1="546.576" x2="1345.033" y2="546.576"/>
			
				<line id="XMLID_125_" fill="none" stroke="#0686D8" stroke-width="1.5" stroke-miterlimit="10" x1="1078.395" y1="525.054" x2="1085.403" y2="525.054"/>
			
				<line id="XMLID_124_" fill="none" stroke="#0686D8" stroke-width="1.5" stroke-miterlimit="10" x1="1098.736" y1="525.054" x2="1105.749" y2="525.054"/>
			
				<line id="XMLID_123_" fill="none" stroke="#0686D8" stroke-width="1.5" stroke-miterlimit="10" x1="1119.077" y1="525.054" x2="1126.085" y2="525.054"/>
			<rect id="XMLID_122_" x="1084.153" y="581.331" fill="#9ECFEF" width="220.525" height="86.981"/>
			<rect id="XMLID_121_" x="1084.175" y="723.547" fill="#9ECFEF" width="67.052" height="86.982"/>
			<rect id="XMLID_120_" x="1160.915" y="723.547" fill="#D2E9F7" width="67.05" height="86.982"/>
			<rect id="XMLID_119_" x="1237.651" y="723.547" fill="#5FB0E5" width="67.052" height="86.982"/>
			
				<line id="XMLID_118_" fill="none" stroke="#0686D8" stroke-width="1.5" stroke-miterlimit="10" x1="1147.559" y1="695.832" x2="1241.324" y2="695.832"/>
		</g>
	</g>
	<path opacity="0.3" fill="#0565A2" d="M144.513,683.574h-21.686v-3.501h-3.7v63.723v17.148v24.993
		c0,15.227,12.388,27.611,27.613,27.611h6.206V692.003C152.945,687.347,149.17,683.574,144.513,683.574z"/>
	<g>
		<path id="XMLID_472_" fill="#5FB0E5" d="M595.935,755.293H131.234V488.097c0-5.086,4.122-9.209,9.207-9.209H586.73
			c5.085,0,9.205,4.124,9.205,9.209V755.293z"/>
		
			<line id="XMLID_82_" fill="none" stroke="#0686D8" stroke-width="1.5" stroke-miterlimit="10" x1="217.739" y1="478.888" x2="458.625" y2="478.888"/>
		
			<line id="XMLID_469_" fill="none" stroke="#0686D8" stroke-width="1.5" stroke-miterlimit="10" x1="190.779" y1="478.888" x2="210.254" y2="478.888"/>
		<path id="XMLID_468_" fill="none" stroke="#0686D8" stroke-width="1.5" stroke-miterlimit="10" d="M595.935,755.293H131.234
			V502.684c0-13.143,10.654-23.796,23.796-23.796h23.587"/>
		<rect id="XMLID_467_" x="156.45" y="505.915" fill="#FFFFFF" width="414.789" height="218.315"/>
		<rect id="XMLID_466_" x="293.584" y="797.186" fill="#FFFFFF" width="140.005" height="82.879"/>
		<rect id="XMLID_465_" x="293.584" y="797.186" fill="#D2E9F7" width="140.005" height="41.441"/>
		<polyline id="XMLID_461_" fill="none" stroke="#0686D8" stroke-width="1.5" stroke-miterlimit="10" points="293.584,876.717 
			293.584,797.186 433.589,797.186 433.589,876.717 		"/>
		<path id="XMLID_463_" fill="#FFFFFF" d="M595.935,745.146H131.234v36.678c0,14.404,11.673,26.074,26.075,26.074h412.554
			c14.396,0,26.071-11.67,26.071-26.074V745.146z"/>
		<path id="XMLID_462_" fill="none" stroke="#0686D8" stroke-width="1.5" stroke-miterlimit="10" d="M496.265,745.146H131.234
			v38.641c0,13.316,10.795,24.111,24.112,24.111h340.919"/>
		<rect id="XMLID_449_" x="185.771" y="521.354" fill="#5FB0E5" width="357.454" height="77.662"/>
		<rect id="XMLID_473_" x="185.771" y="610.974" fill="#9ECFEF" width="95.141" height="100.123"/>
		<rect id="XMLID_474_" x="316.927" y="610.723" fill="#D2E9F7" width="95.143" height="100.123"/>
		<rect id="XMLID_475_" x="448.085" y="610.472" fill="#9ECFEF" width="95.139" height="100.128"/>
	</g>
	<path opacity="0.3" fill="#0565A2" d="M501.43,626.813h-3.499v183.237h72.656c14.4,0,26.076-11.672,26.076-26.074v-23.032l0,0
		v-6.999l0,0v-6.648V490.248c0-5.086-4.126-9.209-9.211-9.209H459.349v-3.499h-1.332v124.124c0,9.019,7.337,16.356,16.358,16.356
		h27.054v5.832V626.813z M466.325,606.354c0.997,1.243,2.115,2.359,3.354,3.354C468.29,608.895,467.142,607.742,466.325,606.354z"/>
	<g>
		<path id="XMLID_81_" fill="#5FB0E5" d="M1014.894,861.912H515.429c-2.566,0-4.667-2.1-4.667-4.668V500.861
			c0-2.566,2.1-4.667,4.667-4.667h499.464c2.57,0,4.667,2.101,4.667,4.667v356.383
			C1019.561,859.812,1017.464,861.912,1014.894,861.912z"/>
		<path id="XMLID_147_" fill="none" stroke="#0686D8" stroke-width="1.5" stroke-miterlimit="10" d="M523.404,861.912
			c-6.953,0-12.641-5.693-12.641-12.646V626.813"/>
		<path id="XMLID_145_" fill="none" stroke="#0686D8" stroke-width="1.5" stroke-miterlimit="10" d="M738.801,496.195h268.119
			c6.953,0,12.641,5.687,12.641,12.641v111.785"/>
		<rect id="XMLID_79_" x="535.472" y="524.972" fill="#389EE0" width="456.619" height="296.772"/>
		<path id="XMLID_332_" fill="#FFFFFF" d="M1010.673,882.217H514.045c-11.922,0-22.092-8.637-24.02-20.402l-3.54-21.576h230.179
			l8.807,12.641h63.602l9.52-12.641h242.484L1038,859.004C1035.804,872.393,1024.235,882.217,1010.673,882.217z"/>
		<path id="XMLID_78_" fill="none" stroke="#0686D8" stroke-width="1.5" stroke-miterlimit="10" d="M1010.673,882.217H514.045
			c-11.922,0-22.092-8.637-24.02-20.402l-3.54-21.576h230.179l8.807,12.641h63.602l9.52-12.641h242.484L1038,859.004
			C1035.804,872.393,1024.235,882.217,1010.673,882.217z"/>
		<g id="XMLID_648_">
			<rect id="XMLID_597_" x="595.559" y="554.532" fill="#FFFFFF" width="51.161" height="6.703"/>
			<rect id="XMLID_596_" x="621.137" y="577.416" fill="#FFFFFF" width="35.239" height="6.703"/>
			<rect id="XMLID_595_" x="734.316" y="577.416" fill="#FFFFFF" width="245.771" height="6.703"/>
			<rect id="XMLID_594_" x="680.633" y="577.416" fill="#FFFFFF" width="39.646" height="6.703"/>
			<rect id="XMLID_593_" x="633.132" y="596.515" fill="#FFFFFF" width="70.225" height="6.698"/>
			<rect id="XMLID_592_" x="661.578" y="623.486" fill="#FFFFFF" width="89.111" height="6.698"/>
			<rect id="XMLID_591_" x="595.559" y="648.859" fill="#FFFFFF" width="97.379" height="6.699"/>
			<rect id="XMLID_590_" x="703.357" y="648.859" fill="#FFFFFF" width="70.345" height="6.699"/>
			<rect id="XMLID_589_" x="621.137" y="674.236" fill="#FFFFFF" width="130.579" height="6.699"/>
			<rect id="XMLID_588_" x="805.039" y="674.236" fill="#FFFFFF" width="86.814" height="6.699"/>
			<rect id="XMLID_587_" x="757.233" y="674.236" fill="#FFFFFF" width="40.976" height="6.699"/>
			<rect id="XMLID_586_" x="664.545" y="699.613" fill="#FFFFFF" width="114.253" height="6.699"/>
			<rect id="XMLID_585_" x="633.132" y="699.613" fill="#FFFFFF" width="23.924" height="6.699"/>
			<rect id="XMLID_32_" x="595.559" y="718.252" fill="#FFFFFF" width="77.939" height="6.697"/>
			<rect id="XMLID_582_" x="679.547" y="718.252" fill="#FFFFFF" width="26.783" height="6.697"/>
			<rect id="XMLID_581_" x="713.793" y="718.252" fill="#FFFFFF" width="127.861" height="6.697"/>
			<rect id="XMLID_580_" x="851.584" y="718.252" fill="#FFFFFF" width="115.462" height="6.697"/>
			<rect id="XMLID_579_" x="621.137" y="743.629" fill="#FFFFFF" width="40.441" height="6.697"/>
			<rect id="XMLID_578_" x="673.498" y="743.629" fill="#FFFFFF" width="95.999" height="6.697"/>
			<rect id="XMLID_577_" x="642.901" y="769.006" fill="#FFFFFF" width="77.938" height="6.697"/>
			<rect id="XMLID_576_" x="737.216" y="769.006" fill="#FFFFFF" width="77.936" height="6.697"/>
			<rect id="XMLID_575_" x="827.261" y="769.006" fill="#FFFFFF" width="73.401" height="6.697"/>
			<rect id="XMLID_351_" x="950.847" y="623.486" fill="#FFFFFF" width="22.022" height="6.698"/>
			<rect id="XMLID_30_" x="758.56" y="623.486" fill="#FFFFFF" width="182.513" height="6.698"/>
			<rect id="XMLID_328_" x="661.578" y="554.532" fill="#FFFFFF" width="207.449" height="6.703"/>
			<rect id="XMLID_326_" x="560.865" y="544.552" fill="#FFFFFF" width="10.779" height="10.782"/>
			<rect id="XMLID_294_" x="560.865" y="572.945" fill="#FFFFFF" width="10.779" height="10.777"/>
			<rect id="XMLID_291_" x="560.865" y="601.336" fill="#FFFFFF" width="10.779" height="10.781"/>
			<rect id="XMLID_182_" x="560.865" y="629.725" fill="#FFFFFF" width="10.779" height="10.781"/>
			<rect id="XMLID_181_" x="560.865" y="658.114" fill="#FFFFFF" width="10.779" height="10.782"/>
			<rect id="XMLID_178_" x="560.865" y="686.504" fill="#FFFFFF" width="10.779" height="10.781"/>
			<rect id="XMLID_177_" x="560.865" y="714.893" fill="#FFFFFF" width="10.779" height="10.782"/>
			<rect id="XMLID_29_" x="560.865" y="743.281" fill="#FFFFFF" width="10.779" height="10.783"/>
			<rect id="XMLID_25_" x="560.865" y="771.676" fill="#FFFFFF" width="10.779" height="10.777"/>
			<rect id="XMLID_24_" x="560.865" y="800.064" fill="#FFFFFF" width="10.779" height="10.777"/>
		</g>
		<path opacity="0.3" fill="#0565A2" d="M515.429,496.195c-2.566,0-4.667,2.101-4.667,4.667v122.99h204.372
			c11.924,0,21.594-9.67,21.594-21.596V496.195H515.429z"/>
		<path id="XMLID_1454_" fill="#FFFFFF" d="M705.803,614.519H492.447c-11.926,0-21.595-9.67-21.595-21.595V450.221
			c0-11.926,9.667-21.596,21.595-21.596h213.356c11.922,0,21.594,9.67,21.594,21.596v142.703
			C727.396,604.849,717.725,614.519,705.803,614.519z"/>
		<path id="XMLID_1453_" fill="#D2E9F7" d="M470.852,468.257v-26.771c0-7.104,5.758-12.86,12.857-12.86h230.833
			c7.1,0,12.855,5.755,12.855,12.86v26.771H470.852z"/>
		<path id="XMLID_1452_" fill="none" stroke="#0686D8" stroke-width="1.5" stroke-miterlimit="10" d="M562.344,428.625h152.197
			c7.1,0,12.855,5.755,12.855,12.86v160.178c0,7.101-5.756,12.855-12.855,12.855H483.708c-7.099,0-12.857-5.755-12.857-12.855
			V441.485c0-7.104,5.758-12.86,12.857-12.86h26.874h7.194"/>
		
			<line id="XMLID_882_" fill="none" stroke="#0686D8" stroke-width="1.5" stroke-miterlimit="10" x1="527.538" y1="428.625" x2="547.837" y2="428.625"/>
		
			<line id="XMLID_879_" fill="none" stroke="#0686D8" stroke-width="1.5" stroke-miterlimit="10" x1="470.852" y1="468.955" x2="727.396" y2="468.955"/>
		
			<line id="XMLID_876_" fill="none" stroke="#0686D8" stroke-width="1.5" stroke-miterlimit="10" x1="491.562" y1="450.622" x2="495.993" y2="450.622"/>
		
			<line id="XMLID_873_" fill="none" stroke="#0686D8" stroke-width="1.5" stroke-miterlimit="10" x1="508.034" y1="450.622" x2="512.467" y2="450.622"/>
		
			<line id="XMLID_872_" fill="none" stroke="#0686D8" stroke-width="1.5" stroke-miterlimit="10" x1="524.505" y1="450.622" x2="528.937" y2="450.622"/>
		<g id="XMLID_76_">
			<text transform="matrix(1 0 0 1 555.564 553.2231)" fill="#0686D8" font-family="'Montserrat-Bold'" font-size="56.7438">&lt;/&gt;</text>
		</g>
	</g>
	<path opacity="0.3" fill="#0565A2" d="M1041.456,859.568l3.74-22.83h-25.636V623.326h-37.34c-5.51,0-9.988,4.48-9.988,9.99v242.41
		c0,5.51,4.479,9.988,9.988,9.988h28.452C1026.025,885.715,1038.968,874.721,1041.456,859.568z"/>
	<path opacity="0.3" fill="#0565A2" d="M1132.087,623.326H996.22c-5.51,0-9.988,4.48-9.988,9.99v242.41
		c0,5.51,4.479,9.988,9.988,9.988h135.867c5.51,0,9.988-4.479,9.988-9.988v-242.41
		C1142.075,627.807,1137.597,623.326,1132.087,623.326z"/>
	<g id="XMLID_450_">
		<path id="XMLID_457_" fill="#FFFFFF" d="M1127.42,882.217H991.553c-3.581,0-6.489-2.908-6.489-6.49v-242.41
			c0-3.582,2.908-6.489,6.489-6.489h135.867c3.581,0,6.489,2.907,6.489,6.489v242.41
			C1133.909,879.309,1131.001,882.217,1127.42,882.217z"/>
		<path id="XMLID_33_" fill="none" stroke="#0686D8" stroke-width="1.5" stroke-miterlimit="10" d="M1127.42,882.217H991.553
			c-3.581,0-6.489-2.908-6.489-6.49v-242.41c0-3.582,2.908-6.489,6.489-6.489h135.867c3.581,0,6.489,2.907,6.489,6.489v242.41
			C1133.909,879.309,1131.001,882.217,1127.42,882.217z"/>
		<rect id="XMLID_455_" x="998.375" y="668.928" fill="#D2E9F7" width="122.225" height="165.68"/>
		
			<line id="XMLID_452_" fill="none" stroke="#0686D8" stroke-width="1.5" stroke-miterlimit="10" x1="1030.623" y1="651.078" x2="1088.354" y2="651.078"/>
		<path id="XMLID_451_" fill="none" stroke="#0686D8" stroke-width="1.5" stroke-miterlimit="10" d="M1065.694,853.887
			c0,3.428-2.782,6.201-6.207,6.201c-3.427,0-6.202-2.773-6.202-6.201s2.775-6.207,6.202-6.207
			C1062.912,847.68,1065.694,850.459,1065.694,853.887z"/>
		<rect id="XMLID_476_" x="1008.522" y="679.477" fill="#5FB0E5" width="101.928" height="46.941"/>
		<rect id="XMLID_477_" x="1008.522" y="737.763" fill="#9ECFEF" width="44.763" height="90.173"/>
		<rect id="XMLID_478_" x="1066.809" y="737.763" fill="#0686D8" width="44.764" height="90.173"/>
	</g>
	
		<line id="XMLID_174_" fill="none" stroke="#0686D8" stroke-width="1.5" stroke-miterlimit="10" x1="119.127" y1="882.217" x2="1443.519" y2="882.217"/>
</g>
</svg>
