<svg xmlns="http://www.w3.org/2000/svg" width="16" height="16" viewBox="0 0 16 16">
    <path fill="#64696E" d="M8,16 C3.581722,16 0,12.418278 0,8 C0,3.581722 3.581722,0 8,0 C12.418278,0 16,3.581722 16,8 C16,12.418278 12.418278,16 8,16 Z M8,15 C11.8659932,15 15,11.8659932 15,8 C15,4.13400675 11.8659932,1 8,1 C4.13400675,1 1,4.13400675 1,8 C1,11.8659932 4.13400675,15 8,15 Z M8,6 C7.44386482,6 7,5.55228475 7,5 C7,4.44386482 7.44771525,4 8,4 C8.55613518,4 9,4.44771525 9,5 C9,5.55613518 8.55228475,6 8,6 Z M8.75,12 L7.25,12 L7.25,7 L8.75,7 L8.75,12 Z"/>
</svg>
